<?xml version="1.0" encoding="utf-8"?>
<!-- Generator: Adobe Illustrator 16.0.1, SVG Export Plug-In . SVG Version: 6.00 Build 0)  -->
<!DOCTYPE svg PUBLIC "-//W3C//DTD SVG 1.1//EN" "http://www.w3.org/Graphics/SVG/1.1/DTD/svg11.dtd">
<svg version="1.1" xmlns="http://www.w3.org/2000/svg" xmlns:xlink="http://www.w3.org/1999/xlink" x="0px" y="0px" width="130px"
	 height="20px" viewBox="0 0 130 20" enable-background="new 0 0 130 20" xml:space="preserve">
<g id="Help">
</g>
<g id="Nav">
	<g>
		<path fill="#FFFFFF" d="M20.387,2.871c0.216,0.012,0.45,0.061,0.702,0.144c0.252,0.084,0.507,0.195,0.765,0.333
			c0.258,0.138,0.51,0.306,0.756,0.504c0.246,0.198,0.471,0.417,0.675,0.657c0.456,0.516,0.852,1.146,1.188,1.89
			c0.335,0.744,0.558,1.596,0.666,2.556h0.054c0.072-0.48,0.183-0.936,0.333-1.368s0.318-0.834,0.504-1.206s0.384-0.711,0.594-1.017
			s0.423-0.579,0.639-0.819c0.42-0.456,0.882-0.834,1.386-1.134c0.504-0.3,0.96-0.479,1.368-0.54l0.234,1.26
			c-0.324,0.132-0.678,0.336-1.062,0.612c-0.384,0.276-0.765,0.636-1.143,1.08c-0.378,0.444-0.732,0.972-1.062,1.584
			c-0.33,0.612-0.597,1.314-0.801,2.106c-0.096,0.36-0.177,0.747-0.243,1.161s-0.099,0.855-0.099,1.323v3.114h-1.548v-3.132
			c0-0.888-0.084-1.704-0.252-2.448c-0.18-0.816-0.411-1.539-0.693-2.169c-0.282-0.63-0.597-1.17-0.945-1.62
			c-0.348-0.45-0.717-0.807-1.107-1.071c-0.39-0.264-0.783-0.444-1.179-0.54L20.387,2.871z"/>
		<path fill="#FFFFFF" d="M37.722,7.623v4.896c0,0.72,0.024,1.275,0.072,1.665c0.048,0.39,0.102,0.699,0.162,0.927h-1.512
			c-0.061-0.132-0.117-0.396-0.171-0.792c-0.054-0.396-0.081-0.942-0.081-1.638V7.623H33.42c-0.024,0.576-0.069,1.224-0.135,1.944
			c-0.066,0.72-0.153,1.431-0.261,2.133c-0.108,0.702-0.231,1.356-0.369,1.962c-0.138,0.606-0.285,1.089-0.441,1.449h-1.458
			c0.156-0.432,0.303-0.954,0.441-1.566c0.138-0.612,0.261-1.26,0.369-1.944c0.108-0.684,0.195-1.374,0.261-2.07
			c0.066-0.696,0.111-1.332,0.135-1.908c-0.348,0-0.672,0.012-0.972,0.036c-0.3,0.024-0.558,0.066-0.774,0.126L30,6.867
			c0.204-0.132,0.492-0.243,0.864-0.333c0.372-0.09,0.9-0.135,1.584-0.135h6.624l-0.18,1.224H37.722z"/>
		<path fill="#FFFFFF" d="M48.54,10.683c0,1.332-0.366,2.424-1.098,3.276c-0.78,0.888-1.824,1.332-3.132,1.332
			c-1.26,0-2.268-0.432-3.024-1.296c-0.708-0.84-1.062-1.896-1.062-3.168c0-1.332,0.366-2.424,1.098-3.276
			c0.78-0.888,1.824-1.332,3.132-1.332c1.26,0,2.268,0.432,3.024,1.296C48.186,8.343,48.54,9.399,48.54,10.683z M46.938,10.737
			c0-0.876-0.204-1.626-0.612-2.25c-0.468-0.732-1.116-1.098-1.944-1.098c-0.852,0-1.512,0.366-1.98,1.098
			c-0.408,0.624-0.612,1.386-0.612,2.286c0,0.864,0.21,1.614,0.63,2.25c0.468,0.732,1.116,1.098,1.944,1.098
			c0.816,0,1.464-0.372,1.944-1.116C46.728,12.357,46.938,11.601,46.938,10.737z"/>
		<path fill="#FFFFFF" d="M56.741,7.389c0.504,0.348,0.897,0.822,1.179,1.422c0.282,0.6,0.423,1.23,0.423,1.89
			c0,0.804-0.123,1.494-0.369,2.07c-0.246,0.576-0.564,1.053-0.954,1.431c-0.39,0.378-0.828,0.657-1.314,0.837
			c-0.486,0.18-0.969,0.27-1.449,0.27c-0.576,0-1.11-0.103-1.602-0.306c-0.492-0.204-0.921-0.501-1.287-0.891
			c-0.366-0.39-0.654-0.861-0.864-1.413c-0.21-0.552-0.315-1.17-0.315-1.854c0-0.732,0.108-1.386,0.324-1.962
			c0.216-0.576,0.516-1.062,0.9-1.458c0.384-0.396,0.846-0.699,1.386-0.909c0.54-0.209,1.128-0.315,1.764-0.315h1.638h0.918
			c0.144,0,0.309,0,0.495,0s0.369,0,0.549,0c0.18,0,0.348,0,0.504,0c0.156,0,0.276,0,0.36,0l-0.054,1.188
			c-0.204,0-0.471-0.006-0.801-0.018c-0.33-0.012-0.807-0.03-1.431-0.054V7.389z M54.293,14.139c0.348,0,0.672-0.087,0.972-0.261
			s0.564-0.414,0.792-0.72c0.228-0.306,0.405-0.668,0.531-1.089c0.126-0.42,0.189-0.876,0.189-1.368
			c0-0.372-0.048-0.753-0.144-1.143c-0.096-0.39-0.243-0.747-0.441-1.071c-0.198-0.324-0.453-0.591-0.765-0.801
			s-0.684-0.315-1.116-0.315c-0.444,0-0.825,0.099-1.143,0.297c-0.318,0.198-0.582,0.459-0.792,0.783
			c-0.21,0.324-0.363,0.69-0.459,1.098c-0.096,0.408-0.144,0.816-0.144,1.224c0,0.48,0.063,0.924,0.189,1.332s0.3,0.762,0.522,1.062
			c0.222,0.3,0.486,0.537,0.792,0.711S53.921,14.139,54.293,14.139z"/>
		<path fill="#FFFFFF" d="M65.694,15.165c-0.096,0.048-0.219,0.083-0.369,0.108c-0.15,0.024-0.309,0.036-0.477,0.036
			c-0.684,0-1.182-0.219-1.494-0.657c-0.312-0.438-0.468-1.119-0.468-2.043V7.623h-0.918c-0.444,0-0.795,0.015-1.053,0.045
			c-0.258,0.03-0.477,0.063-0.657,0.099l-0.216-0.9c0.156-0.108,0.408-0.213,0.756-0.315c0.348-0.102,0.864-0.153,1.548-0.153h4.896
			l-0.198,1.224h-2.61v4.95c0,0.6,0.096,0.999,0.288,1.197c0.192,0.198,0.42,0.297,0.684,0.297c0.06,0,0.12,0,0.18,0
			s0.12-0.006,0.18-0.018L65.694,15.165z"/>
		<path fill="#FFFFFF" d="M70.483,7.839c0.108-0.204,0.249-0.405,0.423-0.603c0.174-0.198,0.381-0.372,0.621-0.522
			c0.24-0.15,0.51-0.273,0.81-0.369c0.3-0.096,0.624-0.144,0.972-0.144c0.288,0,0.609,0.054,0.963,0.162s0.681,0.3,0.981,0.576
			s0.552,0.654,0.756,1.134c0.204,0.48,0.306,1.092,0.306,1.836v5.526c0,0.252,0,0.528,0,0.828s0.006,0.6,0.018,0.9
			c0.012,0.3,0.03,0.582,0.054,0.846c0.024,0.264,0.06,0.486,0.108,0.666h-1.458c-0.06-0.132-0.105-0.318-0.135-0.558
			c-0.03-0.24-0.057-0.507-0.081-0.801c-0.024-0.294-0.039-0.6-0.045-0.918c-0.006-0.318-0.009-0.621-0.009-0.909v-5.4
			c0-0.348-0.033-0.681-0.099-0.999s-0.177-0.594-0.333-0.828s-0.36-0.42-0.612-0.558c-0.252-0.138-0.558-0.207-0.918-0.207
			c-0.516,0-0.96,0.162-1.332,0.486c-0.372,0.324-0.624,0.708-0.756,1.152c-0.072,0.204-0.108,0.45-0.108,0.738v5.238h-1.566V8.757
			c0-0.444-0.015-0.873-0.045-1.287s-0.093-0.771-0.189-1.071h1.386c0.083,0.168,0.146,0.381,0.189,0.639
			c0.042,0.258,0.063,0.525,0.063,0.801H70.483z M74.696,2.763l-1.53,2.574H72.14l0.954-2.574H74.696z"/>
		<path fill="#FFFFFF" d="M80.381,14.031v1.404c0,0.252,0.003,0.528,0.009,0.828c0.006,0.3,0.012,0.6,0.018,0.9
			c0.006,0.3,0.018,0.582,0.036,0.846c0.018,0.264,0.045,0.486,0.081,0.666h-1.494c-0.084-0.276-0.138-0.702-0.162-1.278
			c-0.024-0.576-0.036-1.206-0.036-1.89v-4.032c0-0.563,0.033-1.053,0.099-1.467c0.065-0.414,0.156-0.777,0.27-1.089
			c0.114-0.312,0.246-0.582,0.396-0.81c0.15-0.228,0.309-0.432,0.477-0.612c0.324-0.36,0.729-0.666,1.215-0.918
			c0.486-0.252,1.053-0.378,1.701-0.378c0.588,0,1.122,0.108,1.602,0.324s0.891,0.519,1.233,0.909
			c0.342,0.39,0.603,0.858,0.783,1.404s0.27,1.143,0.27,1.791c0,0.768-0.108,1.443-0.324,2.025
			c-0.216,0.582-0.504,1.071-0.864,1.467s-0.774,0.693-1.242,0.891c-0.468,0.198-0.954,0.297-1.458,0.297
			c-0.576,0-1.083-0.111-1.521-0.333c-0.438-0.222-0.783-0.537-1.035-0.945H80.381z M80.381,11.691c0,0.24,0.024,0.45,0.072,0.63
			c0.144,0.504,0.426,0.924,0.846,1.26s0.9,0.504,1.44,0.504c0.408,0,0.771-0.087,1.089-0.261c0.318-0.174,0.585-0.414,0.801-0.72
			c0.216-0.306,0.381-0.666,0.495-1.08c0.114-0.414,0.171-0.867,0.171-1.359c0-0.432-0.054-0.84-0.162-1.224
			c-0.108-0.384-0.264-0.72-0.468-1.008c-0.204-0.288-0.456-0.516-0.756-0.684c-0.3-0.168-0.648-0.252-1.044-0.252
			c-0.3,0-0.597,0.066-0.891,0.198c-0.294,0.132-0.558,0.339-0.792,0.621c-0.234,0.282-0.426,0.639-0.576,1.071
			c-0.15,0.432-0.225,0.954-0.225,1.566V11.691z"/>
		<path fill="#FFFFFF" d="M90.604,13.023c0,0.384,0.054,0.663,0.162,0.837s0.324,0.249,0.648,0.225l-0.09,1.134
			c-0.204,0.06-0.432,0.09-0.684,0.09c-0.228,0-0.441-0.03-0.639-0.09c-0.198-0.06-0.369-0.171-0.513-0.333
			s-0.255-0.381-0.333-0.657c-0.078-0.276-0.117-0.63-0.117-1.062V6.399h1.566V13.023z"/>
		<path fill="#FFFFFF" d="M98.359,8.415h-0.414c-0.612,0-1.143,0.072-1.593,0.216c-0.45,0.144-0.825,0.342-1.125,0.594
			c-0.3,0.252-0.522,0.543-0.666,0.873c-0.144,0.331-0.216,0.681-0.216,1.053c0,0.732,0.225,1.311,0.675,1.737
			c0.45,0.426,1.113,0.759,1.989,0.999c0.42,0.12,0.828,0.21,1.224,0.27c0.396,0.06,0.768,0.12,1.116,0.18
			c0.096,0,0.144,0.066,0.144,0.198c0,0.24-0.03,0.507-0.09,0.801s-0.138,0.591-0.234,0.891c-0.096,0.3-0.204,0.579-0.324,0.837
			c-0.12,0.258-0.24,0.465-0.36,0.621l-1.062-0.306c0.06-0.108,0.12-0.249,0.18-0.423c0.06-0.174,0.117-0.357,0.171-0.549
			s0.102-0.381,0.144-0.567s0.063-0.333,0.063-0.441c-0.576-0.084-1.176-0.204-1.8-0.36c-0.625-0.156-1.194-0.384-1.71-0.684
			c-0.516-0.3-0.939-0.696-1.269-1.188c-0.331-0.492-0.495-1.116-0.495-1.872c0-0.432,0.072-0.84,0.216-1.224
			c0.144-0.384,0.339-0.726,0.585-1.026s0.537-0.558,0.873-0.774c0.336-0.216,0.696-0.378,1.08-0.486v-0.09
			c-0.648-0.204-1.134-0.528-1.458-0.972c-0.324-0.444-0.486-0.966-0.486-1.566c0-0.372,0.075-0.738,0.225-1.098
			c0.15-0.36,0.378-0.684,0.684-0.972c0.306-0.288,0.69-0.519,1.152-0.693c0.461-0.174,0.999-0.261,1.611-0.261
			c0.456,0,0.864,0.045,1.224,0.135c0.36,0.09,0.66,0.207,0.9,0.351l-0.306,1.08c-0.168-0.096-0.399-0.189-0.693-0.279
			c-0.294-0.09-0.633-0.135-1.017-0.135c-0.372,0-0.696,0.057-0.972,0.171c-0.276,0.114-0.507,0.261-0.693,0.441
			c-0.186,0.18-0.324,0.39-0.414,0.63c-0.09,0.24-0.135,0.486-0.135,0.738c0,0.312,0.063,0.591,0.189,0.837s0.303,0.453,0.531,0.621
			c0.228,0.168,0.492,0.3,0.792,0.396c0.3,0.096,0.624,0.15,0.972,0.162h0.792V8.415z"/>
		<path fill="#FFFFFF" d="M102.607,7.839c0.108-0.204,0.249-0.405,0.423-0.603c0.174-0.198,0.381-0.372,0.621-0.522
			c0.24-0.15,0.51-0.273,0.81-0.369c0.3-0.096,0.624-0.144,0.972-0.144c0.288,0,0.609,0.054,0.963,0.162s0.681,0.3,0.981,0.576
			s0.552,0.654,0.756,1.134c0.204,0.48,0.306,1.092,0.306,1.836v5.526c0,0.252,0,0.528,0,0.828s0.006,0.6,0.018,0.9
			c0.012,0.3,0.03,0.582,0.054,0.846c0.024,0.264,0.06,0.486,0.108,0.666h-1.458c-0.06-0.132-0.105-0.318-0.135-0.558
			c-0.03-0.24-0.057-0.507-0.081-0.801c-0.024-0.294-0.039-0.6-0.045-0.918c-0.006-0.318-0.009-0.621-0.009-0.909v-5.4
			c0-0.348-0.033-0.681-0.099-0.999s-0.177-0.594-0.333-0.828s-0.36-0.42-0.612-0.558c-0.252-0.138-0.558-0.207-0.918-0.207
			c-0.516,0-0.96,0.162-1.332,0.486c-0.372,0.324-0.624,0.708-0.756,1.152c-0.072,0.204-0.108,0.45-0.108,0.738v5.238h-1.566V8.757
			c0-0.444-0.015-0.873-0.045-1.287s-0.093-0.771-0.189-1.071h1.386c0.083,0.168,0.146,0.381,0.189,0.639
			c0.042,0.258,0.063,0.525,0.063,0.801H102.607z"/>
	</g>
	<g>
	</g>
	<g>
	</g>
	<g>
	</g>
	<g>
	</g>
	<g>
	</g>
	<g>
	</g>
	<g>
	</g>
	<g>
	</g>
	<g>
	</g>
	<g>
	</g>
	<g>
	</g>
	<g>
	</g>
	<g>
	</g>
	<g>
	</g>
	<g>
	</g>
</g>
</svg>
