<?xml version="1.0" encoding="utf-8"?>
<!-- Generator: Adobe Illustrator 16.0.1, SVG Export Plug-In . SVG Version: 6.00 Build 0)  -->
<!DOCTYPE svg PUBLIC "-//W3C//DTD SVG 1.1//EN" "http://www.w3.org/Graphics/SVG/1.1/DTD/svg11.dtd">
<svg version="1.1" xmlns="http://www.w3.org/2000/svg" xmlns:xlink="http://www.w3.org/1999/xlink" x="0px" y="0px" width="130px"
	 height="20px" viewBox="0 0 130 20" enable-background="new 0 0 130 20" xml:space="preserve">
<g id="Help">
</g>
<g id="Nav">
	<g>
		<path fill="#FFFFFF" d="M5.184,13.815h6.75v1.296H3.149v-0.918l4.122-5.112L3.384,4.023V2.979h7.992v1.278H5.364v0.072L9,9.027
			l-3.816,4.734V13.815z"/>
		<path fill="#FFFFFF" d="M15.226,7.839c0.108-0.204,0.249-0.405,0.423-0.603c0.174-0.198,0.381-0.372,0.621-0.522
			c0.24-0.15,0.51-0.273,0.81-0.369c0.3-0.096,0.624-0.144,0.972-0.144c0.288,0,0.609,0.054,0.963,0.162s0.681,0.3,0.981,0.576
			s0.552,0.654,0.756,1.134c0.204,0.48,0.306,1.092,0.306,1.836v5.526c0,0.252,0,0.528,0,0.828s0.006,0.6,0.018,0.9
			c0.012,0.3,0.03,0.582,0.054,0.846c0.024,0.264,0.06,0.486,0.108,0.666H19.78c-0.06-0.132-0.105-0.318-0.135-0.558
			c-0.03-0.24-0.057-0.507-0.081-0.801c-0.024-0.294-0.039-0.6-0.045-0.918c-0.006-0.318-0.009-0.621-0.009-0.909v-5.4
			c0-0.348-0.033-0.681-0.099-0.999s-0.177-0.594-0.333-0.828s-0.36-0.42-0.612-0.558c-0.252-0.138-0.558-0.207-0.918-0.207
			c-0.516,0-0.96,0.162-1.332,0.486c-0.372,0.324-0.624,0.708-0.756,1.152c-0.072,0.204-0.108,0.45-0.108,0.738v5.238h-1.566V8.757
			c0-0.444-0.015-0.873-0.045-1.287s-0.093-0.771-0.189-1.071h1.386c0.083,0.168,0.146,0.381,0.189,0.639
			c0.042,0.258,0.063,0.525,0.063,0.801H15.226z"/>
		<path fill="#FFFFFF" d="M29.573,15.111l-0.09-1.404h-0.054c-0.564,1.032-1.416,1.548-2.556,1.548
			c-0.816,0-1.404-0.306-1.764-0.918h-0.054l0.09,4.32h-1.458V6.399h1.566v4.95c0,1.764,0.642,2.646,1.926,2.646
			c0.576,0,1.074-0.216,1.494-0.648c0.432-0.432,0.648-0.894,0.648-1.386V6.399h1.566v6.336c0,0.384,0.006,0.774,0.018,1.17
			c0.012,0.396,0.03,0.798,0.054,1.206H29.573z"/>
		<path fill="#FFFFFF" d="M35.135,10.395c-0.576-0.132-1.002-0.363-1.278-0.693c-0.276-0.33-0.414-0.711-0.414-1.143
			c0-0.288,0.069-0.573,0.207-0.855c0.138-0.282,0.348-0.534,0.63-0.756c0.282-0.222,0.636-0.402,1.062-0.54
			c0.426-0.138,0.921-0.207,1.485-0.207c1.104,0,1.968,0.222,2.592,0.666l-0.342,1.044c-0.168-0.12-0.456-0.243-0.864-0.369
			c-0.408-0.126-0.828-0.189-1.26-0.189c-0.576,0-1.044,0.12-1.404,0.36c-0.36,0.24-0.54,0.558-0.54,0.954
			c0,0.216,0.06,0.402,0.18,0.558c0.12,0.156,0.288,0.286,0.504,0.387c0.216,0.102,0.468,0.177,0.756,0.225s0.6,0.072,0.936,0.072
			h0.99v1.134h-1.026c-0.768,0-1.407,0.117-1.917,0.351c-0.51,0.234-0.765,0.609-0.765,1.125c0,0.252,0.063,0.48,0.189,0.684
			c0.126,0.205,0.291,0.372,0.495,0.504c0.204,0.132,0.444,0.234,0.72,0.306c0.276,0.072,0.564,0.108,0.864,0.108
			c0.228,0,0.465-0.021,0.711-0.063c0.246-0.042,0.48-0.093,0.702-0.153c0.222-0.06,0.426-0.132,0.612-0.216
			s0.345-0.162,0.477-0.234l0.27,1.062c-0.324,0.229-0.771,0.417-1.341,0.567c-0.57,0.15-1.155,0.225-1.755,0.225
			c-0.432,0-0.861-0.045-1.287-0.135c-0.426-0.09-0.81-0.24-1.152-0.45c-0.342-0.209-0.618-0.483-0.828-0.819
			s-0.315-0.75-0.315-1.242c0-0.54,0.192-1.014,0.576-1.422c0.384-0.408,0.894-0.666,1.53-0.774V10.395z"/>
		<path fill="#FFFFFF" d="M43.037,13.023c0,0.384,0.054,0.663,0.162,0.837s0.324,0.249,0.648,0.225l-0.09,1.134
			c-0.204,0.06-0.432,0.09-0.684,0.09c-0.228,0-0.441-0.03-0.639-0.09c-0.198-0.06-0.369-0.171-0.513-0.333
			s-0.255-0.381-0.333-0.657c-0.078-0.276-0.117-0.63-0.117-1.062V6.399h1.566V13.023z M44.135,2.745l-1.494,2.574h-1.044
			l0.954-2.574H44.135z"/>
		<path fill="#FFFFFF" d="M53.119,6.399c-0.024,0.228-0.048,0.573-0.072,1.035s-0.048,0.981-0.072,1.557
			c-0.024,0.576-0.045,1.182-0.063,1.818c-0.018,0.636-0.027,1.242-0.027,1.818c0,0.528,0.065,0.906,0.198,1.134
			c0.132,0.228,0.348,0.348,0.648,0.36l-0.126,1.116c-0.06,0.024-0.138,0.042-0.234,0.054c-0.096,0.012-0.186,0.018-0.27,0.018
			c-0.384,0-0.714-0.138-0.99-0.414c-0.276-0.276-0.438-0.75-0.486-1.422h-0.054c-0.276,0.528-0.657,0.966-1.143,1.314
			c-0.486,0.348-1.071,0.522-1.755,0.522c-0.504,0-0.972-0.105-1.404-0.315c-0.432-0.209-0.801-0.504-1.107-0.882
			s-0.546-0.837-0.72-1.377s-0.261-1.14-0.261-1.8c0-0.708,0.105-1.353,0.315-1.935s0.492-1.08,0.846-1.494
			c0.354-0.414,0.762-0.735,1.224-0.963s0.939-0.342,1.431-0.342c0.612,0,1.143,0.153,1.593,0.459
			c0.45,0.306,0.789,0.735,1.017,1.287h0.072c0.024-0.348,0.048-0.639,0.072-0.873s0.054-0.459,0.09-0.675H53.119z M46.765,10.899
			c0,0.408,0.051,0.804,0.153,1.188c0.102,0.384,0.249,0.723,0.441,1.017s0.429,0.528,0.711,0.702
			c0.282,0.174,0.609,0.261,0.981,0.261c0.264,0,0.516-0.06,0.756-0.18c0.24-0.12,0.459-0.285,0.657-0.495
			c0.198-0.209,0.369-0.45,0.513-0.72s0.252-0.549,0.324-0.837c0.048-0.204,0.078-0.399,0.09-0.585
			c0.012-0.186,0.018-0.399,0.018-0.639c0-0.168-0.003-0.327-0.009-0.477c-0.006-0.15-0.027-0.303-0.063-0.459
			c-0.06-0.288-0.153-0.57-0.279-0.846c-0.126-0.276-0.282-0.516-0.468-0.72s-0.399-0.369-0.639-0.495
			c-0.24-0.126-0.498-0.189-0.774-0.189c-0.36,0-0.688,0.087-0.981,0.261c-0.294,0.174-0.549,0.414-0.765,0.72
			c-0.216,0.306-0.381,0.672-0.495,1.098c-0.114,0.426-0.171,0.885-0.171,1.377V10.899z"/>
		<path fill="#FFFFFF" d="M67.213,7.623v4.896c0,0.72,0.024,1.275,0.072,1.665c0.048,0.39,0.102,0.699,0.162,0.927h-1.512
			c-0.061-0.132-0.117-0.396-0.171-0.792c-0.054-0.396-0.081-0.942-0.081-1.638V7.623h-2.772c-0.024,0.576-0.069,1.224-0.135,1.944
			c-0.066,0.72-0.153,1.431-0.261,2.133c-0.108,0.702-0.231,1.356-0.369,1.962c-0.138,0.606-0.285,1.089-0.441,1.449h-1.458
			c0.156-0.432,0.303-0.954,0.441-1.566c0.138-0.612,0.261-1.26,0.369-1.944c0.108-0.684,0.195-1.374,0.261-2.07
			c0.066-0.696,0.111-1.332,0.135-1.908c-0.348,0-0.672,0.012-0.972,0.036c-0.3,0.024-0.558,0.066-0.774,0.126l-0.216-0.918
			c0.204-0.132,0.492-0.243,0.864-0.333c0.372-0.09,0.9-0.135,1.584-0.135h6.624l-0.18,1.224H67.213z"/>
		<path fill="#FFFFFF" d="M75.889,11.997c0,0.576,0.138,1.056,0.414,1.44c0.276,0.384,0.618,0.576,1.026,0.576
			c0.216,0,0.429-0.072,0.639-0.216s0.399-0.363,0.567-0.657c0.167-0.294,0.303-0.663,0.405-1.107
			c0.102-0.444,0.153-0.96,0.153-1.548c0-0.432-0.036-0.852-0.108-1.26c-0.072-0.408-0.171-0.792-0.297-1.152
			s-0.273-0.69-0.441-0.99c-0.168-0.3-0.348-0.552-0.54-0.756V6.291h1.458c0.384,0.324,0.723,0.858,1.017,1.602
			c0.294,0.744,0.441,1.62,0.441,2.628c0,0.816-0.093,1.524-0.279,2.124s-0.429,1.098-0.729,1.494s-0.642,0.69-1.026,0.882
			c-0.384,0.192-0.774,0.288-1.17,0.288c-0.528,0-0.984-0.138-1.368-0.414c-0.384-0.276-0.666-0.654-0.846-1.134h-0.072
			c-0.204,0.48-0.498,0.858-0.882,1.134c-0.384,0.276-0.84,0.414-1.368,0.414c-0.372,0-0.744-0.087-1.116-0.261
			c-0.372-0.174-0.705-0.447-0.999-0.819c-0.294-0.372-0.534-0.852-0.72-1.44s-0.279-1.296-0.279-2.124
			c0-0.492,0.042-0.96,0.126-1.404c0.084-0.444,0.195-0.855,0.333-1.233c0.138-0.378,0.297-0.714,0.477-1.008
			c0.18-0.294,0.366-0.537,0.558-0.729h1.422v0.036c-0.384,0.444-0.711,1.038-0.981,1.782s-0.405,1.584-0.405,2.52
			c0,0.612,0.057,1.134,0.171,1.566c0.114,0.432,0.258,0.783,0.432,1.053s0.369,0.465,0.585,0.585c0.216,0.12,0.426,0.18,0.63,0.18
			c0.384,0,0.708-0.192,0.972-0.576c0.264-0.384,0.396-0.858,0.396-1.422l-0.036-3.438h1.476L75.889,11.997z M77.022,2.763
			l-1.494,2.574h-1.044l0.954-2.574H77.022z"/>
		<path fill="#FFFFFF" d="M86.002,10.107c-0.096-0.3-0.187-0.603-0.27-0.909c-0.084-0.306-0.174-0.633-0.27-0.981h-0.09
			c-0.061,0.288-0.142,0.591-0.243,0.909c-0.102,0.318-0.201,0.627-0.297,0.927l-1.728,5.058h-1.638l3.06-8.064
			c0.072-0.192,0.108-0.33,0.108-0.414c0-0.06-0.006-0.126-0.018-0.198c-0.012-0.072-0.042-0.162-0.09-0.27
			c-0.132-0.384-0.273-0.744-0.423-1.08c-0.15-0.336-0.315-0.627-0.495-0.873s-0.375-0.441-0.585-0.585
			c-0.21-0.144-0.447-0.216-0.711-0.216c-0.048,0-0.093,0-0.135,0s-0.093,0.006-0.153,0.018l0.144-1.206
			c0.072-0.024,0.162-0.042,0.27-0.054c0.108-0.012,0.209-0.018,0.306-0.018c0.408,0,0.771,0.099,1.089,0.297
			c0.318,0.198,0.609,0.477,0.873,0.837c0.264,0.36,0.507,0.792,0.729,1.296c0.222,0.504,0.447,1.062,0.675,1.674l3.258,8.856
			h-1.656L86.002,10.107z"/>
		<path fill="#FFFFFF" d="M92.545,7.839c0.108-0.204,0.249-0.405,0.423-0.603c0.174-0.198,0.381-0.372,0.621-0.522
			c0.24-0.15,0.51-0.273,0.81-0.369c0.3-0.096,0.624-0.144,0.972-0.144c0.288,0,0.609,0.054,0.963,0.162s0.681,0.3,0.981,0.576
			s0.552,0.654,0.756,1.134c0.204,0.48,0.306,1.092,0.306,1.836v5.526c0,0.252,0,0.528,0,0.828s0.006,0.6,0.018,0.9
			c0.012,0.3,0.03,0.582,0.054,0.846c0.024,0.264,0.06,0.486,0.108,0.666H97.1c-0.06-0.132-0.105-0.318-0.135-0.558
			c-0.03-0.24-0.057-0.507-0.081-0.801c-0.024-0.294-0.039-0.6-0.045-0.918c-0.006-0.318-0.009-0.621-0.009-0.909v-5.4
			c0-0.348-0.033-0.681-0.099-0.999s-0.177-0.594-0.333-0.828s-0.36-0.42-0.612-0.558c-0.252-0.138-0.558-0.207-0.918-0.207
			c-0.516,0-0.96,0.162-1.332,0.486c-0.372,0.324-0.624,0.708-0.756,1.152c-0.072,0.204-0.108,0.45-0.108,0.738v5.238h-1.566V8.757
			c0-0.444-0.015-0.873-0.045-1.287s-0.093-0.771-0.189-1.071h1.386c0.083,0.168,0.146,0.381,0.189,0.639
			c0.042,0.258,0.063,0.525,0.063,0.801H92.545z"/>
		<path fill="#FFFFFF" d="M106.954,7.389c0.504,0.348,0.897,0.822,1.179,1.422c0.282,0.6,0.423,1.23,0.423,1.89
			c0,0.804-0.123,1.494-0.369,2.07c-0.246,0.576-0.564,1.053-0.954,1.431c-0.39,0.378-0.828,0.657-1.314,0.837
			c-0.486,0.18-0.969,0.27-1.449,0.27c-0.576,0-1.11-0.103-1.602-0.306c-0.492-0.204-0.921-0.501-1.287-0.891
			c-0.366-0.39-0.654-0.861-0.864-1.413c-0.21-0.552-0.315-1.17-0.315-1.854c0-0.732,0.108-1.386,0.324-1.962
			c0.216-0.576,0.516-1.062,0.9-1.458c0.384-0.396,0.846-0.699,1.386-0.909c0.54-0.209,1.128-0.315,1.764-0.315h1.638h0.918
			c0.144,0,0.309,0,0.495,0s0.369,0,0.549,0c0.18,0,0.348,0,0.504,0c0.156,0,0.276,0,0.36,0l-0.054,1.188
			c-0.204,0-0.471-0.006-0.801-0.018c-0.33-0.012-0.807-0.03-1.431-0.054V7.389z M104.506,14.139c0.348,0,0.672-0.087,0.972-0.261
			s0.564-0.414,0.792-0.72c0.228-0.306,0.405-0.668,0.531-1.089c0.126-0.42,0.189-0.876,0.189-1.368
			c0-0.372-0.048-0.753-0.144-1.143c-0.096-0.39-0.243-0.747-0.441-1.071c-0.198-0.324-0.453-0.591-0.765-0.801
			s-0.684-0.315-1.116-0.315c-0.444,0-0.825,0.099-1.143,0.297c-0.318,0.198-0.582,0.459-0.792,0.783
			c-0.21,0.324-0.363,0.69-0.459,1.098c-0.096,0.408-0.144,0.816-0.144,1.224c0,0.48,0.063,0.924,0.189,1.332s0.3,0.762,0.522,1.062
			c0.222,0.3,0.486,0.537,0.792,0.711S104.134,14.139,104.506,14.139z"/>
		<path fill="#FFFFFF" d="M112.518,7.839c0.108-0.204,0.249-0.405,0.423-0.603c0.174-0.198,0.381-0.372,0.621-0.522
			c0.24-0.15,0.51-0.273,0.81-0.369c0.3-0.096,0.624-0.144,0.972-0.144c0.288,0,0.609,0.054,0.963,0.162s0.681,0.3,0.981,0.576
			s0.552,0.654,0.756,1.134c0.204,0.48,0.306,1.092,0.306,1.836v5.526c0,0.252,0,0.528,0,0.828s0.006,0.6,0.018,0.9
			c0.012,0.3,0.03,0.582,0.054,0.846c0.024,0.264,0.06,0.486,0.108,0.666h-1.458c-0.06-0.132-0.105-0.318-0.135-0.558
			c-0.03-0.24-0.057-0.507-0.081-0.801c-0.024-0.294-0.039-0.6-0.045-0.918c-0.006-0.318-0.009-0.621-0.009-0.909v-5.4
			c0-0.348-0.033-0.681-0.099-0.999s-0.177-0.594-0.333-0.828s-0.36-0.42-0.612-0.558c-0.252-0.138-0.558-0.207-0.918-0.207
			c-0.516,0-0.96,0.162-1.332,0.486c-0.372,0.324-0.624,0.708-0.756,1.152c-0.072,0.204-0.108,0.45-0.108,0.738v5.238h-1.566V8.757
			c0-0.444-0.015-0.873-0.045-1.287s-0.093-0.771-0.189-1.071h1.386c0.083,0.168,0.146,0.381,0.189,0.639
			c0.042,0.258,0.063,0.525,0.063,0.801H112.518z"/>
		<path fill="#FFFFFF" d="M126.45,7.731c-0.204-0.096-0.432-0.174-0.684-0.234c-0.252-0.06-0.546-0.09-0.882-0.09
			c-0.456,0-0.867,0.09-1.233,0.27c-0.366,0.18-0.681,0.423-0.945,0.729c-0.264,0.306-0.468,0.663-0.612,1.071
			c-0.144,0.408-0.216,0.834-0.216,1.278c0,0.864,0.204,1.539,0.612,2.025c0.408,0.486,1.002,0.849,1.782,1.089
			c0.42,0.12,0.798,0.21,1.134,0.27c0.336,0.061,0.708,0.12,1.116,0.18c0.06,0.024,0.105,0.051,0.135,0.081
			c0.03,0.03,0.045,0.093,0.045,0.189c0,0.252-0.033,0.528-0.099,0.828c-0.066,0.3-0.147,0.594-0.243,0.882
			c-0.096,0.288-0.204,0.558-0.324,0.81s-0.234,0.45-0.342,0.594l-1.08-0.324c0.06-0.108,0.123-0.249,0.189-0.423
			c0.066-0.174,0.129-0.357,0.189-0.549s0.108-0.378,0.144-0.558c0.036-0.18,0.06-0.324,0.072-0.432
			c-0.3-0.061-0.594-0.12-0.882-0.18c-0.288-0.06-0.564-0.126-0.828-0.198c-0.444-0.132-0.861-0.312-1.251-0.54
			c-0.39-0.228-0.729-0.51-1.017-0.846s-0.516-0.732-0.684-1.188c-0.168-0.456-0.252-0.978-0.252-1.566s0.102-1.161,0.306-1.719
			c0.204-0.558,0.498-1.059,0.882-1.503c0.384-0.444,0.861-0.801,1.431-1.071c0.57-0.27,1.227-0.405,1.971-0.405
			c0.384,0,0.744,0.033,1.08,0.099s0.612,0.165,0.828,0.297L126.45,7.731z"/>
	</g>
	<g>
	</g>
	<g>
	</g>
	<g>
	</g>
	<g>
	</g>
	<g>
	</g>
	<g>
	</g>
	<g>
	</g>
	<g>
	</g>
	<g>
	</g>
	<g>
	</g>
	<g>
	</g>
	<g>
	</g>
	<g>
	</g>
	<g>
	</g>
	<g>
	</g>
</g>
</svg>
