<?xml version="1.0" encoding="utf-8"?>
<!-- Generator: Adobe Illustrator 16.0.1, SVG Export Plug-In . SVG Version: 6.00 Build 0)  -->
<!DOCTYPE svg PUBLIC "-//W3C//DTD SVG 1.1//EN" "http://www.w3.org/Graphics/SVG/1.1/DTD/svg11.dtd">
<svg version="1.1" xmlns="http://www.w3.org/2000/svg" xmlns:xlink="http://www.w3.org/1999/xlink" x="0px" y="0px" width="130px"
	 height="20px" viewBox="0 0 130 20" enable-background="new 0 0 130 20" xml:space="preserve">
<g id="Help">
</g>
<g id="Nav">
	<g>
		<path fill="#FFFFFF" d="M48.575,15.111h-1.656l-1.26-3.798h-4.194l-1.224,3.798h-1.602l4.032-12.132h1.872L48.575,15.111z
			 M45.353,10.089l-1.17-3.456c-0.132-0.42-0.336-1.17-0.612-2.25h-0.036c-0.12,0.492-0.318,1.236-0.594,2.232l-1.17,3.474H45.353z
			 M46.361,0.225l-2.322,2.106h-1.26l1.692-2.106H46.361z"/>
		<path fill="#FFFFFF" d="M54.664,7.731c-0.156-0.024-0.336-0.036-0.54-0.036c-0.708,0-1.254,0.294-1.638,0.882
			c-0.349,0.516-0.522,1.14-0.522,1.872v4.662h-1.548v-6.03c0-0.936-0.024-1.83-0.072-2.682h1.386l0.072,1.692h0.054
			c0.192-0.576,0.507-1.032,0.945-1.368c0.438-0.335,0.915-0.504,1.431-0.504c0.168,0,0.312,0.012,0.432,0.036V7.731z"/>
		<path fill="#FFFFFF" d="M63.702,15.111h-1.386l-0.09-1.386h-0.054c-0.6,1.044-1.536,1.566-2.808,1.566
			c-0.816,0-1.476-0.252-1.98-0.756c-0.636-0.648-0.954-1.649-0.954-3.006v-5.13h1.566v4.842c0,1.848,0.63,2.772,1.89,2.772
			c0.479,0,0.918-0.156,1.314-0.468c0.335-0.264,0.576-0.588,0.72-0.972c0.096-0.24,0.144-0.51,0.144-0.81V6.399h1.566v6.336
			C63.63,13.515,63.654,14.307,63.702,15.111z"/>
		<path fill="#FFFFFF" d="M73.646,15.111h-1.566v-5.058c0-1.692-0.654-2.538-1.962-2.538c-0.48,0-0.909,0.147-1.287,0.441
			s-0.645,0.669-0.801,1.125c-0.061,0.192-0.09,0.438-0.09,0.738v5.292h-1.566V2.349h1.566v5.382h0.036
			c0.276-0.468,0.657-0.837,1.143-1.107s1.005-0.405,1.557-0.405c0.756,0,1.397,0.24,1.926,0.72
			c0.696,0.648,1.044,1.632,1.044,2.952V15.111z"/>
		<path fill="#FFFFFF" d="M82.488,15.111h-1.422l-0.144-1.08h-0.036c-0.6,0.84-1.47,1.26-2.61,1.26
			c-0.816,0-1.464-0.252-1.944-0.756c-0.444-0.468-0.666-1.044-0.666-1.728c0-1.056,0.444-1.863,1.332-2.421
			s2.154-0.831,3.798-0.819v-0.18c0-1.344-0.648-2.016-1.944-2.016c-0.84,0-1.578,0.21-2.214,0.63l-0.36-1.044
			c0.768-0.492,1.71-0.738,2.826-0.738c2.16,0,3.24,1.176,3.24,3.528v3.294C82.344,13.893,82.392,14.583,82.488,15.111z
			 M80.814,12.195v-1.53c-2.388-0.048-3.582,0.606-3.582,1.962c0,0.492,0.138,0.867,0.414,1.125
			c0.276,0.258,0.624,0.387,1.044,0.387c0.516,0,0.966-0.15,1.35-0.45c0.336-0.264,0.57-0.594,0.702-0.99
			C80.79,12.543,80.814,12.375,80.814,12.195z M81.66,2.763l-2.178,2.574h-1.098l1.566-2.574H81.66z"/>
		<path fill="#FFFFFF" d="M91.141,15.111h-6.93v-0.918l3.852-5.13c0.216-0.276,0.588-0.732,1.116-1.368V7.659h-4.626v-1.26h6.516
			v0.99l-3.816,5.076c-0.349,0.468-0.714,0.918-1.098,1.35v0.036h4.986V15.111z"/>
	</g>
	<g>
	</g>
	<g>
	</g>
	<g>
	</g>
	<g>
	</g>
	<g>
	</g>
	<g>
	</g>
	<g>
	</g>
	<g>
	</g>
	<g>
	</g>
	<g>
	</g>
	<g>
	</g>
	<g>
	</g>
	<g>
	</g>
	<g>
	</g>
	<g>
	</g>
</g>
</svg>
