<?xml version="1.0" encoding="utf-8"?>
<svg version="1.1" xmlns="http://www.w3.org/2000/svg" xmlns:xlink="http://www.w3.org/1999/xlink" width="130px" height="20px">
	<path fill="#FFFFFF" d="M57.651,13.149H45.375v-1.152h12.276V13.149z M52.27,4.383c0,0.504,0.159,0.99,0.477,1.458
		c0.318,0.468,0.711,0.9,1.179,1.296c0.468,0.396,0.975,0.741,1.521,1.035s1.047,0.513,1.503,0.657l-0.846,1.044
		c-0.396-0.144-0.813-0.336-1.251-0.576c-0.438-0.24-0.867-0.51-1.287-0.81c-0.42-0.3-0.81-0.624-1.17-0.972
		c-0.36-0.348-0.648-0.708-0.864-1.08c-0.216,0.372-0.489,0.732-0.819,1.08c-0.33,0.348-0.693,0.669-1.089,0.963
		s-0.816,0.561-1.26,0.801c-0.444,0.24-0.894,0.444-1.35,0.612l-0.882-1.062c0.468-0.156,0.972-0.38,1.512-0.675
		c0.54-0.294,1.038-0.636,1.494-1.026c0.456-0.39,0.837-0.819,1.143-1.287c0.306-0.468,0.459-0.954,0.459-1.458V2.781h1.53V4.383z"
		/>
	<path fill="#FFFFFF" d="M66.025,10.503v1.872h5.4v1.17H59.149v-1.17h5.418v-1.872H66.025z M60.841,9.909V2.853h8.91v1.152h-7.488
		v1.8h7.488v1.134h-7.488v1.818h7.668v1.152H60.841z"/>
	<path fill="#FFFFFF" d="M79.129,7.497c0,1.512-0.294,2.658-0.882,3.438c-0.588,0.78-1.398,1.17-2.43,1.17
		c-1.02,0-1.824-0.39-2.412-1.17c-0.588-0.78-0.882-1.926-0.882-3.438c0-1.548,0.294-2.7,0.882-3.456
		c0.588-0.756,1.392-1.134,2.412-1.134c1.032,0,1.842,0.381,2.43,1.143C78.834,4.812,79.129,5.961,79.129,7.497z M77.689,7.479
		c0-1.068-0.15-1.905-0.45-2.511s-0.768-0.909-1.404-0.909c-0.636,0-1.107,0.3-1.413,0.9s-0.459,1.44-0.459,2.52
		c0,1.032,0.153,1.866,0.459,2.502s0.777,0.954,1.413,0.954c0.312,0,0.585-0.084,0.819-0.252c0.234-0.167,0.426-0.402,0.576-0.702
		c0.15-0.3,0.264-0.663,0.342-1.089C77.65,8.466,77.689,7.995,77.689,7.479z M82.945,15.111h-1.404V7.803h-1.926V6.615h1.926V2.169
		h1.404V15.111z"/>
</svg>
