<?xml version="1.0" encoding="utf-8"?>
<!-- Generator: Adobe Illustrator 16.0.1, SVG Export Plug-In . SVG Version: 6.00 Build 0)  -->
<!DOCTYPE svg PUBLIC "-//W3C//DTD SVG 1.1//EN" "http://www.w3.org/Graphics/SVG/1.1/DTD/svg11.dtd">
<svg version="1.1" xmlns="http://www.w3.org/2000/svg" xmlns:xlink="http://www.w3.org/1999/xlink" x="0px" y="0px" width="130px"
	 height="20px" viewBox="0 0 130 20" enable-background="new 0 0 130 20" xml:space="preserve">
<g id="Help">
</g>
<g id="Nav">
	<g>
		<path fill="#FFFFFF" d="M51.524,13.005H39.248v-1.152h4.392V7.767h1.458v4.086h6.426V13.005z M47.852,10.269
			c0.18-0.924,0.324-1.905,0.432-2.943c0.108-1.038,0.168-2.043,0.18-3.015h-7.506v-1.17h9.018c-0.012,0.708-0.039,1.38-0.081,2.016
			c-0.042,0.636-0.093,1.242-0.153,1.818c-0.06,0.576-0.129,1.137-0.207,1.683c-0.078,0.546-0.165,1.083-0.261,1.611H47.852z"/>
		<path fill="#FFFFFF" d="M57.736,2.853c-0.012,0.876-0.126,1.665-0.342,2.367c-0.216,0.702-0.531,1.332-0.945,1.89
			s-0.916,1.047-1.503,1.467c-0.588,0.42-1.254,0.786-1.998,1.098l-0.846-0.972c0.696-0.3,1.293-0.615,1.791-0.945
			s0.909-0.684,1.233-1.062c0.324-0.378,0.576-0.789,0.756-1.233c0.18-0.444,0.306-0.936,0.378-1.476h-3.492V2.853H57.736z
			 M63.082,15.165H61.66v-3.636h-7.47v-1.116h8.892V15.165z M63.082,9.693h-1.404V6.345h-1.602v3.348h-1.368V2.241h1.368v2.88h1.602
			V2.169h1.404V9.693z"/>
		<path fill="#FFFFFF" d="M72.96,11.997c-0.276-0.156-0.573-0.342-0.891-0.558c-0.318-0.216-0.63-0.453-0.936-0.711
			c-0.306-0.258-0.6-0.546-0.882-0.864c-0.282-0.318-0.519-0.669-0.711-1.053c-0.18,0.396-0.396,0.756-0.648,1.08
			c-0.252,0.324-0.528,0.627-0.828,0.909c-0.3,0.282-0.618,0.546-0.954,0.792c-0.336,0.246-0.684,0.477-1.044,0.693l-0.9-0.972
			c0.48-0.276,0.942-0.585,1.386-0.927c0.444-0.342,0.831-0.72,1.161-1.134s0.594-0.861,0.792-1.341
			c0.198-0.479,0.297-0.996,0.297-1.548V4.275H65.94V3.123h7.182v1.152H70.26v2.142c0,0.528,0.096,1.023,0.288,1.485
			s0.447,0.882,0.765,1.26c0.318,0.378,0.681,0.714,1.089,1.008c0.408,0.294,0.828,0.543,1.26,0.747L72.96,11.997z M76.092,15.111
			h-1.44V2.169h1.44V15.111z"/>
		<path fill="#FFFFFF" d="M78.4,7.929c0.792,0,1.584-0.006,2.376-0.018c0.792-0.012,1.56-0.03,2.304-0.054s1.455-0.057,2.133-0.099
			c0.678-0.042,1.305-0.093,1.881-0.153v1.098c-0.576,0.084-1.215,0.15-1.917,0.198s-1.437,0.084-2.205,0.108v1.962h-1.404V9.045
			c-0.54,0.012-1.074,0.018-1.602,0.018c-0.528,0-1.05,0-1.566,0V7.929z M82.684,2.367c0.504,0,0.963,0.051,1.377,0.153
			c0.414,0.102,0.774,0.252,1.08,0.45c0.306,0.198,0.543,0.441,0.711,0.729s0.252,0.612,0.252,0.972c0,0.372-0.084,0.702-0.252,0.99
			C85.684,5.949,85.45,6.192,85.15,6.39c-0.3,0.198-0.66,0.348-1.08,0.45c-0.42,0.102-0.882,0.153-1.386,0.153
			c-0.492,0-0.945-0.051-1.359-0.153s-0.774-0.252-1.08-0.45c-0.306-0.198-0.546-0.441-0.72-0.729
			c-0.174-0.288-0.261-0.618-0.261-0.99c0-0.36,0.087-0.684,0.261-0.972c0.174-0.288,0.414-0.531,0.72-0.729
			c0.306-0.198,0.666-0.348,1.08-0.45S82.191,2.367,82.684,2.367z M89.56,14.913h-9.198v-3.258h1.44v2.106h7.758V14.913z
			 M82.684,3.429c-0.684,0-1.194,0.111-1.53,0.333c-0.336,0.222-0.504,0.525-0.504,0.909c0,0.372,0.171,0.669,0.513,0.891
			c0.342,0.222,0.855,0.333,1.539,0.333c0.672,0,1.176-0.108,1.512-0.324c0.336-0.216,0.504-0.516,0.504-0.9
			c0-0.396-0.168-0.702-0.504-0.918C83.877,3.537,83.368,3.429,82.684,3.429z M89.254,12.177h-1.422v-1.188h-2.97V9.801h2.97V2.169
			h1.422V12.177z"/>
	</g>
	<g>
	</g>
	<g>
	</g>
	<g>
	</g>
	<g>
	</g>
	<g>
	</g>
	<g>
	</g>
	<g>
	</g>
	<g>
	</g>
	<g>
	</g>
	<g>
	</g>
	<g>
	</g>
	<g>
	</g>
	<g>
	</g>
	<g>
	</g>
	<g>
	</g>
</g>
</svg>
