<?xml version="1.0" encoding="utf-8"?>
<!-- Generator: Adobe Illustrator 16.0.1, SVG Export Plug-In . SVG Version: 6.00 Build 0)  -->
<!DOCTYPE svg PUBLIC "-//W3C//DTD SVG 1.1//EN" "http://www.w3.org/Graphics/SVG/1.1/DTD/svg11.dtd">
<svg version="1.1" xmlns="http://www.w3.org/2000/svg" xmlns:xlink="http://www.w3.org/1999/xlink" x="0px" y="0px" width="130px"
	 height="20px" viewBox="0 0 130 20" enable-background="new 0 0 130 20" xml:space="preserve">
<g id="Help">
</g>
<g id="Nav">
	<g>
		<path fill="#FFFFFF" d="M40.719,5.661v-2.79h1.26v2.79h4.572V2.853h1.278v2.808h2.646v1.17h-2.646v1.404
			c0,0.828-0.081,1.587-0.243,2.277c-0.162,0.69-0.426,1.323-0.792,1.899c-0.366,0.576-0.843,1.101-1.431,1.575
			s-1.302,0.909-2.142,1.305l-0.846-1.044c0.804-0.336,1.476-0.708,2.016-1.116c0.54-0.408,0.969-0.855,1.287-1.341
			c0.317-0.486,0.542-1.017,0.675-1.593c0.132-0.576,0.198-1.206,0.198-1.89V6.831h-4.572v3.654h-1.26V6.831h-2.628v-1.17H40.719z"
			/>
		<path fill="#FFFFFF" d="M56.069,9.315c-0.18,0.384-0.387,0.771-0.621,1.161c-0.234,0.39-0.486,0.774-0.756,1.152
			s-0.555,0.741-0.855,1.089c-0.3,0.348-0.6,0.666-0.9,0.954l-1.008-0.72c0.288-0.252,0.579-0.546,0.873-0.882
			s0.573-0.684,0.837-1.044s0.507-0.726,0.729-1.098c0.222-0.372,0.405-0.732,0.549-1.08L56.069,9.315z M64.421,7.029h-5.292v6.228
			c0,0.72-0.147,1.23-0.441,1.53c-0.294,0.3-0.783,0.45-1.467,0.45c-0.24,0-0.513-0.009-0.819-0.027s-0.621-0.045-0.945-0.081
			v-1.224c0.252,0.048,0.504,0.078,0.756,0.09c0.252,0.012,0.48,0.018,0.684,0.018c0.372,0,0.618-0.069,0.738-0.207
			c0.12-0.138,0.18-0.369,0.18-0.693V7.029h-5.256V5.841h5.256v-2.97h1.314v2.97h5.292V7.029z M61.919,8.721
			c1.26,1.38,2.28,2.766,3.06,4.158l-1.134,0.648c-0.348-0.72-0.777-1.425-1.287-2.115c-0.51-0.689-1.071-1.377-1.683-2.061
			L61.919,8.721z M64.691,3.717c0,0.216-0.042,0.42-0.126,0.612c-0.084,0.192-0.198,0.36-0.342,0.504s-0.312,0.258-0.504,0.342
			s-0.396,0.126-0.612,0.126c-0.444,0-0.819-0.156-1.125-0.468c-0.306-0.312-0.459-0.684-0.459-1.116
			c0-0.444,0.153-0.819,0.459-1.125c0.306-0.306,0.681-0.459,1.125-0.459c0.432,0,0.804,0.153,1.116,0.459
			S64.691,3.273,64.691,3.717z M61.973,3.717c0,0.3,0.111,0.558,0.333,0.774c0.222,0.216,0.489,0.324,0.801,0.324
			c0.3,0,0.558-0.108,0.774-0.324c0.216-0.216,0.324-0.474,0.324-0.774c0-0.312-0.108-0.579-0.324-0.801s-0.474-0.333-0.774-0.333
			c-0.312,0-0.579,0.111-0.801,0.333S61.973,3.405,61.973,3.717z"/>
		<path fill="#FFFFFF" d="M78.042,8.415v1.332H66.324V8.415H78.042z"/>
		<path fill="#FFFFFF" d="M84.013,7.641c0.57,0.288,1.143,0.591,1.719,0.909c0.576,0.318,1.14,0.642,1.692,0.972
			c0.552,0.33,1.056,0.645,1.512,0.945l-0.828,1.08c-0.384-0.288-0.81-0.579-1.278-0.873c-0.468-0.294-0.954-0.585-1.458-0.873
			s-1.011-0.564-1.521-0.828c-0.51-0.264-0.999-0.51-1.467-0.738v7.002H81.07V2.853h1.314v3.996
			C82.899,7.089,83.442,7.353,84.013,7.641z"/>
	</g>
	<g>
	</g>
	<g>
	</g>
	<g>
	</g>
	<g>
	</g>
	<g>
	</g>
	<g>
	</g>
	<g>
	</g>
	<g>
	</g>
	<g>
	</g>
	<g>
	</g>
	<g>
	</g>
	<g>
	</g>
	<g>
	</g>
	<g>
	</g>
	<g>
	</g>
</g>
</svg>
