<?xml version="1.0" encoding="utf-8"?>
<!-- Generator: Adobe Illustrator 16.0.1, SVG Export Plug-In . SVG Version: 6.00 Build 0)  -->
<!DOCTYPE svg PUBLIC "-//W3C//DTD SVG 1.1//EN" "http://www.w3.org/Graphics/SVG/1.1/DTD/svg11.dtd">
<svg version="1.1" xmlns="http://www.w3.org/2000/svg" xmlns:xlink="http://www.w3.org/1999/xlink" x="0px" y="0px" width="130px"
	 height="20px" viewBox="0 0 130 20" enable-background="new 0 0 130 20" xml:space="preserve">
<g id="Help">
</g>
<g id="Nav">
	<g>
		<path fill="#FFFFFF" d="M54.186,9.963c0.792,0.66,1.587,1.386,2.385,2.178c0.798,0.792,1.515,1.554,2.151,2.286l-1.152,0.81
			c-0.276-0.36-0.579-0.729-0.909-1.107s-0.675-0.753-1.035-1.125c-0.36-0.372-0.727-0.735-1.098-1.089
			c-0.372-0.354-0.738-0.687-1.098-0.999c-0.78,0.9-1.626,1.716-2.538,2.448c-0.912,0.732-1.866,1.35-2.862,1.854l-0.828-1.044
			c0.972-0.456,1.893-1.023,2.763-1.701c0.87-0.678,1.656-1.41,2.358-2.196c0.702-0.786,1.305-1.596,1.809-2.43
			c0.504-0.833,0.87-1.635,1.098-2.403h-7.11v-1.17h7.866l0.918,0.522c-0.3,0.924-0.678,1.818-1.134,2.682
			C55.313,8.343,54.786,9.171,54.186,9.963z"/>
		<path fill="#FFFFFF" d="M64.383,7.641c0.57,0.288,1.143,0.591,1.719,0.909c0.576,0.318,1.14,0.642,1.692,0.972
			c0.552,0.33,1.056,0.645,1.512,0.945l-0.828,1.08c-0.384-0.288-0.81-0.579-1.278-0.873c-0.468-0.294-0.954-0.585-1.458-0.873
			s-1.011-0.564-1.521-0.828c-0.51-0.264-0.999-0.51-1.467-0.738v7.002H61.44V2.853h1.314v3.996
			C63.27,7.089,63.812,7.353,64.383,7.641z"/>
		<path fill="#FFFFFF" d="M81.462,3.951l0.99,0.684c-0.252,0.372-0.528,0.765-0.828,1.179c-0.3,0.414-0.618,0.828-0.954,1.242
			s-0.675,0.822-1.017,1.224c-0.342,0.402-0.675,0.771-0.999,1.107l-1.062-0.702c0.252-0.252,0.522-0.534,0.81-0.846
			c0.288-0.312,0.564-0.627,0.828-0.945c0.264-0.318,0.51-0.63,0.738-0.936c0.228-0.306,0.414-0.573,0.558-0.801h-9.756V3.951
			H81.462z M76.747,6.327c0,1.092-0.039,2.067-0.117,2.925s-0.249,1.638-0.513,2.34c-0.264,0.702-0.654,1.347-1.17,1.935
			c-0.516,0.588-1.212,1.158-2.088,1.71l-0.99-0.918c0.828-0.48,1.482-0.972,1.962-1.476s0.84-1.065,1.08-1.683
			c0.24-0.618,0.39-1.32,0.45-2.106c0.06-0.786,0.09-1.695,0.09-2.727H76.747z"/>
	</g>
	<g>
	</g>
	<g>
	</g>
	<g>
	</g>
	<g>
	</g>
	<g>
	</g>
	<g>
	</g>
	<g>
	</g>
	<g>
	</g>
	<g>
	</g>
	<g>
	</g>
	<g>
	</g>
	<g>
	</g>
	<g>
	</g>
	<g>
	</g>
	<g>
	</g>
</g>
</svg>
