<?xml version="1.0" encoding="utf-8"?>
<!-- Generator: Adobe Illustrator 16.0.1, SVG Export Plug-In . SVG Version: 6.00 Build 0)  -->
<!DOCTYPE svg PUBLIC "-//W3C//DTD SVG 1.1//EN" "http://www.w3.org/Graphics/SVG/1.1/DTD/svg11.dtd">
<svg version="1.1" xmlns="http://www.w3.org/2000/svg" xmlns:xlink="http://www.w3.org/1999/xlink" x="0px" y="0px" width="130px"
	 height="20px" viewBox="0 0 130 20" enable-background="new 0 0 130 20" xml:space="preserve">
<g id="Help">
</g>
<g id="Nav">
	<g>
		<path fill="#FFFFFF" d="M21.323,15.111h-1.836L15.6,9.171l-1.134,1.314v4.626h-1.548V2.979h1.548v5.85h0.054
			c0.312-0.479,0.624-0.918,0.936-1.314l3.618-4.536h1.908l-4.284,5.166L21.323,15.111z"/>
		<path fill="#FFFFFF" d="M29.616,15.111h-1.386l-0.09-1.386h-0.054c-0.6,1.044-1.536,1.566-2.808,1.566
			c-0.816,0-1.476-0.252-1.98-0.756c-0.636-0.648-0.954-1.649-0.954-3.006v-5.13h1.566v4.842c0,1.848,0.63,2.772,1.89,2.772
			c0.479,0,0.918-0.156,1.314-0.468c0.335-0.264,0.576-0.588,0.72-0.972c0.096-0.24,0.144-0.51,0.144-0.81V6.399h1.566v6.336
			C29.543,13.515,29.567,14.307,29.616,15.111z"/>
		<path fill="#FFFFFF" d="M37.193,12.681c0,0.78-0.288,1.407-0.864,1.881s-1.362,0.711-2.358,0.711
			c-0.924,0-1.722-0.192-2.394-0.576l0.378-1.188c0.648,0.408,1.332,0.612,2.052,0.612c1.116,0,1.674-0.432,1.674-1.296
			c0-0.372-0.12-0.678-0.36-0.918c-0.24-0.24-0.648-0.468-1.224-0.684c-1.524-0.576-2.286-1.397-2.286-2.466
			c0-0.72,0.273-1.323,0.819-1.809c0.546-0.486,1.263-0.729,2.151-0.729c0.828,0,1.53,0.174,2.106,0.522l-0.396,1.152
			c-0.528-0.336-1.11-0.504-1.746-0.504c-0.444,0-0.792,0.111-1.044,0.333c-0.252,0.222-0.378,0.507-0.378,0.855
			c0,0.336,0.132,0.612,0.396,0.828c0.216,0.204,0.624,0.42,1.224,0.648C36.443,10.641,37.193,11.517,37.193,12.681z"/>
		<path fill="#FFFFFF" d="M56.436,15.111h-1.53v-4.95c0-1.775-0.618-2.664-1.854-2.664c-0.564,0-1.032,0.222-1.404,0.666
			c-0.372,0.444-0.558,0.96-0.558,1.548v5.4h-1.53V9.855c0-0.708-0.153-1.278-0.459-1.71c-0.306-0.432-0.741-0.648-1.305-0.648
			c-0.588,0-1.086,0.252-1.494,0.756c-0.372,0.456-0.558,0.984-0.558,1.584v5.274h-1.53V8.757c0-0.72-0.024-1.506-0.072-2.358h1.368
			l0.072,1.386h0.054c0.612-1.044,1.506-1.566,2.682-1.566c0.576,0,1.077,0.156,1.503,0.468s0.729,0.726,0.909,1.242h0.036
			c0.264-0.456,0.594-0.828,0.99-1.116c0.528-0.396,1.146-0.594,1.854-0.594c0.732,0,1.35,0.246,1.854,0.738
			c0.648,0.648,0.972,1.644,0.972,2.988V15.111z"/>
		<path fill="#FFFFFF" d="M66.314,15.111h-1.386l-0.09-1.386h-0.054c-0.6,1.044-1.536,1.566-2.808,1.566
			c-0.816,0-1.476-0.252-1.98-0.756c-0.636-0.648-0.954-1.649-0.954-3.006v-5.13h1.566v4.842c0,1.848,0.63,2.772,1.89,2.772
			c0.479,0,0.918-0.156,1.314-0.468c0.335-0.264,0.576-0.588,0.72-0.972c0.096-0.24,0.144-0.51,0.144-0.81V6.399h1.566v6.336
			C66.242,13.515,66.266,14.307,66.314,15.111z M61.958,4.203c0,0.252-0.084,0.465-0.252,0.639c-0.168,0.174-0.378,0.261-0.63,0.261
			c-0.24,0-0.444-0.09-0.612-0.27c-0.168-0.18-0.252-0.39-0.252-0.63c0-0.252,0.087-0.465,0.261-0.639s0.387-0.261,0.639-0.261
			c0.24,0,0.441,0.087,0.603,0.261S61.958,3.951,61.958,4.203z M65.216,4.203c0,0.252-0.084,0.465-0.252,0.639
			c-0.168,0.174-0.378,0.261-0.63,0.261s-0.459-0.09-0.621-0.27c-0.162-0.18-0.243-0.39-0.243-0.63c0-0.252,0.087-0.465,0.261-0.639
			c0.174-0.174,0.381-0.261,0.621-0.261c0.252,0,0.459,0.087,0.621,0.261C65.135,3.738,65.216,3.951,65.216,4.203z"/>
		<path fill="#FFFFFF" d="M76.174,15.111h-1.386l-0.09-1.386h-0.054c-0.6,1.044-1.536,1.566-2.808,1.566
			c-0.816,0-1.476-0.252-1.98-0.756c-0.636-0.648-0.954-1.649-0.954-3.006v-5.13h1.566v4.842c0,1.848,0.63,2.772,1.89,2.772
			c0.479,0,0.918-0.156,1.314-0.468c0.335-0.264,0.576-0.588,0.72-0.972c0.096-0.24,0.144-0.51,0.144-0.81V6.399h1.566v6.336
			C76.102,13.515,76.126,14.307,76.174,15.111z M71.818,4.203c0,0.252-0.084,0.465-0.252,0.639c-0.168,0.174-0.378,0.261-0.63,0.261
			c-0.24,0-0.444-0.09-0.612-0.27c-0.168-0.18-0.252-0.39-0.252-0.63c0-0.252,0.087-0.465,0.261-0.639s0.387-0.261,0.639-0.261
			c0.24,0,0.441,0.087,0.603,0.261S71.818,3.951,71.818,4.203z M75.076,4.203c0,0.252-0.084,0.465-0.252,0.639
			c-0.168,0.174-0.378,0.261-0.63,0.261s-0.459-0.09-0.621-0.27c-0.162-0.18-0.243-0.39-0.243-0.63c0-0.252,0.087-0.465,0.261-0.639
			c0.174-0.174,0.381-0.261,0.621-0.261c0.252,0,0.459,0.087,0.621,0.261C74.995,3.738,75.076,3.951,75.076,4.203z"/>
		<path fill="#FFFFFF" d="M85.008,15.111h-1.422l-0.144-1.08h-0.036c-0.6,0.84-1.47,1.26-2.61,1.26
			c-0.816,0-1.464-0.252-1.944-0.756c-0.444-0.468-0.666-1.044-0.666-1.728c0-1.056,0.444-1.863,1.332-2.421
			s2.154-0.831,3.798-0.819v-0.18c0-1.344-0.648-2.016-1.944-2.016c-0.84,0-1.578,0.21-2.214,0.63l-0.36-1.044
			c0.768-0.492,1.71-0.738,2.826-0.738c2.16,0,3.24,1.176,3.24,3.528v3.294C84.864,13.893,84.912,14.583,85.008,15.111z
			 M83.334,12.195v-1.53c-2.388-0.048-3.582,0.606-3.582,1.962c0,0.492,0.138,0.867,0.414,1.125
			c0.276,0.258,0.624,0.387,1.044,0.387c0.516,0,0.966-0.15,1.35-0.45c0.336-0.264,0.57-0.594,0.702-0.99
			C83.31,12.543,83.334,12.375,83.334,12.195z"/>
		<path fill="#FFFFFF" d="M94.705,15.111h-1.908l-2.916-4.176l-0.792,0.9v3.276h-1.548V2.349h1.548v8.046h0.036
			c0.252-0.36,0.498-0.69,0.738-0.99l2.52-3.006h1.872l-3.294,3.6L94.705,15.111z"/>
		<path fill="#FFFFFF" d="M101.561,12.681c0,0.78-0.288,1.407-0.864,1.881s-1.362,0.711-2.358,0.711
			c-0.924,0-1.722-0.192-2.394-0.576l0.378-1.188c0.648,0.408,1.332,0.612,2.052,0.612c1.116,0,1.674-0.432,1.674-1.296
			c0-0.372-0.12-0.678-0.36-0.918c-0.24-0.24-0.648-0.468-1.224-0.684c-1.524-0.576-2.286-1.397-2.286-2.466
			c0-0.72,0.273-1.323,0.819-1.809c0.546-0.486,1.263-0.729,2.151-0.729c0.828,0,1.53,0.174,2.106,0.522l-0.396,1.152
			c-0.528-0.336-1.11-0.504-1.746-0.504c-0.444,0-0.792,0.111-1.044,0.333c-0.252,0.222-0.378,0.507-0.378,0.855
			c0,0.336,0.132,0.612,0.396,0.828c0.216,0.204,0.624,0.42,1.224,0.648C100.811,10.641,101.561,11.517,101.561,12.681z"/>
		<path fill="#FFFFFF" d="M110.735,10.251c0,0.312-0.018,0.57-0.054,0.774h-5.976c0.024,1.02,0.324,1.794,0.9,2.322
			c0.504,0.468,1.182,0.702,2.034,0.702c0.864,0,1.644-0.144,2.34-0.432l0.27,1.116c-0.78,0.348-1.728,0.522-2.844,0.522
			c-1.296,0-2.319-0.396-3.069-1.188c-0.75-0.792-1.125-1.854-1.125-3.186c0-1.356,0.363-2.475,1.089-3.357
			c0.726-0.882,1.701-1.323,2.925-1.323c1.235,0,2.166,0.474,2.79,1.422C110.495,8.355,110.735,9.231,110.735,10.251z
			 M109.223,9.891c0.012-0.66-0.126-1.218-0.414-1.674c-0.373-0.588-0.942-0.882-1.71-0.882c-0.72,0-1.296,0.288-1.728,0.864
			c-0.349,0.468-0.564,1.032-0.648,1.692H109.223z"/>
		<path fill="#FFFFFF" d="M117.295,5.409c0,0.552-0.15,1.098-0.45,1.638c-0.204,0.36-0.57,0.858-1.098,1.494
			c-0.708,0.852-1.038,1.746-0.99,2.682l0.018,0.45h-1.386l-0.054-0.45c-0.108-1.068,0.254-2.112,1.089-3.132
			c0.834-1.02,1.251-1.848,1.251-2.484c0-1.032-0.564-1.548-1.692-1.548c-0.696,0-1.284,0.18-1.764,0.54l-0.432-1.134
			c0.66-0.468,1.506-0.702,2.538-0.702c0.96,0,1.71,0.27,2.25,0.81C117.055,4.053,117.295,4.665,117.295,5.409z M115.099,14.193
			c0,0.324-0.099,0.588-0.297,0.792c-0.198,0.204-0.459,0.306-0.783,0.306c-0.3,0-0.546-0.105-0.738-0.315
			c-0.192-0.21-0.288-0.471-0.288-0.783s0.099-0.576,0.297-0.792c0.198-0.216,0.453-0.324,0.765-0.324s0.564,0.105,0.756,0.315
			C115.002,13.602,115.099,13.869,115.099,14.193z"/>
	</g>
	<g>
	</g>
	<g>
	</g>
	<g>
	</g>
	<g>
	</g>
	<g>
	</g>
	<g>
	</g>
	<g>
	</g>
	<g>
	</g>
	<g>
	</g>
	<g>
	</g>
	<g>
	</g>
	<g>
	</g>
	<g>
	</g>
	<g>
	</g>
	<g>
	</g>
</g>
</svg>
