<?xml version="1.0" encoding="utf-8"?>
<!-- Generator: Adobe Illustrator 16.0.1, SVG Export Plug-In . SVG Version: 6.00 Build 0)  -->
<!DOCTYPE svg PUBLIC "-//W3C//DTD SVG 1.1//EN" "http://www.w3.org/Graphics/SVG/1.1/DTD/svg11.dtd">
<svg version="1.1" xmlns="http://www.w3.org/2000/svg" xmlns:xlink="http://www.w3.org/1999/xlink" x="0px" y="0px" width="130px"
	 height="20px" viewBox="0 0 130 20" enable-background="new 0 0 130 20" xml:space="preserve">
<g id="Help">
</g>
<g id="Nav">
	<g>
		<path fill="#FFFFFF" d="M27.714,15.111h-1.836l-3.888-5.94l-1.134,1.314v4.626h-1.548V2.979h1.548v5.85h0.054
			c0.312-0.479,0.624-0.918,0.936-1.314l3.618-4.536h1.908l-4.284,5.166L27.714,15.111z"/>
		<path fill="#FFFFFF" d="M35.39,15.111h-1.422l-0.144-1.08h-0.036c-0.6,0.84-1.47,1.26-2.61,1.26c-0.816,0-1.464-0.252-1.944-0.756
			c-0.444-0.468-0.666-1.044-0.666-1.728c0-1.056,0.444-1.863,1.332-2.421s2.154-0.831,3.798-0.819v-0.18
			c0-1.344-0.648-2.016-1.944-2.016c-0.84,0-1.578,0.21-2.214,0.63l-0.36-1.044c0.768-0.492,1.71-0.738,2.826-0.738
			c2.16,0,3.24,1.176,3.24,3.528v3.294C35.246,13.893,35.293,14.583,35.39,15.111z M33.715,12.195v-1.53
			c-2.388-0.048-3.582,0.606-3.582,1.962c0,0.492,0.138,0.867,0.414,1.125c0.276,0.258,0.624,0.387,1.044,0.387
			c0.516,0,0.966-0.15,1.35-0.45c0.336-0.264,0.57-0.594,0.702-0.99C33.691,12.543,33.715,12.375,33.715,12.195z"/>
		<path fill="#FFFFFF" d="M42.888,12.681c0,0.78-0.288,1.407-0.864,1.881s-1.362,0.711-2.358,0.711
			c-0.924,0-1.722-0.192-2.394-0.576l0.378-1.188c0.648,0.408,1.332,0.612,2.052,0.612c1.116,0,1.674-0.432,1.674-1.296
			c0-0.372-0.12-0.678-0.36-0.918c-0.24-0.24-0.648-0.468-1.224-0.684c-1.524-0.576-2.286-1.397-2.286-2.466
			c0-0.72,0.273-1.323,0.819-1.809c0.546-0.486,1.263-0.729,2.151-0.729c0.828,0,1.53,0.174,2.106,0.522l-0.396,1.152
			c-0.528-0.336-1.11-0.504-1.746-0.504c-0.444,0-0.792,0.111-1.044,0.333c-0.252,0.222-0.378,0.507-0.378,0.855
			c0,0.336,0.132,0.612,0.396,0.828c0.216,0.204,0.624,0.42,1.224,0.648C42.138,10.641,42.888,11.517,42.888,12.681z"/>
		<path fill="#FFFFFF" d="M52.189,15.111h-1.386l-0.09-1.386h-0.054c-0.6,1.044-1.536,1.566-2.808,1.566
			c-0.816,0-1.476-0.252-1.98-0.756c-0.636-0.648-0.954-1.649-0.954-3.006v-5.13h1.566v4.842c0,1.848,0.63,2.772,1.89,2.772
			c0.479,0,0.918-0.156,1.314-0.468c0.335-0.264,0.576-0.588,0.72-0.972c0.096-0.24,0.144-0.51,0.144-0.81V6.399h1.566v6.336
			C52.117,13.515,52.141,14.307,52.189,15.111z"/>
		<path fill="#FFFFFF" d="M59.03,7.587h-2.232v4.734c0,1.116,0.39,1.674,1.17,1.674c0.348,0,0.648-0.036,0.9-0.108l0.072,1.188
			c-0.36,0.132-0.822,0.198-1.386,0.198c-0.732,0-1.299-0.219-1.701-0.657c-0.402-0.438-0.603-1.185-0.603-2.241V7.587h-1.332V6.399
			h1.332V4.797l1.548-0.468v2.07h2.232V7.587z"/>
		<path fill="#FFFFFF" d="M67.269,15.111h-1.422l-0.144-1.08h-0.036c-0.6,0.84-1.47,1.26-2.61,1.26
			c-0.816,0-1.464-0.252-1.944-0.756c-0.444-0.468-0.666-1.044-0.666-1.728c0-1.056,0.444-1.863,1.332-2.421
			s2.154-0.831,3.798-0.819v-0.18c0-1.344-0.648-2.016-1.944-2.016c-0.84,0-1.578,0.21-2.214,0.63l-0.36-1.044
			c0.768-0.492,1.71-0.738,2.826-0.738c2.16,0,3.24,1.176,3.24,3.528v3.294C67.125,13.893,67.173,14.583,67.269,15.111z
			 M65.595,12.195v-1.53c-2.388-0.048-3.582,0.606-3.582,1.962c0,0.492,0.138,0.867,0.414,1.125
			c0.276,0.258,0.624,0.387,1.044,0.387c0.516,0,0.966-0.15,1.35-0.45c0.336-0.264,0.57-0.594,0.702-0.99
			C65.571,12.543,65.595,12.375,65.595,12.195z"/>
		<path fill="#FFFFFF" d="M71.477,14.355c0,1.667-0.348,2.85-1.044,3.546c-0.624,0.648-1.5,0.978-2.628,0.99l-0.162-1.242
			c0.768-0.06,1.326-0.282,1.674-0.666c0.396-0.456,0.594-1.53,0.594-3.222V6.399h1.566V14.355z M71.693,3.789
			c0,0.3-0.096,0.543-0.288,0.729s-0.438,0.279-0.738,0.279c-0.288,0-0.525-0.096-0.711-0.288c-0.186-0.192-0.279-0.432-0.279-0.72
			c0-0.288,0.099-0.528,0.297-0.72c0.198-0.192,0.441-0.288,0.729-0.288s0.525,0.096,0.711,0.288S71.693,3.501,71.693,3.789z"/>
		<path fill="#FFFFFF" d="M80.33,15.111h-1.422l-0.144-1.08h-0.036c-0.6,0.84-1.47,1.26-2.61,1.26c-0.816,0-1.464-0.252-1.944-0.756
			c-0.444-0.468-0.666-1.044-0.666-1.728c0-1.056,0.444-1.863,1.332-2.421s2.154-0.831,3.798-0.819v-0.18
			c0-1.344-0.648-2.016-1.944-2.016c-0.84,0-1.578,0.21-2.214,0.63l-0.36-1.044c0.768-0.492,1.71-0.738,2.826-0.738
			c2.16,0,3.24,1.176,3.24,3.528v3.294C80.186,13.893,80.233,14.583,80.33,15.111z M78.655,12.195v-1.53
			c-2.388-0.048-3.582,0.606-3.582,1.962c0,0.492,0.138,0.867,0.414,1.125c0.276,0.258,0.624,0.387,1.044,0.387
			c0.516,0,0.966-0.15,1.35-0.45c0.336-0.264,0.57-0.594,0.702-0.99C78.631,12.543,78.655,12.375,78.655,12.195z"/>
		<path fill="#FFFFFF" d="M86.919,7.587h-2.232v4.734c0,1.116,0.39,1.674,1.17,1.674c0.348,0,0.648-0.036,0.9-0.108l0.072,1.188
			c-0.36,0.132-0.822,0.198-1.386,0.198c-0.732,0-1.299-0.219-1.701-0.657c-0.402-0.438-0.603-1.185-0.603-2.241V7.587h-1.332V6.399
			h1.332V4.797l1.548-0.468v2.07h2.232V7.587z"/>
		<path fill="#FFFFFF" d="M96.056,15.111H94.67l-0.09-1.386h-0.054c-0.6,1.044-1.536,1.566-2.808,1.566
			c-0.816,0-1.476-0.252-1.98-0.756c-0.636-0.648-0.954-1.649-0.954-3.006v-5.13h1.566v4.842c0,1.848,0.63,2.772,1.89,2.772
			c0.479,0,0.918-0.156,1.314-0.468c0.335-0.264,0.576-0.588,0.72-0.972c0.096-0.24,0.144-0.51,0.144-0.81V6.399h1.566v6.336
			C95.984,13.515,96.008,14.307,96.056,15.111z"/>
		<path fill="#FFFFFF" d="M106.138,6.399c-0.048,0.708-0.072,1.512-0.072,2.412v5.04c0,1.884-0.408,3.204-1.224,3.96
			c-0.744,0.684-1.782,1.026-3.114,1.026c-1.188,0-2.13-0.228-2.826-0.684l0.378-1.224c0.732,0.456,1.566,0.684,2.502,0.684
			c1.824,0,2.736-1.002,2.736-3.006v-0.972h-0.036c-0.552,0.96-1.446,1.44-2.682,1.44c-1.056,0-1.926-0.405-2.61-1.215
			s-1.026-1.821-1.026-3.033c0-1.416,0.396-2.556,1.188-3.42c0.732-0.792,1.62-1.188,2.664-1.188c1.236,0,2.112,0.492,2.628,1.476
			h0.036l0.072-1.296H106.138z M104.5,11.439V9.801c0-0.288-0.024-0.522-0.072-0.702c-0.349-1.104-1.068-1.656-2.16-1.656
			c-0.756,0-1.368,0.3-1.836,0.9c-0.468,0.6-0.702,1.398-0.702,2.394c0,0.912,0.216,1.65,0.648,2.214
			c0.456,0.624,1.08,0.936,1.872,0.936c0.48,0,0.915-0.144,1.305-0.432c0.39-0.288,0.668-0.684,0.837-1.188
			C104.463,12.027,104.5,11.751,104.5,11.439z"/>
		<path fill="#FFFFFF" d="M110.598,3.789c0,0.3-0.096,0.543-0.288,0.729s-0.438,0.279-0.738,0.279c-0.288,0-0.525-0.096-0.711-0.288
			c-0.186-0.192-0.279-0.432-0.279-0.72c0-0.288,0.096-0.528,0.288-0.72c0.192-0.192,0.432-0.288,0.72-0.288
			c0.3,0,0.543,0.093,0.729,0.279S110.598,3.489,110.598,3.789z M110.382,15.111h-1.566V6.399h1.566V15.111z"/>
	</g>
	<g>
	</g>
	<g>
	</g>
	<g>
	</g>
	<g>
	</g>
	<g>
	</g>
	<g>
	</g>
	<g>
	</g>
	<g>
	</g>
	<g>
	</g>
	<g>
	</g>
	<g>
	</g>
	<g>
	</g>
	<g>
	</g>
	<g>
	</g>
	<g>
	</g>
</g>
</svg>
