<?xml version="1.0" encoding="utf-8"?>
<!-- Generator: Adobe Illustrator 16.0.1, SVG Export Plug-In . SVG Version: 6.00 Build 0)  -->
<!DOCTYPE svg PUBLIC "-//W3C//DTD SVG 1.1//EN" "http://www.w3.org/Graphics/SVG/1.1/DTD/svg11.dtd">
<svg version="1.1" xmlns="http://www.w3.org/2000/svg" xmlns:xlink="http://www.w3.org/1999/xlink" x="0px" y="0px" width="130px"
	 height="20px" viewBox="0 0 130 20" enable-background="new 0 0 130 20" xml:space="preserve">
<g id="Help">
</g>
<g id="Nav">
	<g>
		<path fill="#FFFFFF" d="M43.183,5.553h-5.382V4.725h5.382V2.277h0.864v2.448h5.346v0.828h-5.346v2.232h3.654v0.81
			c-0.12,0.216-0.288,0.474-0.504,0.774c-0.216,0.3-0.456,0.606-0.72,0.918c-0.24,0.276-0.546,0.588-0.918,0.936
			c-0.372,0.348-0.756,0.66-1.152,0.936c0.804,0.528,1.625,0.966,2.466,1.314c0.84,0.348,1.794,0.594,2.862,0.738l-0.396,0.864
			c-0.876-0.168-1.722-0.398-2.538-0.693c-0.816-0.294-1.596-0.681-2.34-1.161l-0.819-0.54c-0.894,0.504-1.812,0.972-2.753,1.404
			c-0.942,0.432-1.923,0.762-2.943,0.99l-0.45-0.81c0.984-0.18,1.917-0.459,2.799-0.837s1.749-0.807,2.601-1.287
			c-0.588-0.468-1.128-1.011-1.62-1.629c-0.492-0.618-0.93-1.251-1.314-1.899h-0.918V7.785h4.14V5.553z M40.915,8.613
			c0.336,0.576,0.741,1.137,1.215,1.683s0.981,1.029,1.521,1.449c0.264-0.18,0.54-0.39,0.828-0.63
			c0.288-0.24,0.567-0.498,0.837-0.774c0.27-0.276,0.525-0.561,0.765-0.855c0.24-0.294,0.45-0.585,0.63-0.873H40.915z"/>
		<path fill="#FFFFFF" d="M54.125,14.463c-0.036,0.168-0.117,0.297-0.243,0.387c-0.126,0.09-0.273,0.166-0.441,0.225
			c-0.24,0.06-0.48,0.087-0.72,0.081c-0.24-0.006-0.48-0.015-0.72-0.027l-0.288-0.81c0.216,0.024,0.432,0.042,0.648,0.054
			c0.216,0.012,0.426-0.006,0.63-0.054c0.084-0.06,0.153-0.12,0.207-0.18c0.054-0.06,0.081-0.138,0.081-0.234v-3.816
			c-0.24,0.084-0.474,0.174-0.702,0.27s-0.456,0.198-0.684,0.306c-0.096-0.108-0.195-0.216-0.297-0.324s-0.195-0.222-0.279-0.342
			c0.335-0.132,0.668-0.258,0.999-0.378c0.33-0.12,0.651-0.258,0.963-0.414l-0.018-3.222h-1.674V5.157h1.71V2.331h0.828v2.844h1.332
			v0.81h-1.332l0.018,2.818c0.192-0.072,0.399-0.156,0.621-0.252c0.222-0.096,0.429-0.186,0.621-0.27v0.902
			c-0.204,0.072-0.411,0.157-0.621,0.253s-0.423,0.187-0.639,0.271V14.463z M62.567,10.809c-0.252,0.456-0.555,0.87-0.909,1.242
			c-0.354,0.372-0.759,0.714-1.215,1.026c0.492,0.276,0.993,0.513,1.503,0.711c0.51,0.198,1.047,0.351,1.611,0.459
			c0.096,0.024,0.192,0.042,0.288,0.054c0.096,0.012,0.198,0.012,0.306,0c-0.084,0.144-0.15,0.288-0.198,0.432
			s-0.126,0.276-0.234,0.396c-0.576-0.096-1.128-0.24-1.656-0.432c-0.528-0.192-1.05-0.42-1.566-0.684
			c-0.132-0.083-0.258-0.153-0.378-0.207c-0.12-0.054-0.246-0.128-0.378-0.225c-0.684,0.384-1.386,0.699-2.106,0.945
			s-1.464,0.447-2.232,0.603l-0.432-0.792c0.732-0.132,1.437-0.3,2.115-0.504c0.678-0.204,1.329-0.474,1.953-0.81
			c-0.384-0.276-0.723-0.597-1.017-0.963c-0.294-0.366-0.555-0.747-0.783-1.143c-0.24,0.372-0.516,0.714-0.828,1.026
			s-0.636,0.606-0.972,0.882c-0.061,0.024-0.12,0.054-0.18,0.09c-0.06,0.036-0.12,0.066-0.18,0.09l-0.648-0.576
			c0.612-0.384,1.161-0.861,1.647-1.431c0.486-0.57,0.831-1.191,1.035-1.863h-1.332V8.307h1.512
			c0.024-0.165,0.045-0.324,0.063-0.477c0.018-0.153,0.021-0.312,0.009-0.477l-1.404,0.018V6.543h7.074l0.018,0.828l-4.806-0.018
			c-0.024,0.165-0.039,0.342-0.045,0.53s-0.033,0.336-0.081,0.441l5.76-0.018v0.828l-5.904,0.018
			c-0.048,0.168-0.093,0.327-0.135,0.477c-0.042,0.15-0.093,0.297-0.153,0.441h4.878V10.809z M57.293,3.195
			c1.02-0.036,1.968-0.114,2.844-0.234s1.788-0.294,2.736-0.522c0.06-0.024,0.132-0.039,0.216-0.045
			c0.083-0.006,0.156-0.021,0.216-0.045l0.468,0.684c-0.96,0.276-1.929,0.483-2.907,0.621c-0.978,0.138-1.977,0.231-2.997,0.279
			l-2.268,0.108h-0.09c-0.06-0.132-0.12-0.264-0.18-0.396c-0.06-0.132-0.12-0.264-0.18-0.396L57.293,3.195z M56.609,4.365
			c0.216,0.252,0.438,0.504,0.666,0.756c0.228,0.252,0.426,0.534,0.594,0.846c-0.252,0.168-0.504,0.312-0.756,0.432
			c-0.348-0.6-0.78-1.164-1.296-1.692c0.12-0.072,0.24-0.135,0.36-0.189c0.12-0.054,0.24-0.111,0.36-0.171L56.609,4.365z
			 M58.157,10.899c0.048,0.108,0.129,0.234,0.243,0.378c0.114,0.144,0.243,0.291,0.387,0.441c0.144,0.15,0.3,0.303,0.468,0.459
			c0.168,0.156,0.33,0.294,0.486,0.414h0.054c0.312-0.24,0.624-0.501,0.936-0.783c0.312-0.282,0.587-0.585,0.828-0.909H58.157z
			 M59.453,6.201c-0.168-0.684-0.456-1.314-0.864-1.89c0.132-0.06,0.267-0.096,0.405-0.108c0.138-0.012,0.273-0.042,0.405-0.09
			c0.228,0.288,0.411,0.582,0.549,0.882c0.138,0.3,0.255,0.625,0.351,0.972L59.453,6.201z M63.341,3.987
			c-0.12,0.42-0.291,0.81-0.513,1.17s-0.465,0.726-0.729,1.098c-0.144-0.06-0.282-0.126-0.414-0.198
			c-0.132-0.072-0.27-0.15-0.414-0.234c0.288-0.336,0.543-0.678,0.765-1.026s0.405-0.72,0.549-1.116
			c0.132,0.061,0.258,0.114,0.378,0.162C63.083,3.891,63.209,3.939,63.341,3.987z"/>
		<path fill="#FFFFFF" d="M70.849,14.031c-0.119,0.312-0.281,0.519-0.483,0.621c-0.203,0.102-0.417,0.153-0.644,0.153h-1.198
			c-0.06-0.156-0.117-0.306-0.17-0.45c-0.054-0.144-0.11-0.294-0.17-0.45c0.24,0,0.483,0.015,0.729,0.045
			c0.246,0.03,0.495,0.027,0.747-0.009c0.06-0.024,0.117-0.063,0.171-0.117c0.054-0.054,0.105-0.105,0.153-0.153v-3.15h-2.214
			c-0.036,0.312-0.062,0.615-0.079,0.909c-0.018,0.294-0.05,0.585-0.097,0.873l-0.035,0.234c-0.094,0.516-0.229,0.979-0.406,1.386
			c-0.177,0.408-0.421,0.822-0.733,1.242c-0.132-0.096-0.255-0.188-0.369-0.279c-0.114-0.09-0.237-0.183-0.369-0.278
			c0.168-0.24,0.324-0.491,0.468-0.755s0.258-0.534,0.342-0.809c0.083-0.167,0.146-0.335,0.189-0.503
			c0.042-0.168,0.075-0.342,0.099-0.521c0.131-0.958,0.188-1.938,0.171-2.938c-0.018-1-0.027-1.998-0.027-2.993V3.015l3.924-0.036
			V14.031z M67.789,3.843v2.448h2.178V3.843H67.789z M69.967,7.155l-2.178-0.018v2.52h2.178V7.155z M72.919,7.839h4.698
			c-0.048,0.419-0.108,0.832-0.18,1.239c-0.072,0.407-0.174,0.802-0.306,1.185c-0.132,0.395-0.273,0.781-0.423,1.158
			c-0.15,0.377-0.327,0.745-0.531,1.104c0.312,0.396,0.663,0.733,1.053,1.015c0.39,0.281,0.789,0.554,1.197,0.817
			c-0.084,0.12-0.174,0.237-0.27,0.35c-0.096,0.114-0.192,0.225-0.288,0.333c-0.18-0.108-0.354-0.222-0.522-0.342
			c-0.168-0.12-0.336-0.24-0.504-0.36c-0.192-0.168-0.384-0.333-0.576-0.495c-0.192-0.162-0.372-0.339-0.54-0.531
			c-0.3,0.348-0.606,0.681-0.918,0.999c-0.312,0.318-0.636,0.615-0.972,0.891c-0.204-0.192-0.402-0.408-0.594-0.648
			c0.348-0.288,0.687-0.588,1.017-0.9s0.621-0.654,0.873-1.026c-0.108-0.168-0.216-0.339-0.324-0.513
			c-0.108-0.174-0.204-0.351-0.288-0.531c-0.216-0.48-0.399-0.954-0.549-1.422c-0.15-0.468-0.268-0.966-0.351-1.494h-0.72
			l0.018,6.462h-0.918V2.979l5.616,0.036c-0.036,0.513-0.084,1.014-0.144,1.502c-0.061,0.489-0.156,0.984-0.288,1.486
			c-0.06,0.24-0.195,0.432-0.405,0.576c-0.21,0.144-0.429,0.229-0.657,0.252c-0.252,0.024-0.51,0.024-0.774,0
			c-0.264-0.024-0.516-0.054-0.756-0.09l-0.27-0.936c0.264,0.036,0.531,0.078,0.801,0.126c0.27,0.048,0.543,0.084,0.819,0.108
			c0.144-0.012,0.246-0.078,0.306-0.198c0.036-0.096,0.072-0.228,0.108-0.396s0.069-0.348,0.099-0.54
			c0.03-0.192,0.054-0.381,0.072-0.567s0.033-0.351,0.045-0.495h-3.654V7.839z M74.503,8.667c0.06,0.336,0.126,0.66,0.198,0.972
			c0.072,0.312,0.174,0.624,0.306,0.936c0.06,0.216,0.144,0.417,0.252,0.603c0.108,0.187,0.216,0.375,0.324,0.567
			c0.276-0.504,0.501-0.999,0.675-1.485s0.309-1.017,0.405-1.593H74.503z"/>
		<path fill="#FFFFFF" d="M85.355,8.811l-0.882-0.198c0.023-0.096,0.06-0.228,0.108-0.396c0.048-0.168,0.083-0.306,0.108-0.414
			h-0.882v6.084c0.024,0.168,0,0.351-0.072,0.549c-0.072,0.198-0.21,0.363-0.414,0.495c-0.12,0.096-0.255,0.156-0.405,0.18
			c-0.15,0.024-0.306,0.036-0.468,0.036c-0.162,0-0.324-0.006-0.486-0.018c-0.162-0.012-0.321-0.012-0.477,0l-0.306-0.918
			c0.228,0.024,0.453,0.042,0.675,0.054c0.222,0.012,0.453,0.006,0.693-0.018c0.096-0.024,0.174-0.078,0.234-0.162
			s0.09-0.18,0.09-0.288V7.803h-0.198c-0.132,0.972-0.411,1.926-0.837,2.862c-0.426,0.936-1.029,1.746-1.809,2.43l-0.684-0.612
			c0.396-0.288,0.729-0.609,0.999-0.963s0.498-0.735,0.684-1.143c0.186-0.408,0.339-0.828,0.459-1.26
			c0.12-0.432,0.222-0.87,0.306-1.314h-1.98V6.939h3.384c-0.072-0.108-0.162-0.207-0.27-0.297c-0.108-0.09-0.216-0.189-0.324-0.297
			c-0.528-0.42-1.092-0.744-1.692-0.972l0.702-0.594c0.168,0.096,0.339,0.189,0.513,0.279c0.174,0.09,0.345,0.183,0.513,0.279
			c0.264-0.24,0.525-0.48,0.783-0.72c0.258-0.24,0.495-0.498,0.711-0.774h-3.78V3.015h4.788v0.828
			c-0.12,0.24-0.249,0.453-0.387,0.639c-0.138,0.186-0.282,0.357-0.432,0.513c-0.15,0.156-0.306,0.3-0.468,0.432
			c-0.162,0.132-0.333,0.27-0.513,0.414l0.738,0.702l-0.432,0.396h2.142c-0.024,0.276-0.066,0.582-0.126,0.918
			c-0.061,0.336-0.126,0.642-0.198,0.918c0.432-0.192,0.843-0.393,1.233-0.603s0.777-0.471,1.161-0.783
			c-0.12-0.108-0.246-0.258-0.378-0.45c-0.132-0.192-0.252-0.39-0.36-0.594c-0.108-0.204-0.205-0.399-0.288-0.585
			c-0.084-0.186-0.138-0.327-0.162-0.423c-0.288,0.432-0.63,0.828-1.026,1.188l-0.81-0.504c0.672-0.504,1.182-1.098,1.53-1.782
			s0.636-1.386,0.864-2.106l0.81,0.289c-0.036,0.205-0.09,0.4-0.162,0.587c-0.072,0.187-0.15,0.382-0.234,0.587l4.212,0.013v0.828
			h-1.152c-0.132,0.552-0.324,1.077-0.576,1.575c-0.252,0.498-0.588,0.957-1.008,1.377c0.504,0.457,1.05,0.798,1.638,1.026
			s1.194,0.426,1.818,0.594l-0.486,0.828c-0.66-0.192-1.287-0.432-1.881-0.72c-0.594-0.288-1.173-0.654-1.737-1.098
			c-0.492,0.384-1.032,0.738-1.62,1.062c-0.588,0.324-1.17,0.57-1.746,0.738l-0.54-0.72L85.355,8.811z M87.641,9.999
			c0.024-0.204,0.033-0.417,0.027-0.639c-0.006-0.222-0.015-0.441-0.027-0.657h0.954c0,0.457-0.018,0.882-0.054,1.278h2.592
			c-0.012,0.288-0.027,0.57-0.045,0.846c-0.018,0.276-0.045,0.558-0.081,0.846c-0.048,0.372-0.099,0.744-0.153,1.116
			c-0.054,0.372-0.135,0.738-0.243,1.098c-0.06,0.192-0.162,0.357-0.306,0.495c-0.144,0.138-0.312,0.237-0.504,0.297
			c-0.312,0.048-0.615,0.054-0.909,0.018c-0.294-0.036-0.585-0.066-0.873-0.09l-0.252-0.936c0.191,0.036,0.393,0.075,0.603,0.117
			c0.209,0.042,0.408,0.069,0.594,0.081c0.186,0.012,0.351-0.009,0.495-0.063c0.144-0.054,0.246-0.153,0.306-0.297
			c0.096-0.264,0.183-0.648,0.261-1.152s0.135-1.008,0.171-1.512h-1.782c-0.12,0.648-0.321,1.266-0.603,1.854
			c-0.282,0.588-0.693,1.098-1.233,1.53c-0.276,0.228-0.558,0.414-0.846,0.558c-0.288,0.144-0.6,0.27-0.936,0.378l-0.504-0.828
			c0.324-0.06,0.645-0.171,0.963-0.333s0.609-0.36,0.873-0.594c0.264-0.234,0.495-0.498,0.693-0.792
			c0.198-0.294,0.351-0.603,0.459-0.927c0.024-0.132,0.06-0.267,0.108-0.405c0.048-0.138,0.084-0.279,0.108-0.423h-2.088V9.999
			H87.641z M87.335,4.437c0.06,0.456,0.201,0.879,0.423,1.269c0.222,0.39,0.471,0.759,0.747,1.107
			c0.312-0.348,0.576-0.726,0.792-1.134c0.216-0.408,0.378-0.822,0.486-1.242H87.335z"/>
	</g>
	<g>
	</g>
	<g>
	</g>
	<g>
	</g>
	<g>
	</g>
	<g>
	</g>
	<g>
	</g>
	<g>
	</g>
	<g>
	</g>
	<g>
	</g>
	<g>
	</g>
	<g>
	</g>
	<g>
	</g>
	<g>
	</g>
	<g>
	</g>
	<g>
	</g>
</g>
</svg>
