<?xml version="1.0" encoding="utf-8"?>
<svg version="1.1" xmlns="http://www.w3.org/2000/svg" xmlns:xlink="http://www.w3.org/1999/xlink" width="130px" height="20px">
	<path fill="#FFFFFF" d="M51.343,14.499c0.348-0.36,0.678-0.747,0.99-1.161s0.552-0.849,0.72-1.305l0.702,0.396
		c-0.168,0.504-0.405,0.972-0.711,1.404c-0.306,0.432-0.633,0.846-0.981,1.242L51.343,14.499z M55.627,3.051l-0.018,8.622h-3.33
		l-0.018-8.622H55.627z M54.745,3.861l-1.62,0.018l0.019,1.548h1.602V3.861z M54.745,6.255h-1.62v1.836h1.62V6.255z M54.745,8.901
		h-1.62v1.944h1.62V8.901z M54.871,12.123c0.588,0.72,0.99,1.53,1.206,2.43l-0.828,0.306c-0.096-0.456-0.231-0.882-0.405-1.278
		c-0.174-0.396-0.417-0.768-0.729-1.116L54.871,12.123z M64.141,11.781v0.828h-1.026c-0.012,0.192-0.021,0.399-0.027,0.621
		c-0.006,0.222-0.027,0.435-0.063,0.639c-0.036,0.205-0.099,0.387-0.189,0.549c-0.09,0.162-0.225,0.267-0.405,0.315
		c-0.228,0.108-0.453,0.162-0.675,0.162c-0.222,0-0.453-0.012-0.693-0.036l-0.522-0.9c0.228,0.024,0.438,0.039,0.63,0.045
		c0.191,0.006,0.396-0.003,0.612-0.027c0.132,0,0.231-0.051,0.297-0.153c0.066-0.102,0.114-0.225,0.144-0.369
		c0.03-0.144,0.045-0.294,0.045-0.45c0-0.156,0-0.288,0-0.396h-4.464v2.484h-0.9v-2.484h-0.99v-0.828l0.99,0.018l-0.018-3.708
		h2.682V7.335l-3.366,0.018V6.525l1.872,0.018v-0.81h-0.918V4.905l0.918-0.018V4.221h-1.44V3.393h1.44V2.331h0.864l0.018,1.044
		l2.016,0.018l0.018-1.062h0.847v1.044l1.494,0.018v0.828l-1.494-0.018v0.702h0.99v0.828h-0.99v0.792h1.926l-0.018,0.81h-3.294
		v0.756h2.682l-0.018,3.69H64.141z M57.75,9.891h1.818V8.919h-1.8L57.75,9.891z M57.769,10.647v1.134h1.8v-1.134H57.769z
		 M60.991,5.733h-2.052l0.018,0.792h2.016L60.991,5.733z M58.975,4.221l-0.018,0.666l2.034,0.018l-0.018-0.684H58.975z
		 M62.25,10.647h-1.818l0.018,1.134l1.8,0.018V10.647z M62.25,8.919l-1.8,0.018v0.954h1.8V8.919z"/>
	<path fill="#FFFFFF" d="M70.48,13.437c-0.42,0.3-0.858,0.552-1.314,0.756s-0.93,0.378-1.422,0.522
		c-0.312,0.096-0.627,0.177-0.945,0.243c-0.318,0.066-0.651,0.111-0.999,0.135l-0.432-0.792c0.864-0.072,1.677-0.231,2.439-0.477
		c0.762-0.246,1.485-0.573,2.169-0.981L70.48,13.437z M76.672,2.979v3.168H66.268V2.979H76.672z M67.132,3.807v1.512h2.322V3.807
		H67.132z M67.456,6.903H75.7v5.796h-8.244V6.903z M74.836,8.595v-0.9H68.32v0.9H74.836z M68.32,9.297v0.936h6.516V9.297H68.32z
		 M68.32,10.935v0.972h6.516v-0.972H68.32z M70.282,3.807v1.512h2.34V3.807H70.282z M77.284,15.003
		c-0.312-0.168-0.624-0.324-0.936-0.468s-0.63-0.27-0.954-0.378c-0.456-0.132-0.906-0.252-1.35-0.36
		c-0.444-0.108-0.912-0.162-1.404-0.162l0.45-0.72c0.888,0.06,1.716,0.216,2.484,0.468s1.53,0.564,2.286,0.936L77.284,15.003z
		 M75.79,5.319V3.807h-2.34v1.512H75.79z"/>
</svg>
