<?xml version="1.0" encoding="utf-8"?>
<!-- Generator: Adobe Illustrator 16.0.1, SVG Export Plug-In . SVG Version: 6.00 Build 0)  -->
<!DOCTYPE svg PUBLIC "-//W3C//DTD SVG 1.1//EN" "http://www.w3.org/Graphics/SVG/1.1/DTD/svg11.dtd">
<svg version="1.1" xmlns="http://www.w3.org/2000/svg" xmlns:xlink="http://www.w3.org/1999/xlink" x="0px" y="0px" width="130px"
	 height="20px" viewBox="0 0 130 20" enable-background="new 0 0 130 20" xml:space="preserve">
<g id="Help">
</g>
<g id="Nav">
	<g>
		<path fill="#FFFFFF" d="M42.805,3.321l-0.378,1.26c-0.672-0.324-1.458-0.486-2.358-0.486c-1.404,0-2.514,0.432-3.33,1.296
			c-0.852,0.888-1.278,2.124-1.278,3.708c0,1.512,0.402,2.703,1.206,3.573c0.804,0.87,1.914,1.305,3.33,1.305
			c0.984,0,1.812-0.162,2.484-0.486l0.306,1.242c-0.744,0.36-1.782,0.54-3.114,0.54c-1.728,0-3.12-0.516-4.176-1.548
			c-1.116-1.104-1.674-2.628-1.674-4.572c0-1.92,0.573-3.459,1.719-4.617c1.146-1.158,2.637-1.737,4.473-1.737
			C41.227,2.799,42.157,2.973,42.805,3.321z"/>
		<path fill="#FFFFFF" d="M51.971,10.683c0,1.332-0.366,2.424-1.098,3.276c-0.78,0.888-1.824,1.332-3.132,1.332
			c-1.26,0-2.268-0.432-3.024-1.296c-0.708-0.84-1.062-1.896-1.062-3.168c0-1.332,0.366-2.424,1.098-3.276
			c0.78-0.888,1.824-1.332,3.132-1.332c1.26,0,2.268,0.432,3.024,1.296C51.617,8.343,51.971,9.399,51.971,10.683z M50.369,10.737
			c0-0.876-0.204-1.626-0.612-2.25c-0.468-0.732-1.116-1.098-1.944-1.098c-0.852,0-1.512,0.366-1.98,1.098
			c-0.408,0.624-0.612,1.386-0.612,2.286c0,0.864,0.21,1.614,0.63,2.25c0.468,0.732,1.116,1.098,1.944,1.098
			c0.816,0,1.464-0.372,1.944-1.116C50.159,12.357,50.369,11.601,50.369,10.737z"/>
		<path fill="#FFFFFF" d="M66.043,15.111h-1.53v-4.95c0-1.775-0.618-2.664-1.854-2.664c-0.564,0-1.032,0.222-1.404,0.666
			c-0.372,0.444-0.558,0.96-0.558,1.548v5.4h-1.53V9.855c0-0.708-0.153-1.278-0.459-1.71c-0.306-0.432-0.741-0.648-1.305-0.648
			c-0.588,0-1.086,0.252-1.494,0.756c-0.372,0.456-0.558,0.984-0.558,1.584v5.274h-1.53V8.757c0-0.72-0.024-1.506-0.072-2.358h1.368
			l0.072,1.386h0.054c0.612-1.044,1.506-1.566,2.682-1.566c0.576,0,1.077,0.156,1.503,0.468s0.729,0.726,0.909,1.242h0.036
			c0.264-0.456,0.594-0.828,0.99-1.116c0.528-0.396,1.146-0.594,1.854-0.594c0.732,0,1.35,0.246,1.854,0.738
			c0.648,0.648,0.972,1.644,0.972,2.988V15.111z"/>
		<path fill="#FFFFFF" d="M76.434,10.629c0,1.488-0.396,2.658-1.188,3.51c-0.708,0.768-1.602,1.152-2.682,1.152
			c-1.2,0-2.07-0.444-2.61-1.332h-0.036v4.698H68.37V9.225c0-0.936-0.024-1.877-0.072-2.826h1.404l0.072,1.458h0.036
			c0.66-1.092,1.662-1.638,3.006-1.638c1.056,0,1.923,0.408,2.601,1.224C76.095,8.259,76.434,9.321,76.434,10.629z M74.85,10.701
			c0-0.912-0.21-1.667-0.63-2.268c-0.468-0.648-1.092-0.972-1.872-0.972c-0.54,0-1.026,0.18-1.458,0.54
			c-0.432,0.36-0.72,0.822-0.864,1.386c-0.072,0.276-0.108,0.492-0.108,0.648v1.548c0,0.696,0.222,1.284,0.666,1.764
			c0.444,0.48,1.014,0.72,1.71,0.72c0.804,0,1.431-0.309,1.881-0.927C74.625,12.522,74.85,11.709,74.85,10.701z"/>
		<path fill="#FFFFFF" d="M82.542,7.731c-0.156-0.024-0.336-0.036-0.54-0.036c-0.708,0-1.254,0.294-1.638,0.882
			c-0.349,0.516-0.522,1.14-0.522,1.872v4.662h-1.548v-6.03c0-0.936-0.024-1.83-0.072-2.682h1.386l0.072,1.692h0.054
			c0.192-0.576,0.507-1.032,0.945-1.368c0.438-0.335,0.915-0.504,1.431-0.504c0.168,0,0.312,0.012,0.432,0.036V7.731z"/>
		<path fill="#FFFFFF" d="M90.158,15.111h-1.422l-0.144-1.08h-0.036c-0.6,0.84-1.47,1.26-2.61,1.26
			c-0.816,0-1.464-0.252-1.944-0.756c-0.444-0.468-0.666-1.044-0.666-1.728c0-1.056,0.444-1.863,1.332-2.421
			s2.154-0.831,3.798-0.819v-0.18c0-1.344-0.648-2.016-1.944-2.016c-0.84,0-1.578,0.21-2.214,0.63l-0.36-1.044
			c0.768-0.492,1.71-0.738,2.826-0.738c2.16,0,3.24,1.176,3.24,3.528v3.294C90.014,13.893,90.062,14.583,90.158,15.111z
			 M88.483,12.195v-1.53c-2.388-0.048-3.582,0.606-3.582,1.962c0,0.492,0.138,0.867,0.414,1.125
			c0.276,0.258,0.624,0.387,1.044,0.387c0.516,0,0.966-0.15,1.35-0.45c0.336-0.264,0.57-0.594,0.702-0.99
			C88.459,12.543,88.483,12.375,88.483,12.195z"/>
		<path fill="#FFFFFF" d="M96.571,7.731c-0.156-0.024-0.336-0.036-0.54-0.036c-0.708,0-1.254,0.294-1.638,0.882
			c-0.349,0.516-0.522,1.14-0.522,1.872v4.662h-1.548v-6.03c0-0.936-0.024-1.83-0.072-2.682h1.386l0.072,1.692h0.054
			c0.192-0.576,0.507-1.032,0.945-1.368c0.438-0.335,0.915-0.504,1.431-0.504c0.168,0,0.312,0.012,0.432,0.036V7.731z"/>
	</g>
	<g>
	</g>
	<g>
	</g>
	<g>
	</g>
	<g>
	</g>
	<g>
	</g>
	<g>
	</g>
	<g>
	</g>
	<g>
	</g>
	<g>
	</g>
	<g>
	</g>
	<g>
	</g>
	<g>
	</g>
	<g>
	</g>
	<g>
	</g>
	<g>
	</g>
</g>
</svg>
