<?xml version="1.0" encoding="utf-8"?>
<!-- Generator: Adobe Illustrator 16.0.1, SVG Export Plug-In . SVG Version: 6.00 Build 0)  -->
<!DOCTYPE svg PUBLIC "-//W3C//DTD SVG 1.1//EN" "http://www.w3.org/Graphics/SVG/1.1/DTD/svg11.dtd">
<svg version="1.1" xmlns="http://www.w3.org/2000/svg" xmlns:xlink="http://www.w3.org/1999/xlink" x="0px" y="0px" width="130px"
	 height="20px" viewBox="0 0 130 20" enable-background="new 0 0 130 20" xml:space="preserve">
<g id="Help">
</g>
<g id="Nav">
	<g>
		<path fill="#FFFFFF" d="M40.006,9.387c-0.252,0.096-0.519,0.189-0.801,0.279c-0.282,0.09-0.561,0.183-0.837,0.279v4.14
			c0,0.492-0.097,0.834-0.292,1.026s-0.542,0.294-1.039,0.306c-0.168,0-0.363,0.002-0.585,0.009
			c-0.222,0.006-0.435-0.003-0.639-0.027l-0.216-1.188c0.216,0.024,0.417,0.042,0.603,0.054c0.186,0.012,0.357,0.018,0.513,0.018
			c0.216,0,0.354-0.045,0.414-0.135c0.06-0.09,0.09-0.237,0.09-0.441v-3.366c-0.312,0.108-0.612,0.21-0.9,0.306
			s-0.552,0.192-0.792,0.288l-0.342-1.134c0.288-0.084,0.605-0.177,0.954-0.279s0.708-0.219,1.08-0.351v-3.15H35.47v-1.08h1.746
			V2.097h1.152v2.844h1.476v1.08h-1.476L38.35,8.793c0.276-0.096,0.534-0.189,0.774-0.279c0.24-0.09,0.462-0.177,0.666-0.261
			L40.006,9.387z M48.034,15.579c-0.732-0.276-1.407-0.587-2.025-0.936s-1.197-0.762-1.737-1.242
			c-0.576,0.456-1.203,0.861-1.881,1.215c-0.678,0.354-1.431,0.687-2.259,0.999l-0.774-1.116c0.828-0.216,1.575-0.489,2.241-0.819
			c0.666-0.33,1.281-0.705,1.845-1.125c-0.972-1.068-1.77-2.448-2.394-4.14h-0.666v-1.08h3.33V5.319h-3.366v-1.08h3.366v-2.16h1.152
			v2.16h3.636v1.08h-3.636v2.016l3.096-0.018c-0.348,1.152-0.75,2.151-1.206,2.997c-0.456,0.846-0.99,1.599-1.602,2.259
			c0.528,0.42,1.092,0.789,1.692,1.107c0.6,0.318,1.242,0.573,1.926,0.765L48.034,15.579z M42.202,8.415
			c0.24,0.636,0.534,1.236,0.882,1.8c0.348,0.564,0.756,1.092,1.224,1.584c0.972-0.984,1.656-2.112,2.052-3.384H42.202z"/>
		<path fill="#FFFFFF" d="M58.234,6.579c0.708,1.393,1.533,2.586,2.475,3.582c0.942,0.997,2.007,1.878,3.195,2.646l-0.792,1.044
			c-0.636-0.468-1.215-0.93-1.737-1.386s-0.999-0.927-1.431-1.413s-0.825-0.99-1.179-1.512s-0.687-1.071-0.999-1.647v7.758h-1.242
			v-7.74c-0.576,1.141-1.308,2.235-2.196,3.285c-0.888,1.05-1.944,1.989-3.168,2.817l-0.81-1.044
			c1.355-0.875,2.484-1.836,3.384-2.88s1.662-2.214,2.286-3.51h-5.274V5.427h5.778V2.061h1.242v3.366h5.832v1.152H58.234z
			 M61.42,5.301c-0.408-0.384-0.795-0.738-1.161-1.062c-0.366-0.324-0.777-0.672-1.233-1.044l0.846-0.828
			c0.432,0.348,0.843,0.69,1.233,1.026c0.39,0.336,0.789,0.696,1.197,1.08L61.42,5.301z"/>
		<path fill="#FFFFFF" d="M78.588,15.579c-1.296-0.276-2.439-0.609-3.429-0.999c-0.99-0.39-1.887-0.855-2.691-1.395
			c-0.768,0.492-1.671,0.945-2.709,1.359c-1.038,0.414-2.229,0.801-3.573,1.161l-0.612-1.206c1.236-0.264,2.337-0.57,3.303-0.918
			s1.821-0.738,2.565-1.17c-0.648-0.528-1.224-1.104-1.728-1.728c-0.504-0.624-1.002-1.338-1.494-2.142h-1.26V7.389h4.842V5.355
			h-6.048V4.221h6.048V2.115h1.224v2.106h6.084v1.134h-6.084v2.034H77.4c-0.24,0.54-0.492,1.038-0.756,1.494
			c-0.264,0.456-0.549,0.885-0.855,1.287c-0.306,0.402-0.642,0.786-1.008,1.152c-0.366,0.366-0.783,0.729-1.251,1.089
			c0.948,0.564,1.893,0.99,2.835,1.278c0.942,0.288,1.899,0.498,2.871,0.63L78.588,15.579z M69.571,8.541
			c0.804,1.332,1.77,2.4,2.898,3.204c1.344-0.983,2.34-2.052,2.988-3.204H69.571z"/>
		<path fill="#FFFFFF" d="M85.85,9.531l-1.728,0.594v3.978c0,0.492-0.099,0.837-0.297,1.035c-0.198,0.198-0.543,0.303-1.035,0.315
			h-1.206l-0.234-1.188c0.408,0.036,0.78,0.054,1.116,0.054c0.204,0,0.333-0.048,0.387-0.144c0.054-0.096,0.081-0.246,0.081-0.45
			v-3.201c-0.276,0.096-0.555,0.189-0.837,0.279c-0.282,0.09-0.549,0.183-0.801,0.279L80.9,9.895c0.312-0.06,0.642-0.144,0.99-0.252
			c0.348-0.108,0.696-0.216,1.044-0.324V6.111h-1.692V5.013l1.692,0.018V2.115h1.188v2.898l1.494,0.018v1.08h-1.494v2.826
			c0.276-0.096,0.543-0.189,0.801-0.279c0.258-0.09,0.495-0.177,0.711-0.261L85.85,9.531z M94.472,6.993v1.116h-8.496V6.993h3.654
			V5.085h-2.772v-1.08h2.772V2.133h1.188v1.872h2.79v1.08l-2.79,0.018v1.89H94.472z M92.618,9.693h1.764v1.08h-1.764v2.952
			c0,0.601-0.108,1.029-0.324,1.287c-0.216,0.258-0.636,0.387-1.26,0.387c-0.204,0-0.429,0-0.675,0
			c-0.246,0-0.525-0.006-0.837-0.018l-0.288-1.242c0.348,0.036,0.645,0.061,0.891,0.072c0.246,0.012,0.459,0.018,0.639,0.018
			c0.24,0,0.411-0.048,0.513-0.144c0.102-0.096,0.153-0.252,0.153-0.468v-2.844h-5.292v-1.08h5.292V8.379h1.188V9.693z
			 M87.704,10.989c0.444,0.396,0.828,0.75,1.152,1.062c0.324,0.312,0.666,0.66,1.026,1.044l-0.936,0.792
			c-0.336-0.408-0.66-0.768-0.972-1.08c-0.312-0.312-0.69-0.666-1.134-1.062L87.704,10.989z"/>
	</g>
	<g>
	</g>
	<g>
	</g>
	<g>
	</g>
	<g>
	</g>
	<g>
	</g>
	<g>
	</g>
	<g>
	</g>
	<g>
	</g>
	<g>
	</g>
	<g>
	</g>
	<g>
	</g>
	<g>
	</g>
	<g>
	</g>
	<g>
	</g>
	<g>
	</g>
</g>
</svg>
