<?xml version="1.0" encoding="utf-8"?>
<!-- Generator: Adobe Illustrator 16.0.1, SVG Export Plug-In . SVG Version: 6.00 Build 0)  -->
<!DOCTYPE svg PUBLIC "-//W3C//DTD SVG 1.1//EN" "http://www.w3.org/Graphics/SVG/1.1/DTD/svg11.dtd">
<svg version="1.1" xmlns="http://www.w3.org/2000/svg" xmlns:xlink="http://www.w3.org/1999/xlink" x="0px" y="0px" width="130px"
	 height="20px" viewBox="0 0 130 20" enable-background="new 0 0 130 20" xml:space="preserve">
<g id="Help">
</g>
<g id="Nav">
	<g>
		<path fill="#FFFFFF" d="M48.861,4.185v1.116h-7.848c-0.288,0.516-0.603,1.02-0.945,1.512c-0.342,0.492-0.705,0.978-1.089,1.458
			v7.326h-1.224V9.675c-0.24,0.276-0.489,0.534-0.747,0.774c-0.258,0.24-0.525,0.48-0.801,0.72l-0.81-1.044
			c0.828-0.732,1.593-1.503,2.295-2.313s1.329-1.647,1.881-2.511h-3.654V4.185h4.338c0.204-0.372,0.384-0.735,0.54-1.089
			c0.156-0.354,0.3-0.711,0.432-1.071l1.206,0.342c-0.108,0.312-0.228,0.618-0.36,0.918c-0.132,0.3-0.282,0.601-0.45,0.9H48.861z
			 M44.739,13.707h3.978v1.152h-9.18v-1.152h3.96v-3.87h-3.222V8.685h3.222v-2.43h1.242v2.43h3.204v1.152h-3.204V13.707z"/>
		<path fill="#FFFFFF" d="M55.958,13.689c-0.864,0.108-1.689,0.219-2.475,0.333s-1.611,0.249-2.475,0.405l-0.252-1.206
			c0.828-0.096,1.665-0.201,2.511-0.315c0.846-0.114,1.737-0.243,2.673-0.387L55.958,13.689z M52.502,7.461
			c-0.204,0.024-0.426,0.06-0.666,0.108s-0.48,0.114-0.72,0.198l-0.342-1.17c0.18-0.06,0.324-0.123,0.432-0.189
			c0.108-0.066,0.216-0.201,0.324-0.405c0.191-0.312,0.369-0.615,0.531-0.909c0.162-0.294,0.315-0.597,0.459-0.909
			s0.285-0.636,0.423-0.972c0.138-0.336,0.285-0.702,0.441-1.098l1.098,0.306c-0.168,0.408-0.33,0.783-0.486,1.125
			c-0.156,0.342-0.309,0.672-0.459,0.99c-0.15,0.318-0.303,0.627-0.459,0.927c-0.156,0.3-0.318,0.612-0.486,0.936l1.566-0.144
			c0.324-0.588,0.642-1.206,0.954-1.854l1.026,0.468c-0.276,0.516-0.531,0.99-0.765,1.422c-0.234,0.432-0.465,0.852-0.693,1.26
			c-0.228,0.408-0.468,0.816-0.72,1.224c-0.252,0.408-0.534,0.846-0.846,1.314l2.628-0.234l-0.018,1.116l-2.862,0.252
			c-0.24,0.024-0.465,0.063-0.675,0.117s-0.435,0.123-0.675,0.207l-0.378-1.278c0.24-0.084,0.429-0.162,0.567-0.234
			c0.138-0.072,0.272-0.209,0.405-0.414c0.276-0.372,0.528-0.741,0.756-1.107c0.228-0.366,0.462-0.741,0.702-1.125L52.502,7.461z
			 M64.347,12.969c-0.084,0.372-0.153,0.687-0.207,0.945c-0.054,0.258-0.129,0.507-0.225,0.747c-0.108,0.312-0.258,0.549-0.45,0.711
			c-0.192,0.162-0.402,0.264-0.63,0.306s-0.465,0.021-0.711-0.063c-0.246-0.084-0.477-0.228-0.693-0.432
			c-0.312-0.276-0.594-0.563-0.846-0.864c-0.252-0.3-0.486-0.648-0.702-1.044c-0.588,0.384-1.203,0.744-1.845,1.08
			c-0.642,0.336-1.347,0.66-2.115,0.972l-0.63-1.08c0.828-0.312,1.575-0.627,2.241-0.945c0.666-0.318,1.293-0.663,1.881-1.035
			c-0.168-0.384-0.315-0.807-0.441-1.269s-0.255-0.969-0.387-1.521l-2.34,0.36l-0.126-1.134l2.268-0.324
			c-0.036-0.24-0.069-0.507-0.099-0.801c-0.03-0.294-0.063-0.615-0.099-0.963l-1.764,0.27L56.3,5.805l1.836-0.252
			c-0.024-0.516-0.048-1.056-0.072-1.62c-0.024-0.563-0.042-1.164-0.054-1.8l1.098-0.018c0.024,0.66,0.045,1.257,0.063,1.791
			c0.018,0.534,0.039,1.023,0.063,1.467l4.158-0.594l0.126,1.062l-4.194,0.63c0.024,0.312,0.051,0.612,0.081,0.9
			c0.03,0.288,0.069,0.57,0.117,0.846l4.446-0.684l0.09,1.116l-4.32,0.648c0.096,0.456,0.195,0.87,0.297,1.242
			c0.102,0.372,0.219,0.714,0.351,1.026c0.384-0.3,0.762-0.615,1.134-0.945c0.372-0.33,0.75-0.699,1.134-1.107l0.918,0.756
			c-0.457,0.456-0.906,0.876-1.35,1.26c-0.444,0.384-0.894,0.744-1.35,1.08c0.312,0.564,0.696,1.05,1.152,1.458
			c0.444,0.42,0.75,0.336,0.918-0.252c0.048-0.168,0.09-0.342,0.126-0.522c0.036-0.18,0.084-0.432,0.144-0.756L64.347,12.969z
			 M62.223,4.797c-0.36-0.312-0.702-0.585-1.026-0.819c-0.324-0.234-0.678-0.489-1.062-0.765l0.648-0.792
			c0.18,0.132,0.354,0.258,0.522,0.378c0.168,0.12,0.335,0.24,0.504,0.36c0.168,0.12,0.339,0.246,0.513,0.378
			c0.173,0.132,0.363,0.276,0.567,0.432L62.223,4.797z"/>
		<path fill="#FFFFFF" d="M79.153,4.761h-3.762l0.684,0.164l-0.702,1.493h2.916v7.074c0,0.36-0.024,0.66-0.072,0.9
			c-0.048,0.24-0.135,0.436-0.261,0.585s-0.3,0.261-0.522,0.333c-0.222,0.072-0.501,0.114-0.837,0.126c-0.156,0-0.351,0-0.585,0
			s-0.483-0.012-0.747-0.036l-0.324-1.152c0.384,0.024,0.678,0.042,0.882,0.054c0.204,0.012,0.39,0.018,0.558,0.018
			c0.276-0.012,0.465-0.081,0.567-0.208s0.153-0.334,0.153-0.623v-3.214l-0.594,0.594c-0.24-0.228-0.48-0.446-0.72-0.656
			s-0.489-0.416-0.747-0.619c-0.258-0.203-0.534-0.409-0.828-0.618c-0.294-0.209-0.609-0.433-0.945-0.672l0.738-0.789
			c0.312,0.215,0.6,0.421,0.864,0.618c0.264,0.197,0.516,0.388,0.756,0.573c0.24,0.185,0.479,0.376,0.72,0.574
			c0.24,0.197,0.492,0.409,0.756,0.636V7.497h-8.982l0.018,2.557c0.613-0.421,1.151-0.83,1.614-1.226
			c0.463-0.396,0.886-0.833,1.27-1.314l0.882,0.648c-0.324,0.373-0.633,0.699-0.927,0.981c-0.294,0.282-0.603,0.555-0.927,0.819
			h5.378v3.888h-5.634v-3.668c-0.17,0.133-0.343,0.266-0.519,0.398c-0.176,0.132-0.367,0.264-0.573,0.396l-0.583-0.666v5.25h-1.152
			V6.417h2.991c-0.097-0.218-0.202-0.437-0.316-0.655c-0.114-0.218-0.255-0.473-0.423-0.764l0.684-0.237h-3.78v-1.08h6.082
			c-0.096-0.216-0.201-0.423-0.315-0.621c-0.114-0.198-0.237-0.417-0.369-0.657l1.134-0.396c0.168,0.288,0.321,0.564,0.459,0.828
			c0.138,0.264,0.285,0.546,0.441,0.846h5.598V4.761z M74.133,6.417c0.179-0.315,0.323-0.591,0.431-0.828
			c0.107-0.236,0.228-0.513,0.359-0.828h-4.582c0.167,0.304,0.32,0.577,0.458,0.819s0.296,0.521,0.476,0.837H74.133z M70.945,12.771
			h3.366v-1.728h-3.366V12.771z"/>
		<path fill="#FFFFFF" d="M94.041,3.609v1.08H83.403v4.356c0,0.696-0.027,1.341-0.081,1.935c-0.054,0.594-0.144,1.155-0.27,1.683
			c-0.126,0.528-0.288,1.039-0.486,1.53c-0.198,0.492-0.441,0.978-0.729,1.458l-1.152-0.612c0.264-0.468,0.492-0.918,0.684-1.35
			c0.192-0.432,0.351-0.885,0.477-1.359s0.216-0.987,0.27-1.539c0.054-0.552,0.081-1.182,0.081-1.89V3.609h5.526
			c-0.096-0.204-0.186-0.402-0.27-0.594c-0.084-0.191-0.192-0.396-0.324-0.612l1.17-0.324c0.132,0.252,0.261,0.507,0.387,0.765
			c0.126,0.258,0.255,0.513,0.387,0.765H94.041z M88.911,6.723h4.788v1.08h-4.788v1.818h4.104v5.958h-1.188v-0.954h-6.228v1.008
			h-1.188V9.621h3.294V5.085h1.206V6.723z M91.827,10.701h-6.228v2.844h6.228V10.701z"/>
	</g>
	<g>
	</g>
	<g>
	</g>
	<g>
	</g>
	<g>
	</g>
	<g>
	</g>
	<g>
	</g>
	<g>
	</g>
	<g>
	</g>
	<g>
	</g>
	<g>
	</g>
	<g>
	</g>
	<g>
	</g>
	<g>
	</g>
	<g>
	</g>
	<g>
	</g>
</g>
</svg>
