<?xml version="1.0" encoding="utf-8"?>
<!-- Generator: Adobe Illustrator 16.0.1, SVG Export Plug-In . SVG Version: 6.00 Build 0)  -->
<!DOCTYPE svg PUBLIC "-//W3C//DTD SVG 1.1//EN" "http://www.w3.org/Graphics/SVG/1.1/DTD/svg11.dtd">
<svg version="1.1" xmlns="http://www.w3.org/2000/svg" xmlns:xlink="http://www.w3.org/1999/xlink" x="0px" y="0px" width="130px"
	 height="20px" viewBox="0 0 130 20" enable-background="new 0 0 130 20" xml:space="preserve">
<g id="Help">
</g>
<g id="Nav">
	<g>
		<path fill="#FFFFFF" d="M31.627,6.435c0,1.068-0.312,1.926-0.936,2.574c-0.84,0.888-2.058,1.332-3.654,1.332
			c-0.54,0-0.948-0.036-1.224-0.108v4.878h-1.548V3.123c0.888-0.156,1.872-0.234,2.952-0.234c1.488,0,2.604,0.331,3.348,0.99
			C31.273,4.515,31.627,5.367,31.627,6.435z M30.061,6.507c0-0.768-0.252-1.359-0.756-1.773s-1.188-0.621-2.052-0.621
			c-0.588,0-1.068,0.042-1.44,0.126v4.734c0.3,0.084,0.714,0.126,1.242,0.126c0.948,0,1.686-0.225,2.214-0.675
			C29.797,7.974,30.061,7.335,30.061,6.507z"/>
		<path fill="#FFFFFF" d="M39.793,15.111h-1.422l-0.144-1.08h-0.036c-0.6,0.84-1.47,1.26-2.61,1.26
			c-0.816,0-1.464-0.252-1.944-0.756c-0.444-0.468-0.666-1.044-0.666-1.728c0-1.056,0.444-1.863,1.332-2.421
			s2.154-0.831,3.798-0.819v-0.18c0-1.344-0.648-2.016-1.944-2.016c-0.84,0-1.578,0.21-2.214,0.63l-0.36-1.044
			c0.768-0.492,1.71-0.738,2.826-0.738c2.16,0,3.24,1.176,3.24,3.528v3.294C39.649,13.893,39.697,14.583,39.793,15.111z
			 M38.119,12.195v-1.53c-2.388-0.048-3.582,0.606-3.582,1.962c0,0.492,0.138,0.867,0.414,1.125
			c0.276,0.258,0.624,0.387,1.044,0.387c0.516,0,0.966-0.15,1.35-0.45c0.336-0.264,0.57-0.594,0.702-0.99
			C38.095,12.543,38.119,12.375,38.119,12.195z"/>
		<path fill="#FFFFFF" d="M43.903,15.111h-1.566V2.349h1.566V15.111z"/>
		<path fill="#FFFFFF" d="M52.842,15.111h-1.422l-0.144-1.08H51.24c-0.6,0.84-1.47,1.26-2.61,1.26c-0.816,0-1.464-0.252-1.944-0.756
			c-0.444-0.468-0.666-1.044-0.666-1.728c0-1.056,0.444-1.863,1.332-2.421s2.154-0.831,3.798-0.819v-0.18
			c0-1.344-0.648-2.016-1.944-2.016c-0.84,0-1.578,0.21-2.214,0.63l-0.36-1.044c0.768-0.492,1.71-0.738,2.826-0.738
			c2.16,0,3.24,1.176,3.24,3.528v3.294C52.698,13.893,52.746,14.583,52.842,15.111z M51.167,12.195v-1.53
			c-2.388-0.048-3.582,0.606-3.582,1.962c0,0.492,0.138,0.867,0.414,1.125c0.276,0.258,0.624,0.387,1.044,0.387
			c0.516,0,0.966-0.15,1.35-0.45c0.336-0.264,0.57-0.594,0.702-0.99C51.144,12.543,51.167,12.375,51.167,12.195z"/>
		<path fill="#FFFFFF" d="M57.153,3.789c0,0.3-0.096,0.543-0.288,0.729s-0.438,0.279-0.738,0.279c-0.288,0-0.525-0.096-0.711-0.288
			c-0.186-0.192-0.279-0.432-0.279-0.72c0-0.288,0.096-0.528,0.288-0.72c0.192-0.192,0.432-0.288,0.72-0.288
			c0.3,0,0.543,0.093,0.729,0.279S57.153,3.489,57.153,3.789z M56.937,15.111h-1.566V6.399h1.566V15.111z"/>
		<path fill="#FFFFFF" d="M66.86,15.111h-1.908l-2.916-4.176l-0.792,0.9v3.276h-1.548V2.349h1.548v8.046h0.036
			c0.252-0.36,0.498-0.69,0.738-0.99l2.52-3.006h1.872l-3.294,3.6L66.86,15.111z"/>
		<path fill="#FFFFFF" d="M75.68,6.399l-2.304,6.174c-0.588,1.548-1.08,2.7-1.476,3.456c-0.457,0.864-0.942,1.53-1.458,1.998
			c-0.624,0.564-1.26,0.906-1.908,1.026l-0.414-1.314c0.492-0.156,0.954-0.42,1.386-0.792c0.54-0.456,0.966-1.038,1.278-1.746
			c0.084-0.168,0.126-0.288,0.126-0.36c0-0.084-0.036-0.222-0.108-0.414L67.67,6.399h1.692l1.854,5.148
			c0.18,0.48,0.36,1.068,0.54,1.764h0.054c0.108-0.384,0.288-0.984,0.54-1.8l1.674-5.112H75.68z"/>
		<path fill="#FFFFFF" d="M89.669,15.111h-1.53v-4.95c0-1.775-0.618-2.664-1.854-2.664c-0.564,0-1.032,0.222-1.404,0.666
			c-0.372,0.444-0.558,0.96-0.558,1.548v5.4h-1.53V9.855c0-0.708-0.153-1.278-0.459-1.71c-0.306-0.432-0.741-0.648-1.305-0.648
			c-0.588,0-1.086,0.252-1.494,0.756c-0.372,0.456-0.558,0.984-0.558,1.584v5.274h-1.53V8.757c0-0.72-0.024-1.506-0.072-2.358h1.368
			l0.072,1.386h0.054c0.612-1.044,1.506-1.566,2.682-1.566c0.576,0,1.077,0.156,1.503,0.468s0.729,0.726,0.909,1.242H84
			c0.264-0.456,0.594-0.828,0.99-1.116c0.528-0.396,1.146-0.594,1.854-0.594c0.732,0,1.35,0.246,1.854,0.738
			c0.648,0.648,0.972,1.644,0.972,2.988V15.111z"/>
		<path fill="#FFFFFF" d="M98.52,15.111h-1.422l-0.144-1.08h-0.036c-0.6,0.84-1.47,1.26-2.61,1.26c-0.816,0-1.464-0.252-1.944-0.756
			c-0.444-0.468-0.666-1.044-0.666-1.728c0-1.056,0.444-1.863,1.332-2.421s2.154-0.831,3.798-0.819v-0.18
			c0-1.344-0.648-2.016-1.944-2.016c-0.84,0-1.578,0.21-2.214,0.63l-0.36-1.044c0.768-0.492,1.71-0.738,2.826-0.738
			c2.16,0,3.24,1.176,3.24,3.528v3.294C98.376,13.893,98.424,14.583,98.52,15.111z M96.846,12.195v-1.53
			c-2.388-0.048-3.582,0.606-3.582,1.962c0,0.492,0.138,0.867,0.414,1.125c0.276,0.258,0.624,0.387,1.044,0.387
			c0.516,0,0.966-0.15,1.35-0.45c0.336-0.264,0.57-0.594,0.702-0.99C96.822,12.543,96.846,12.375,96.846,12.195z"/>
		<path fill="#FFFFFF" d="M106.018,12.681c0,0.78-0.288,1.407-0.864,1.881s-1.362,0.711-2.358,0.711
			c-0.924,0-1.722-0.192-2.394-0.576l0.378-1.188c0.648,0.408,1.332,0.612,2.052,0.612c1.116,0,1.674-0.432,1.674-1.296
			c0-0.372-0.12-0.678-0.36-0.918c-0.24-0.24-0.648-0.468-1.224-0.684c-1.524-0.576-2.286-1.397-2.286-2.466
			c0-0.72,0.273-1.323,0.819-1.809c0.546-0.486,1.263-0.729,2.151-0.729c0.828,0,1.53,0.174,2.106,0.522l-0.396,1.152
			c-0.528-0.336-1.11-0.504-1.746-0.504c-0.444,0-0.792,0.111-1.044,0.333c-0.252,0.222-0.378,0.507-0.378,0.855
			c0,0.336,0.132,0.612,0.396,0.828c0.216,0.204,0.624,0.42,1.224,0.648C105.268,10.641,106.018,11.517,106.018,12.681z"/>
	</g>
	<g>
	</g>
	<g>
	</g>
	<g>
	</g>
	<g>
	</g>
	<g>
	</g>
	<g>
	</g>
	<g>
	</g>
	<g>
	</g>
	<g>
	</g>
	<g>
	</g>
	<g>
	</g>
	<g>
	</g>
	<g>
	</g>
	<g>
	</g>
	<g>
	</g>
</g>
</svg>
