<?xml version="1.0" encoding="utf-8"?>
<!-- Generator: Adobe Illustrator 16.0.1, SVG Export Plug-In . SVG Version: 6.00 Build 0)  -->
<!DOCTYPE svg PUBLIC "-//W3C//DTD SVG 1.1//EN" "http://www.w3.org/Graphics/SVG/1.1/DTD/svg11.dtd">
<svg version="1.1" xmlns="http://www.w3.org/2000/svg" xmlns:xlink="http://www.w3.org/1999/xlink" x="0px" y="0px" width="130px"
	 height="20px" viewBox="0 0 130 20" enable-background="new 0 0 130 20" xml:space="preserve">
<g id="Help">
</g>
<g id="Nav">
	<g>
		<path fill="#FFFFFF" d="M36.88,15.111h-1.836l-3.888-5.94l-1.134,1.314v4.626h-1.548V2.979h1.548v5.85h0.054
			c0.312-0.479,0.624-0.918,0.936-1.314l3.618-4.536h1.908l-4.284,5.166L36.88,15.111z"/>
		<path fill="#FFFFFF" d="M45.172,15.111h-1.386l-0.09-1.386h-0.054c-0.6,1.044-1.536,1.566-2.808,1.566
			c-0.816,0-1.476-0.252-1.98-0.756c-0.636-0.648-0.954-1.649-0.954-3.006v-5.13h1.566v4.842c0,1.848,0.63,2.772,1.89,2.772
			c0.479,0,0.918-0.156,1.314-0.468c0.335-0.264,0.576-0.588,0.72-0.972c0.096-0.24,0.144-0.51,0.144-0.81V6.399H45.1v6.336
			C45.1,13.515,45.124,14.307,45.172,15.111z"/>
		<path fill="#FFFFFF" d="M52.104,7.731c-0.156-0.024-0.336-0.036-0.54-0.036c-0.708,0-1.254,0.294-1.638,0.882
			c-0.349,0.516-0.522,1.14-0.522,1.872v4.662h-1.548v-6.03c0-0.936-0.024-1.83-0.072-2.682h1.386l0.072,1.692h0.054
			c0.192-0.576,0.507-1.032,0.945-1.368c0.438-0.335,0.915-0.504,1.431-0.504c0.168,0,0.312,0.012,0.432,0.036V7.731z"/>
		<path fill="#FFFFFF" d="M60.24,15.111h-0.522c-0.072,0.096-0.15,0.21-0.234,0.342c-0.084,0.132-0.168,0.276-0.252,0.432
			c-0.084,0.156-0.153,0.321-0.207,0.495c-0.054,0.174-0.081,0.339-0.081,0.495c0,0.312,0.087,0.546,0.261,0.702
			c0.174,0.156,0.393,0.234,0.657,0.234c0.18,0,0.336-0.016,0.468-0.045c0.132-0.03,0.252-0.069,0.36-0.117l0.234,0.81
			c-0.192,0.144-0.42,0.249-0.684,0.315c-0.264,0.066-0.516,0.099-0.756,0.099c-0.504,0-0.906-0.132-1.206-0.396
			c-0.3-0.264-0.45-0.648-0.45-1.152c0-0.444,0.099-0.864,0.297-1.26c0.198-0.396,0.381-0.714,0.549-0.954V6.399h1.566V15.111z
			 M60.456,3.789c0,0.3-0.096,0.543-0.288,0.729S59.73,4.797,59.43,4.797c-0.288,0-0.525-0.096-0.711-0.288
			c-0.186-0.192-0.279-0.432-0.279-0.72c0-0.288,0.096-0.528,0.288-0.72c0.192-0.192,0.432-0.288,0.72-0.288
			c0.3,0,0.543,0.093,0.729,0.279S60.456,3.489,60.456,3.789z"/>
		<path fill="#FFFFFF" d="M67.859,12.681c0,0.78-0.288,1.407-0.864,1.881s-1.362,0.711-2.358,0.711
			c-0.924,0-1.722-0.192-2.394-0.576l0.378-1.188c0.648,0.408,1.332,0.612,2.052,0.612c1.116,0,1.674-0.432,1.674-1.296
			c0-0.372-0.12-0.678-0.36-0.918c-0.24-0.24-0.648-0.468-1.224-0.684c-1.524-0.576-2.286-1.397-2.286-2.466
			c0-0.72,0.273-1.323,0.819-1.809c0.546-0.486,1.263-0.729,2.151-0.729c0.828,0,1.53,0.174,2.106,0.522l-0.396,1.152
			c-0.528-0.336-1.11-0.504-1.746-0.504c-0.444,0-0.792,0.111-1.044,0.333c-0.252,0.222-0.378,0.507-0.378,0.855
			c0,0.336,0.132,0.612,0.396,0.828c0.216,0.204,0.624,0.42,1.224,0.648C67.109,10.641,67.859,11.517,67.859,12.681z"/>
		<path fill="#FFFFFF" d="M71.734,3.789c0,0.3-0.096,0.543-0.288,0.729s-0.438,0.279-0.738,0.279c-0.288,0-0.525-0.096-0.711-0.288
			c-0.186-0.192-0.279-0.432-0.279-0.72c0-0.288,0.096-0.528,0.288-0.72c0.192-0.192,0.432-0.288,0.72-0.288
			c0.3,0,0.543,0.093,0.729,0.279S71.734,3.489,71.734,3.789z M71.518,15.111h-1.566V6.399h1.566V15.111z"/>
		<path fill="#FFFFFF" d="M81.676,6.399c-0.048,0.708-0.072,1.512-0.072,2.412v5.04c0,1.884-0.408,3.204-1.224,3.96
			c-0.744,0.684-1.782,1.026-3.114,1.026c-1.188,0-2.13-0.228-2.826-0.684l0.378-1.224c0.732,0.456,1.566,0.684,2.502,0.684
			c1.824,0,2.736-1.002,2.736-3.006v-0.972H80.02c-0.552,0.96-1.446,1.44-2.682,1.44c-1.056,0-1.926-0.405-2.61-1.215
			s-1.026-1.821-1.026-3.033c0-1.416,0.396-2.556,1.188-3.42c0.732-0.792,1.62-1.188,2.664-1.188c1.236,0,2.112,0.492,2.628,1.476
			h0.036l0.072-1.296H81.676z M80.038,11.439V9.801c0-0.288-0.024-0.522-0.072-0.702c-0.349-1.104-1.068-1.656-2.16-1.656
			c-0.756,0-1.368,0.3-1.836,0.9c-0.468,0.6-0.702,1.398-0.702,2.394c0,0.912,0.216,1.65,0.648,2.214
			c0.456,0.624,1.08,0.936,1.872,0.936c0.48,0,0.915-0.144,1.305-0.432c0.39-0.288,0.668-0.684,0.837-1.188
			C80.001,12.027,80.038,11.751,80.038,11.439z"/>
		<path fill="#FFFFFF" d="M91.408,6.399l-2.304,6.174c-0.588,1.548-1.08,2.7-1.476,3.456c-0.457,0.864-0.942,1.53-1.458,1.998
			c-0.624,0.564-1.26,0.906-1.908,1.026l-0.414-1.314c0.492-0.156,0.954-0.42,1.386-0.792c0.54-0.456,0.966-1.038,1.278-1.746
			c0.084-0.168,0.126-0.288,0.126-0.36c0-0.084-0.036-0.222-0.108-0.414l-3.132-8.028h1.692l1.854,5.148
			c0.18,0.48,0.36,1.068,0.54,1.764h0.054c0.108-0.384,0.288-0.984,0.54-1.8l1.674-5.112H91.408z"/>
		<path fill="#FFFFFF" d="M97.76,7.587h-2.232v4.734c0,1.116,0.39,1.674,1.17,1.674c0.348,0,0.648-0.036,0.9-0.108l0.072,1.188
			c-0.36,0.132-0.822,0.198-1.386,0.198c-0.732,0-1.299-0.219-1.701-0.657c-0.402-0.438-0.603-1.185-0.603-2.241V7.587h-1.332V6.399
			h1.332V4.797l1.548-0.468v2.07h2.232V7.587z"/>
		<path fill="#FFFFFF" d="M101.432,3.789c0,0.3-0.096,0.543-0.288,0.729s-0.438,0.279-0.738,0.279c-0.288,0-0.525-0.096-0.711-0.288
			c-0.186-0.192-0.279-0.432-0.279-0.72c0-0.288,0.096-0.528,0.288-0.72c0.192-0.192,0.432-0.288,0.72-0.288
			c0.3,0,0.543,0.093,0.729,0.279S101.432,3.489,101.432,3.789z M101.216,15.111H99.65V6.399h1.566V15.111z"/>
	</g>
	<g>
	</g>
	<g>
	</g>
	<g>
	</g>
	<g>
	</g>
	<g>
	</g>
	<g>
	</g>
	<g>
	</g>
	<g>
	</g>
	<g>
	</g>
	<g>
	</g>
	<g>
	</g>
	<g>
	</g>
	<g>
	</g>
	<g>
	</g>
	<g>
	</g>
</g>
</svg>
