<?xml version="1.0" encoding="utf-8"?>
<!-- Generator: Adobe Illustrator 16.0.1, SVG Export Plug-In . SVG Version: 6.00 Build 0)  -->
<!DOCTYPE svg PUBLIC "-//W3C//DTD SVG 1.1//EN" "http://www.w3.org/Graphics/SVG/1.1/DTD/svg11.dtd">
<svg version="1.1" xmlns="http://www.w3.org/2000/svg" xmlns:xlink="http://www.w3.org/1999/xlink" x="0px" y="0px" width="130px"
	 height="20px" viewBox="0 0 130 20" enable-background="new 0 0 130 20" xml:space="preserve">
<g id="Help">
</g>
<g id="Nav">
	<g>
		<path fill="#FFFFFF" d="M34.327,8.919c0,1.812-0.45,3.3-1.35,4.464c-0.984,1.272-2.364,1.908-4.14,1.908
			c-1.668,0-2.988-0.618-3.96-1.854c-0.9-1.128-1.35-2.562-1.35-4.302c0-1.764,0.462-3.234,1.386-4.41
			c1.008-1.296,2.376-1.944,4.104-1.944c1.68,0,3.006,0.618,3.978,1.854C33.882,5.775,34.327,7.203,34.327,8.919z M32.67,8.991
			c0-1.296-0.294-2.4-0.882-3.312c-0.708-1.08-1.662-1.62-2.862-1.62c-1.248,0-2.214,0.552-2.898,1.656
			c-0.588,0.912-0.882,2.04-0.882,3.384c0,1.284,0.3,2.388,0.9,3.312c0.696,1.08,1.65,1.62,2.862,1.62
			c1.248,0,2.214-0.552,2.898-1.656C32.382,11.439,32.67,10.311,32.67,8.991z"/>
		<path fill="#FFFFFF" d="M42.446,15.111l-0.09-1.386h-0.054c-0.6,1.044-1.536,1.566-2.808,1.566c-0.936,0-1.659-0.327-2.169-0.981
			c-0.51-0.654-0.765-1.581-0.765-2.781v-5.13h1.566v4.842c0,1.848,0.63,2.772,1.89,2.772c0.456,0,0.894-0.156,1.314-0.468
			c0.335-0.264,0.576-0.588,0.72-0.972c0.096-0.264,0.144-0.534,0.144-0.81V6.399h1.566v6.336c0,0.384,0.006,0.774,0.018,1.17
			c0.012,0.396,0.03,0.798,0.054,1.206H42.446z M41.15,5.337h-1.116l-2.16-2.574h1.71L41.15,5.337z"/>
		<path fill="#FFFFFF" d="M56.09,15.111l-0.144-1.08H55.91c-0.588,0.84-1.458,1.26-2.61,1.26c-0.816,0-1.464-0.252-1.944-0.756
			c-0.444-0.456-0.666-1.032-0.666-1.728c0-1.056,0.441-1.863,1.323-2.421c0.882-0.558,2.151-0.831,3.807-0.819v-0.18
			c0-1.344-0.648-2.016-1.944-2.016c-0.84,0-1.578,0.21-2.214,0.63l-0.36-1.044c0.78-0.492,1.722-0.738,2.826-0.738
			c2.16,0,3.24,1.176,3.24,3.528v3.294c0,0.828,0.048,1.518,0.144,2.07H56.09z M55.838,10.665c-2.388-0.048-3.582,0.606-3.582,1.962
			c0,0.504,0.138,0.882,0.414,1.134s0.624,0.378,1.044,0.378c0.528,0,0.978-0.15,1.35-0.45c0.348-0.276,0.582-0.606,0.702-0.99
			c0.048-0.144,0.072-0.312,0.072-0.504V10.665z"/>
		<path fill="#FFFFFF" d="M65.86,7.875c-0.516-0.276-1.11-0.414-1.782-0.414c-0.948,0-1.692,0.33-2.232,0.99
			c-0.516,0.588-0.774,1.362-0.774,2.322c0,0.492,0.072,0.939,0.216,1.341c0.144,0.402,0.348,0.744,0.612,1.026
			c0.264,0.282,0.579,0.501,0.945,0.657c0.366,0.156,0.765,0.234,1.197,0.234c0.6,0,1.224-0.138,1.872-0.414l0.252,1.188
			c-0.684,0.312-1.488,0.468-2.412,0.468c-1.308,0-2.346-0.402-3.114-1.206c-0.768-0.804-1.152-1.878-1.152-3.222
			c0-1.368,0.42-2.478,1.26-3.33c0.84-0.864,1.95-1.296,3.33-1.296c0.864,0,1.572,0.15,2.124,0.45L65.86,7.875z"/>
		<path fill="#FFFFFF" d="M75.375,15.111h-1.566v-5.058c0-1.692-0.654-2.538-1.962-2.538c-0.48,0-0.909,0.147-1.287,0.441
			s-0.645,0.669-0.801,1.125c-0.061,0.216-0.09,0.462-0.09,0.738v5.292h-1.566V2.349h1.566v5.382h0.036
			c0.276-0.468,0.657-0.837,1.143-1.107s1.005-0.405,1.557-0.405c0.768,0,1.41,0.24,1.926,0.72c0.696,0.648,1.044,1.632,1.044,2.952
			V15.111z"/>
		<path fill="#FFFFFF" d="M85.046,10.251c0,0.324-0.018,0.582-0.054,0.774h-5.976c0.012,1.02,0.312,1.794,0.9,2.322
			c0.504,0.468,1.182,0.702,2.034,0.702s1.632-0.144,2.34-0.432l0.27,1.116c-0.792,0.348-1.74,0.522-2.844,0.522
			c-0.648,0-1.23-0.102-1.746-0.306c-0.516-0.204-0.957-0.498-1.323-0.882c-0.366-0.384-0.646-0.843-0.837-1.377
			c-0.192-0.534-0.288-1.137-0.288-1.809c0-1.344,0.36-2.46,1.08-3.348c0.744-0.888,1.722-1.332,2.934-1.332
			c1.235,0,2.166,0.474,2.79,1.422C84.806,8.355,85.046,9.231,85.046,10.251z M83.534,9.891c0.012-0.66-0.126-1.218-0.414-1.674
			c-0.373-0.588-0.942-0.882-1.71-0.882c-0.72,0-1.296,0.288-1.728,0.864c-0.349,0.468-0.564,1.032-0.648,1.692H83.534z"/>
		<path fill="#FFFFFF" d="M91.375,7.587h-2.232v4.734c0,1.116,0.39,1.674,1.17,1.674c0.348,0,0.648-0.036,0.9-0.108l0.072,1.188
			c-0.372,0.132-0.834,0.198-1.386,0.198c-0.732,0-1.299-0.219-1.701-0.657c-0.402-0.438-0.603-1.185-0.603-2.241V7.587h-1.332
			V6.399h1.332V4.797l1.548-0.468v2.07h2.232V7.587z"/>
		<path fill="#FFFFFF" d="M100.087,10.251c0,0.324-0.018,0.582-0.054,0.774h-5.976c0.012,1.02,0.312,1.794,0.9,2.322
			c0.504,0.468,1.182,0.702,2.034,0.702s1.632-0.144,2.34-0.432l0.27,1.116c-0.792,0.348-1.74,0.522-2.844,0.522
			c-0.648,0-1.23-0.102-1.746-0.306c-0.516-0.204-0.957-0.498-1.323-0.882c-0.366-0.384-0.646-0.843-0.837-1.377
			c-0.192-0.534-0.288-1.137-0.288-1.809c0-1.344,0.36-2.46,1.08-3.348c0.744-0.888,1.722-1.332,2.934-1.332
			c1.235,0,2.166,0.474,2.79,1.422C99.847,8.355,100.087,9.231,100.087,10.251z M98.575,9.891c0.012-0.66-0.126-1.218-0.414-1.674
			c-0.373-0.588-0.942-0.882-1.71-0.882c-0.72,0-1.296,0.288-1.728,0.864c-0.349,0.468-0.564,1.032-0.648,1.692H98.575z"/>
		<path fill="#FFFFFF" d="M106.505,7.731c-0.084-0.012-0.171-0.021-0.261-0.027c-0.09-0.006-0.183-0.009-0.279-0.009
			c-0.72,0-1.266,0.294-1.638,0.882c-0.349,0.528-0.522,1.152-0.522,1.872v4.662h-1.548v-6.03c0-0.468-0.006-0.927-0.018-1.377
			c-0.012-0.45-0.03-0.885-0.054-1.305h1.386l0.072,1.692h0.054c0.192-0.576,0.507-1.032,0.945-1.368
			c0.438-0.335,0.915-0.504,1.431-0.504c0.084,0,0.162,0.003,0.234,0.009c0.072,0.006,0.138,0.015,0.198,0.027V7.731z"/>
	</g>
	<g>
	</g>
	<g>
	</g>
	<g>
	</g>
	<g>
	</g>
	<g>
	</g>
	<g>
	</g>
	<g>
	</g>
	<g>
	</g>
	<g>
	</g>
	<g>
	</g>
	<g>
	</g>
	<g>
	</g>
	<g>
	</g>
	<g>
	</g>
	<g>
	</g>
</g>
</svg>
