<?xml version="1.0" encoding="utf-8"?>
<!-- Generator: Adobe Illustrator 16.0.1, SVG Export Plug-In . SVG Version: 6.00 Build 0)  -->
<!DOCTYPE svg PUBLIC "-//W3C//DTD SVG 1.1//EN" "http://www.w3.org/Graphics/SVG/1.1/DTD/svg11.dtd">
<svg version="1.1" xmlns="http://www.w3.org/2000/svg" xmlns:xlink="http://www.w3.org/1999/xlink" x="0px" y="0px" width="130px"
	 height="20px" viewBox="0 0 130 20" enable-background="new 0 0 130 20" xml:space="preserve">
<g id="Help">
</g>
<g id="Nav">
	<g>
		<path fill="#FFFFFF" d="M35.846,15.111H34.19l-1.26-3.798h-4.194l-1.224,3.798H25.91l4.032-12.132h1.872L35.846,15.111z
			 M32.624,10.089l-1.17-3.456c-0.061-0.204-0.144-0.495-0.252-0.873c-0.108-0.378-0.229-0.837-0.36-1.377h-0.036l-0.594,2.232
			l-1.17,3.474H32.624z"/>
		<path fill="#FFFFFF" d="M42.974,12.681c0,0.792-0.285,1.422-0.855,1.89c-0.57,0.468-1.359,0.702-2.367,0.702
			c-0.924,0-1.722-0.192-2.394-0.576l0.378-1.188c0.636,0.408,1.32,0.612,2.052,0.612c1.116,0,1.674-0.432,1.674-1.296
			c0-0.372-0.12-0.678-0.36-0.918c-0.24-0.24-0.648-0.468-1.224-0.684c-1.524-0.576-2.286-1.397-2.286-2.466
			c0-0.708,0.27-1.308,0.81-1.8c0.564-0.492,1.284-0.738,2.16-0.738c0.816,0,1.518,0.174,2.106,0.522l-0.396,1.152
			c-0.516-0.336-1.098-0.504-1.746-0.504c-0.444,0-0.792,0.111-1.044,0.333c-0.252,0.222-0.378,0.507-0.378,0.855
			c0,0.336,0.132,0.612,0.396,0.828c0.216,0.192,0.624,0.408,1.224,0.648C42.224,10.653,42.974,11.529,42.974,12.681z"/>
		<path fill="#FFFFFF" d="M50.112,12.681c0,0.792-0.285,1.422-0.855,1.89c-0.57,0.468-1.359,0.702-2.367,0.702
			c-0.924,0-1.722-0.192-2.394-0.576l0.378-1.188c0.636,0.408,1.32,0.612,2.052,0.612c1.116,0,1.674-0.432,1.674-1.296
			c0-0.372-0.12-0.678-0.36-0.918c-0.24-0.24-0.648-0.468-1.224-0.684c-1.524-0.576-2.286-1.397-2.286-2.466
			c0-0.708,0.27-1.308,0.81-1.8c0.564-0.492,1.284-0.738,2.16-0.738c0.816,0,1.518,0.174,2.106,0.522l-0.396,1.152
			c-0.516-0.336-1.098-0.504-1.746-0.504c-0.444,0-0.792,0.111-1.044,0.333c-0.252,0.222-0.378,0.507-0.378,0.855
			c0,0.336,0.132,0.612,0.396,0.828c0.216,0.192,0.624,0.408,1.224,0.648C49.362,10.653,50.112,11.529,50.112,12.681z"/>
		<path fill="#FFFFFF" d="M53.988,3.789c0,0.3-0.096,0.543-0.288,0.729s-0.438,0.279-0.738,0.279c-0.288,0-0.525-0.096-0.711-0.288
			c-0.186-0.192-0.279-0.432-0.279-0.72c0-0.288,0.096-0.528,0.288-0.72c0.192-0.192,0.432-0.288,0.72-0.288
			c0.3,0,0.543,0.093,0.729,0.279S53.988,3.489,53.988,3.789z M53.771,15.111h-1.566V6.399h1.566V15.111z"/>
		<path fill="#FFFFFF" d="M61.454,12.681c0,0.792-0.285,1.422-0.855,1.89c-0.57,0.468-1.359,0.702-2.367,0.702
			c-0.924,0-1.722-0.192-2.394-0.576l0.378-1.188c0.636,0.408,1.32,0.612,2.052,0.612c1.116,0,1.674-0.432,1.674-1.296
			c0-0.372-0.12-0.678-0.36-0.918c-0.24-0.24-0.648-0.468-1.224-0.684c-1.524-0.576-2.286-1.397-2.286-2.466
			c0-0.708,0.27-1.308,0.81-1.8c0.564-0.492,1.284-0.738,2.16-0.738c0.816,0,1.518,0.174,2.106,0.522l-0.396,1.152
			c-0.516-0.336-1.098-0.504-1.746-0.504c-0.444,0-0.792,0.111-1.044,0.333c-0.252,0.222-0.378,0.507-0.378,0.855
			c0,0.336,0.132,0.612,0.396,0.828c0.216,0.192,0.624,0.408,1.224,0.648C60.704,10.653,61.454,11.529,61.454,12.681z"/>
		<path fill="#FFFFFF" d="M67.928,7.587h-2.232v4.734c0,1.116,0.39,1.674,1.17,1.674c0.348,0,0.648-0.036,0.9-0.108l0.072,1.188
			c-0.372,0.132-0.834,0.198-1.386,0.198c-0.732,0-1.299-0.219-1.701-0.657c-0.402-0.438-0.603-1.185-0.603-2.241V7.587h-1.332
			V6.399h1.332V4.797l1.548-0.468v2.07h2.232V7.587z"/>
		<path fill="#FFFFFF" d="M74.745,15.111l-0.144-1.08h-0.036c-0.588,0.84-1.458,1.26-2.61,1.26c-0.816,0-1.464-0.252-1.944-0.756
			c-0.444-0.456-0.666-1.032-0.666-1.728c0-1.056,0.441-1.863,1.323-2.421c0.882-0.558,2.151-0.831,3.807-0.819v-0.18
			c0-1.344-0.648-2.016-1.944-2.016c-0.84,0-1.578,0.21-2.214,0.63l-0.36-1.044c0.78-0.492,1.722-0.738,2.826-0.738
			c2.16,0,3.24,1.176,3.24,3.528v3.294c0,0.828,0.048,1.518,0.144,2.07H74.745z M74.493,10.665
			c-2.388-0.048-3.582,0.606-3.582,1.962c0,0.504,0.138,0.882,0.414,1.134s0.624,0.378,1.044,0.378c0.528,0,0.978-0.15,1.35-0.45
			c0.348-0.276,0.582-0.606,0.702-0.99c0.048-0.144,0.072-0.312,0.072-0.504V10.665z"/>
		<path fill="#FFFFFF" d="M85.964,15.111h-1.566v-5.058c0-1.704-0.654-2.556-1.962-2.556c-0.636,0-1.158,0.24-1.566,0.72
			c-0.408,0.456-0.612,1.002-0.612,1.638v5.256h-1.566V8.757c0-0.36-0.006-0.738-0.018-1.134c-0.012-0.396-0.03-0.804-0.054-1.224
			h1.386l0.09,1.404h0.036c0.228-0.432,0.576-0.798,1.044-1.098c0.516-0.324,1.11-0.486,1.782-0.486c0.78,0,1.428,0.24,1.944,0.72
			c0.708,0.648,1.062,1.626,1.062,2.934V15.111z"/>
		<path fill="#FFFFFF" d="M94.484,7.875c-0.516-0.276-1.11-0.414-1.782-0.414c-0.948,0-1.692,0.33-2.232,0.99
			c-0.516,0.588-0.774,1.362-0.774,2.322c0,0.492,0.072,0.939,0.216,1.341c0.144,0.402,0.348,0.744,0.612,1.026
			c0.264,0.282,0.579,0.501,0.945,0.657c0.366,0.156,0.765,0.234,1.197,0.234c0.6,0,1.224-0.138,1.872-0.414l0.252,1.188
			c-0.684,0.312-1.488,0.468-2.412,0.468c-1.308,0-2.346-0.402-3.114-1.206c-0.768-0.804-1.152-1.878-1.152-3.222
			c0-1.368,0.42-2.478,1.26-3.33c0.84-0.864,1.95-1.296,3.33-1.296c0.864,0,1.572,0.15,2.124,0.45L94.484,7.875z"/>
		<path fill="#FFFFFF" d="M103.528,10.251c0,0.324-0.018,0.582-0.054,0.774h-5.976c0.012,1.02,0.312,1.794,0.9,2.322
			c0.504,0.468,1.182,0.702,2.034,0.702s1.632-0.144,2.34-0.432l0.27,1.116c-0.792,0.348-1.74,0.522-2.844,0.522
			c-0.648,0-1.23-0.102-1.746-0.306c-0.516-0.204-0.957-0.498-1.323-0.882c-0.366-0.384-0.646-0.843-0.837-1.377
			c-0.192-0.534-0.288-1.137-0.288-1.809c0-1.344,0.36-2.46,1.08-3.348c0.744-0.888,1.722-1.332,2.934-1.332
			c1.235,0,2.166,0.474,2.79,1.422C103.288,8.355,103.528,9.231,103.528,10.251z M102.016,9.891c0.012-0.66-0.126-1.218-0.414-1.674
			c-0.373-0.588-0.942-0.882-1.71-0.882c-0.72,0-1.296,0.288-1.728,0.864c-0.349,0.468-0.564,1.032-0.648,1.692H102.016z"/>
	</g>
	<g>
	</g>
	<g>
	</g>
	<g>
	</g>
	<g>
	</g>
	<g>
	</g>
	<g>
	</g>
	<g>
	</g>
	<g>
	</g>
	<g>
	</g>
	<g>
	</g>
	<g>
	</g>
	<g>
	</g>
	<g>
	</g>
	<g>
	</g>
	<g>
	</g>
</g>
</svg>
