<?xml version="1.0" encoding="utf-8"?>
<!-- Generator: Adobe Illustrator 16.0.1, SVG Export Plug-In . SVG Version: 6.00 Build 0)  -->
<!DOCTYPE svg PUBLIC "-//W3C//DTD SVG 1.1//EN" "http://www.w3.org/Graphics/SVG/1.1/DTD/svg11.dtd">
<svg version="1.1" xmlns="http://www.w3.org/2000/svg" xmlns:xlink="http://www.w3.org/1999/xlink" x="0px" y="0px" width="130px"
	 height="20px" viewBox="0 0 130 20" enable-background="new 0 0 130 20" xml:space="preserve">
<g id="Help">
</g>
<g id="Nav">
	<g>
		<path fill="#FFFFFF" d="M50.011,8.757c0,2.016-0.576,3.594-1.728,4.734c-1.152,1.14-2.898,1.71-5.238,1.71
			c-1.08,0-1.998-0.042-2.754-0.126V3.141c1.02-0.167,2.094-0.252,3.222-0.252c2.124,0,3.72,0.486,4.788,1.458
			C49.441,5.403,50.011,6.873,50.011,8.757z M48.374,8.811c0-1.488-0.39-2.634-1.17-3.438c-0.816-0.828-2.016-1.242-3.6-1.242
			c-0.672,0-1.26,0.048-1.764,0.144v9.612c0.288,0.048,0.792,0.072,1.512,0.072c1.62,0,2.862-0.444,3.726-1.332
			C47.941,11.739,48.374,10.467,48.374,8.811z"/>
		<path fill="#FFFFFF" d="M59.193,10.251c0,0.312-0.018,0.57-0.054,0.774h-5.976c0.024,1.02,0.324,1.794,0.9,2.322
			c0.504,0.468,1.182,0.702,2.034,0.702c0.864,0,1.644-0.144,2.34-0.432l0.27,1.116c-0.78,0.348-1.728,0.522-2.844,0.522
			c-1.296,0-2.319-0.396-3.069-1.188c-0.75-0.792-1.125-1.854-1.125-3.186c0-1.356,0.363-2.475,1.089-3.357
			c0.726-0.882,1.701-1.323,2.925-1.323c1.235,0,2.166,0.474,2.79,1.422C58.953,8.355,59.193,9.231,59.193,10.251z M57.681,9.891
			c0.012-0.66-0.126-1.218-0.414-1.674c-0.373-0.588-0.942-0.882-1.71-0.882c-0.72,0-1.296,0.288-1.728,0.864
			c-0.349,0.468-0.564,1.032-0.648,1.692H57.681z"/>
		<path fill="#FFFFFF" d="M66.34,12.681c0,0.78-0.288,1.407-0.864,1.881s-1.362,0.711-2.358,0.711c-0.924,0-1.722-0.192-2.394-0.576
			l0.378-1.188c0.648,0.408,1.332,0.612,2.052,0.612c1.116,0,1.674-0.432,1.674-1.296c0-0.372-0.12-0.678-0.36-0.918
			c-0.24-0.24-0.648-0.468-1.224-0.684c-1.524-0.576-2.286-1.397-2.286-2.466c0-0.72,0.273-1.323,0.819-1.809
			c0.546-0.486,1.263-0.729,2.151-0.729c0.828,0,1.53,0.174,2.106,0.522l-0.396,1.152c-0.528-0.336-1.11-0.504-1.746-0.504
			c-0.444,0-0.792,0.111-1.044,0.333c-0.252,0.222-0.378,0.507-0.378,0.855c0,0.336,0.132,0.612,0.396,0.828
			c0.216,0.204,0.624,0.42,1.224,0.648C65.59,10.641,66.34,11.517,66.34,12.681z"/>
		<path fill="#FFFFFF" d="M72.815,7.587h-2.232v4.734c0,1.116,0.39,1.674,1.17,1.674c0.348,0,0.648-0.036,0.9-0.108l0.072,1.188
			c-0.36,0.132-0.822,0.198-1.386,0.198c-0.732,0-1.299-0.219-1.701-0.657c-0.402-0.438-0.603-1.185-0.603-2.241V7.587h-1.332V6.399
			h1.332V4.797l1.548-0.468v2.07h2.232V7.587z"/>
		<path fill="#FFFFFF" d="M81.527,10.251c0,0.312-0.018,0.57-0.054,0.774h-5.976c0.024,1.02,0.324,1.794,0.9,2.322
			c0.504,0.468,1.182,0.702,2.034,0.702c0.864,0,1.644-0.144,2.34-0.432l0.27,1.116c-0.78,0.348-1.728,0.522-2.844,0.522
			c-1.296,0-2.319-0.396-3.069-1.188c-0.75-0.792-1.125-1.854-1.125-3.186c0-1.356,0.363-2.475,1.089-3.357
			c0.726-0.882,1.701-1.323,2.925-1.323c1.235,0,2.166,0.474,2.79,1.422C81.287,8.355,81.527,9.231,81.527,10.251z M80.015,9.891
			c0.012-0.66-0.126-1.218-0.414-1.674c-0.373-0.588-0.942-0.882-1.71-0.882c-0.72,0-1.296,0.288-1.728,0.864
			c-0.349,0.468-0.564,1.032-0.648,1.692H80.015z"/>
		<path fill="#FFFFFF" d="M90.856,15.111h-1.908l-2.916-4.176l-0.792,0.9v3.276h-1.548V2.349h1.548v8.046h0.036
			c0.252-0.36,0.498-0.69,0.738-0.99l2.52-3.006h1.872l-3.294,3.6L90.856,15.111z"/>
	</g>
	<g>
	</g>
	<g>
	</g>
	<g>
	</g>
	<g>
	</g>
	<g>
	</g>
	<g>
	</g>
	<g>
	</g>
	<g>
	</g>
	<g>
	</g>
	<g>
	</g>
	<g>
	</g>
	<g>
	</g>
	<g>
	</g>
	<g>
	</g>
	<g>
	</g>
</g>
</svg>
