<?xml version="1.0" encoding="utf-8"?>
<!-- Generator: Adobe Illustrator 16.0.1, SVG Export Plug-In . SVG Version: 6.00 Build 0)  -->
<!DOCTYPE svg PUBLIC "-//W3C//DTD SVG 1.1//EN" "http://www.w3.org/Graphics/SVG/1.1/DTD/svg11.dtd">
<svg version="1.1" xmlns="http://www.w3.org/2000/svg" xmlns:xlink="http://www.w3.org/1999/xlink" x="0px" y="0px" width="130px"
	 height="20px" viewBox="0 0 130 20" enable-background="new 0 0 130 20" xml:space="preserve">
<g id="Help">
</g>
<g id="Nav">
	<g>
		<path fill="#FFFFFF" d="M40.478,15.111h-1.656l-1.26-3.798h-4.194l-1.224,3.798h-1.602l4.032-12.132h1.872L40.478,15.111z
			 M37.255,10.089l-1.17-3.456c-0.132-0.42-0.336-1.17-0.612-2.25h-0.036c-0.12,0.492-0.318,1.236-0.594,2.232l-1.17,3.474H37.255z"
			/>
		<path fill="#FFFFFF" d="M47.605,12.681c0,0.78-0.288,1.407-0.864,1.881s-1.362,0.711-2.358,0.711
			c-0.924,0-1.722-0.192-2.394-0.576l0.378-1.188c0.648,0.408,1.332,0.612,2.052,0.612c1.116,0,1.674-0.432,1.674-1.296
			c0-0.372-0.12-0.678-0.36-0.918c-0.24-0.24-0.648-0.468-1.224-0.684c-1.524-0.576-2.286-1.397-2.286-2.466
			c0-0.72,0.273-1.323,0.819-1.809c0.546-0.486,1.263-0.729,2.151-0.729c0.828,0,1.53,0.174,2.106,0.522l-0.396,1.152
			c-0.528-0.336-1.11-0.504-1.746-0.504c-0.444,0-0.792,0.111-1.044,0.333c-0.252,0.222-0.378,0.507-0.378,0.855
			c0,0.336,0.132,0.612,0.396,0.828c0.216,0.204,0.624,0.42,1.224,0.648C46.855,10.641,47.605,11.517,47.605,12.681z"/>
		<path fill="#FFFFFF" d="M51.48,3.789c0,0.3-0.096,0.543-0.288,0.729s-0.438,0.279-0.738,0.279c-0.288,0-0.525-0.096-0.711-0.288
			c-0.186-0.192-0.279-0.432-0.279-0.72c0-0.288,0.096-0.528,0.288-0.72c0.192-0.192,0.432-0.288,0.72-0.288
			c0.3,0,0.543,0.093,0.729,0.279S51.48,3.489,51.48,3.789z M51.264,15.111h-1.566V6.399h1.566V15.111z"/>
		<path fill="#FFFFFF" d="M58.946,12.681c0,0.78-0.288,1.407-0.864,1.881s-1.362,0.711-2.358,0.711
			c-0.924,0-1.722-0.192-2.394-0.576l0.378-1.188c0.648,0.408,1.332,0.612,2.052,0.612c1.116,0,1.674-0.432,1.674-1.296
			c0-0.372-0.12-0.678-0.36-0.918c-0.24-0.24-0.648-0.468-1.224-0.684c-1.524-0.576-2.286-1.397-2.286-2.466
			c0-0.72,0.273-1.323,0.819-1.809c0.546-0.486,1.263-0.729,2.151-0.729c0.828,0,1.53,0.174,2.106,0.522l-0.396,1.152
			c-0.528-0.336-1.11-0.504-1.746-0.504c-0.444,0-0.792,0.111-1.044,0.333c-0.252,0.222-0.378,0.507-0.378,0.855
			c0,0.336,0.132,0.612,0.396,0.828c0.216,0.204,0.624,0.42,1.224,0.648C58.196,10.641,58.946,11.517,58.946,12.681z"/>
		<path fill="#FFFFFF" d="M65.421,7.587h-2.232v4.734c0,1.116,0.39,1.674,1.17,1.674c0.348,0,0.648-0.036,0.9-0.108l0.072,1.188
			c-0.36,0.132-0.822,0.198-1.386,0.198c-0.732,0-1.299-0.219-1.701-0.657c-0.402-0.438-0.603-1.185-0.603-2.241V7.587h-1.332V6.399
			h1.332V4.797l1.548-0.468v2.07h2.232V7.587z"/>
		<path fill="#FFFFFF" d="M74.133,10.251c0,0.312-0.018,0.57-0.054,0.774h-5.976c0.024,1.02,0.324,1.794,0.9,2.322
			c0.504,0.468,1.182,0.702,2.034,0.702c0.864,0,1.644-0.144,2.34-0.432l0.27,1.116c-0.78,0.348-1.728,0.522-2.844,0.522
			c-1.296,0-2.319-0.396-3.069-1.188c-0.75-0.792-1.125-1.854-1.125-3.186c0-1.356,0.363-2.475,1.089-3.357
			c0.726-0.882,1.701-1.323,2.925-1.323c1.235,0,2.166,0.474,2.79,1.422C73.893,8.355,74.133,9.231,74.133,10.251z M72.621,9.891
			c0.012-0.66-0.126-1.218-0.414-1.674c-0.373-0.588-0.942-0.882-1.71-0.882c-0.72,0-1.296,0.288-1.728,0.864
			c-0.349,0.468-0.564,1.032-0.648,1.692H72.621z"/>
		<path fill="#FFFFFF" d="M83.575,15.111h-1.566v-5.058c0-1.704-0.654-2.556-1.962-2.556c-0.624,0-1.143,0.237-1.557,0.711
			s-0.621,1.023-0.621,1.647v5.256h-1.566V8.757c0-0.72-0.024-1.506-0.072-2.358h1.386l0.09,1.404h0.036
			c0.24-0.444,0.588-0.81,1.044-1.098c0.528-0.324,1.122-0.486,1.782-0.486c0.768,0,1.416,0.24,1.944,0.72
			c0.708,0.648,1.062,1.626,1.062,2.934V15.111z"/>
		<path fill="#FFFFFF" d="M90.273,7.587h-2.232v4.734c0,1.116,0.39,1.674,1.17,1.674c0.348,0,0.648-0.036,0.9-0.108l0.072,1.188
			c-0.36,0.132-0.822,0.198-1.386,0.198c-0.732,0-1.299-0.219-1.701-0.657c-0.402-0.438-0.603-1.185-0.603-2.241V7.587h-1.332V6.399
			h1.332V4.797l1.548-0.468v2.07h2.232V7.587z M90.111,17.235c0,0.972-0.618,1.458-1.854,1.458c-0.468,0-0.876-0.102-1.224-0.306
			l0.27-0.774c0.3,0.18,0.624,0.27,0.972,0.27c0.276,0,0.471-0.048,0.585-0.144s0.171-0.24,0.171-0.432
			c0-0.408-0.462-0.66-1.386-0.756l0.828-1.494h0.972l-0.576,0.936c0.335,0.048,0.627,0.186,0.873,0.414
			C89.988,16.635,90.111,16.911,90.111,17.235z"/>
		<path fill="#FFFFFF" d="M97.042,15.111l-0.144-1.08h-0.036c-0.588,0.84-1.458,1.26-2.61,1.26c-0.816,0-1.464-0.252-1.944-0.756
			c-0.444-0.456-0.666-1.032-0.666-1.728c0-1.056,0.435-1.86,1.305-2.412c0.87-0.552,2.121-0.828,3.753-0.828h0.072v-0.18
			c0-1.344-0.648-2.016-1.944-2.016c-0.84,0-1.578,0.21-2.214,0.63l-0.36-1.044c0.78-0.492,1.722-0.738,2.826-0.738
			c2.16,0,3.24,1.176,3.24,3.528v3.294c0,0.828,0.048,1.518,0.144,2.07H97.042z M97.438,2.889c-0.012,0.648-0.21,1.164-0.594,1.548
			c-0.384,0.384-0.906,0.576-1.566,0.576c-0.732,0-1.284-0.222-1.656-0.666c-0.312-0.372-0.48-0.857-0.504-1.458h0.9
			c0.132,0.816,0.546,1.224,1.242,1.224c0.792,0,1.218-0.408,1.278-1.224H97.438z M96.791,10.665h-0.27
			c-2.208,0-3.312,0.654-3.312,1.962c0,0.504,0.138,0.882,0.414,1.134s0.624,0.378,1.044,0.378c0.528,0,0.978-0.15,1.35-0.45
			c0.24-0.192,0.429-0.411,0.567-0.657c0.138-0.246,0.207-0.525,0.207-0.837V10.665z"/>
	</g>
	<g>
	</g>
	<g>
	</g>
	<g>
	</g>
	<g>
	</g>
	<g>
	</g>
	<g>
	</g>
	<g>
	</g>
	<g>
	</g>
	<g>
	</g>
	<g>
	</g>
	<g>
	</g>
	<g>
	</g>
	<g>
	</g>
	<g>
	</g>
	<g>
	</g>
</g>
</svg>
