<?xml version="1.0" encoding="utf-8"?>
<!-- Generator: Adobe Illustrator 16.0.1, SVG Export Plug-In . SVG Version: 6.00 Build 0)  -->
<!DOCTYPE svg PUBLIC "-//W3C//DTD SVG 1.1//EN" "http://www.w3.org/Graphics/SVG/1.1/DTD/svg11.dtd">
<svg version="1.1" xmlns="http://www.w3.org/2000/svg" xmlns:xlink="http://www.w3.org/1999/xlink" x="0px" y="0px" width="130px"
	 height="20px" viewBox="0 0 130 20" enable-background="new 0 0 130 20" xml:space="preserve">
<g id="Help">
</g>
<g id="Nav">
	<g>
		<path fill="#FFFFFF" d="M18.313,11.655c0,0.972-0.342,1.782-1.026,2.43c-0.804,0.744-2.178,1.116-4.122,1.116
			c-0.828,0-1.626-0.042-2.394-0.126V3.141c0.78-0.167,1.716-0.252,2.808-0.252c1.452,0,2.544,0.294,3.276,0.882
			c0.672,0.528,1.008,1.242,1.008,2.142c0,0.588-0.183,1.123-0.549,1.602c-0.366,0.48-0.867,0.828-1.503,1.044v0.054
			c0.684,0.168,1.248,0.486,1.692,0.954C18.043,10.131,18.313,10.827,18.313,11.655z M16.279,6.057c0-1.32-0.87-1.98-2.61-1.98
			c-0.588,0-1.038,0.042-1.35,0.126v3.906h1.386c0.78,0,1.404-0.192,1.872-0.576C16.045,7.149,16.279,6.657,16.279,6.057z
			 M16.675,11.637c0-0.78-0.306-1.38-0.918-1.8c-0.552-0.372-1.278-0.558-2.178-0.558h-1.26v4.644
			c0.264,0.048,0.69,0.072,1.278,0.072c0.9,0,1.614-0.174,2.142-0.522C16.363,13.065,16.675,12.453,16.675,11.637z"/>
		<path fill="#FFFFFF" d="M27.54,10.251c0,0.312-0.018,0.57-0.054,0.774H21.51c0.024,1.02,0.324,1.794,0.9,2.322
			c0.504,0.468,1.182,0.702,2.034,0.702c0.864,0,1.644-0.144,2.34-0.432l0.27,1.116c-0.78,0.348-1.728,0.522-2.844,0.522
			c-1.296,0-2.319-0.396-3.069-1.188c-0.75-0.792-1.125-1.854-1.125-3.186c0-1.356,0.363-2.475,1.089-3.357
			c0.726-0.882,1.701-1.323,2.925-1.323c1.235,0,2.166,0.474,2.79,1.422C27.299,8.355,27.54,9.231,27.54,10.251z M26.027,9.891
			c0.012-0.66-0.126-1.218-0.414-1.674c-0.373-0.588-0.942-0.882-1.71-0.882c-0.72,0-1.296,0.288-1.728,0.864
			c-0.349,0.468-0.564,1.032-0.648,1.692H26.027z"/>
		<path fill="#FFFFFF" d="M35.733,15.111h-6.93v-0.918l3.852-5.13c0.216-0.276,0.588-0.732,1.116-1.368V7.659h-4.626v-1.26h6.516
			v0.99l-3.816,5.076c-0.349,0.468-0.714,0.918-1.098,1.35v0.036h4.986V15.111z"/>
		<path fill="#FFFFFF" d="M44.762,15.111h-1.386l-0.09-1.386h-0.054c-0.6,1.044-1.536,1.566-2.808,1.566
			c-0.816,0-1.476-0.252-1.98-0.756c-0.636-0.648-0.954-1.649-0.954-3.006v-5.13h1.566v4.842c0,1.848,0.63,2.772,1.89,2.772
			c0.479,0,0.918-0.156,1.314-0.468c0.335-0.264,0.576-0.588,0.72-0.972c0.096-0.24,0.144-0.51,0.144-0.81V6.399h1.566v6.336
			C44.69,13.515,44.714,14.307,44.762,15.111z"/>
		<path fill="#FFFFFF" d="M54.844,6.399c-0.048,0.708-0.072,1.512-0.072,2.412v5.04c0,1.884-0.408,3.204-1.224,3.96
			c-0.744,0.684-1.782,1.026-3.114,1.026c-1.188,0-2.13-0.228-2.826-0.684l0.378-1.224c0.732,0.456,1.566,0.684,2.502,0.684
			c1.824,0,2.736-1.002,2.736-3.006v-0.972h-0.036c-0.552,0.96-1.446,1.44-2.682,1.44c-1.056,0-1.926-0.405-2.61-1.215
			s-1.026-1.821-1.026-3.033c0-1.416,0.396-2.556,1.188-3.42c0.732-0.792,1.62-1.188,2.664-1.188c1.236,0,2.112,0.492,2.628,1.476
			h0.036l0.072-1.296H54.844z M53.206,11.439V9.801c0-0.288-0.024-0.522-0.072-0.702c-0.349-1.104-1.068-1.656-2.16-1.656
			c-0.756,0-1.368,0.3-1.836,0.9c-0.468,0.6-0.702,1.398-0.702,2.394c0,0.912,0.216,1.65,0.648,2.214
			c0.456,0.624,1.08,0.936,1.872,0.936c0.48,0,0.915-0.144,1.305-0.432c0.39-0.288,0.668-0.684,0.837-1.188
			C53.169,12.027,53.206,11.751,53.206,11.439z"/>
		<path fill="#FFFFFF" d="M62.43,12.681c0,0.78-0.288,1.407-0.864,1.881s-1.362,0.711-2.358,0.711c-0.924,0-1.722-0.192-2.394-0.576
			l0.378-1.188c0.648,0.408,1.332,0.612,2.052,0.612c1.116,0,1.674-0.432,1.674-1.296c0-0.372-0.12-0.678-0.36-0.918
			c-0.24-0.24-0.648-0.468-1.224-0.684c-1.524-0.576-2.286-1.397-2.286-2.466c0-0.72,0.273-1.323,0.819-1.809
			c0.546-0.486,1.263-0.729,2.151-0.729c0.828,0,1.53,0.174,2.106,0.522l-0.396,1.152c-0.528-0.336-1.11-0.504-1.746-0.504
			c-0.444,0-0.792,0.111-1.044,0.333c-0.252,0.222-0.378,0.507-0.378,0.855c0,0.336,0.132,0.612,0.396,0.828
			c0.216,0.204,0.624,0.42,1.224,0.648C61.68,10.641,62.43,11.517,62.43,12.681z"/>
		<path fill="#FFFFFF" d="M72.136,6.399c-0.048,0.876-0.072,1.68-0.072,2.412v9.846h-1.566v-4.86h-0.036
			c-0.552,0.996-1.476,1.494-2.772,1.494c-1.021,0-1.875-0.405-2.565-1.215c-0.69-0.81-1.035-1.869-1.035-3.177
			c0-1.512,0.414-2.7,1.242-3.564c0.72-0.744,1.59-1.116,2.61-1.116c1.236,0,2.106,0.492,2.61,1.476h0.036l0.054-1.296H72.136z
			 M70.498,11.583V9.909c0-0.672-0.21-1.248-0.63-1.728c-0.42-0.479-0.966-0.72-1.638-0.72c-0.792,0-1.417,0.309-1.872,0.927
			c-0.457,0.618-0.684,1.425-0.684,2.421c0,0.924,0.204,1.68,0.612,2.268c0.444,0.648,1.074,0.972,1.89,0.972
			c0.504,0,0.954-0.15,1.35-0.45c0.396-0.3,0.678-0.72,0.846-1.26C70.456,12.087,70.498,11.835,70.498,11.583z"/>
		<path fill="#FFFFFF" d="M82.02,15.111h-1.386l-0.09-1.386h-0.054c-0.6,1.044-1.536,1.566-2.808,1.566
			c-0.816,0-1.476-0.252-1.98-0.756c-0.636-0.648-0.954-1.649-0.954-3.006v-5.13h1.566v4.842c0,1.848,0.63,2.772,1.89,2.772
			c0.479,0,0.918-0.156,1.314-0.468c0.335-0.264,0.576-0.588,0.72-0.972c0.096-0.24,0.144-0.51,0.144-0.81V6.399h1.566v6.336
			C81.947,13.515,81.971,14.307,82.02,15.111z"/>
		<path fill="#FFFFFF" d="M91.682,10.251c0,0.312-0.018,0.57-0.054,0.774h-5.976c0.024,1.02,0.324,1.794,0.9,2.322
			c0.504,0.468,1.182,0.702,2.034,0.702c0.864,0,1.644-0.144,2.34-0.432l0.27,1.116c-0.78,0.348-1.728,0.522-2.844,0.522
			c-1.296,0-2.319-0.396-3.069-1.188c-0.75-0.792-1.125-1.854-1.125-3.186c0-1.356,0.363-2.475,1.089-3.357
			c0.726-0.882,1.701-1.323,2.925-1.323c1.235,0,2.166,0.474,2.79,1.422C91.441,8.355,91.682,9.231,91.682,10.251z M90.169,9.891
			c0.012-0.66-0.126-1.218-0.414-1.674c-0.373-0.588-0.942-0.882-1.71-0.882c-0.72,0-1.296,0.288-1.728,0.864
			c-0.349,0.468-0.564,1.032-0.648,1.692H90.169z"/>
		<path fill="#FFFFFF" d="M95.435,15.111h-1.566V2.349h1.566V15.111z"/>
		<path fill="#FFFFFF" d="M99.747,15.111h-1.566V2.349h1.566V15.111z"/>
		<path fill="#FFFFFF" d="M109.53,10.251c0,0.312-0.018,0.57-0.054,0.774H103.5c0.024,1.02,0.324,1.794,0.9,2.322
			c0.504,0.468,1.182,0.702,2.034,0.702c0.864,0,1.644-0.144,2.34-0.432l0.27,1.116c-0.78,0.348-1.728,0.522-2.844,0.522
			c-1.296,0-2.319-0.396-3.069-1.188c-0.75-0.792-1.125-1.854-1.125-3.186c0-1.356,0.363-2.475,1.089-3.357
			c0.726-0.882,1.701-1.323,2.925-1.323c1.235,0,2.166,0.474,2.79,1.422C109.29,8.355,109.53,9.231,109.53,10.251z M108.018,9.891
			c0.012-0.66-0.126-1.218-0.414-1.674c-0.373-0.588-0.942-0.882-1.71-0.882c-0.72,0-1.296,0.288-1.728,0.864
			c-0.349,0.468-0.564,1.032-0.648,1.692H108.018z"/>
		<path fill="#FFFFFF" d="M118.972,15.111h-1.566v-5.058c0-1.704-0.654-2.556-1.962-2.556c-0.624,0-1.143,0.237-1.557,0.711
			s-0.621,1.023-0.621,1.647v5.256H111.7V8.757c0-0.72-0.024-1.506-0.072-2.358h1.386l0.09,1.404h0.036
			c0.24-0.444,0.588-0.81,1.044-1.098c0.528-0.324,1.122-0.486,1.782-0.486c0.768,0,1.416,0.24,1.944,0.72
			c0.708,0.648,1.062,1.626,1.062,2.934V15.111z"/>
	</g>
	<g>
	</g>
	<g>
	</g>
	<g>
	</g>
	<g>
	</g>
	<g>
	</g>
	<g>
	</g>
	<g>
	</g>
	<g>
	</g>
	<g>
	</g>
	<g>
	</g>
	<g>
	</g>
	<g>
	</g>
	<g>
	</g>
	<g>
	</g>
	<g>
	</g>
</g>
</svg>
