<?xml version="1.0" encoding="utf-8"?>
<!-- Generator: Adobe Illustrator 16.0.1, SVG Export Plug-In . SVG Version: 6.00 Build 0)  -->
<!DOCTYPE svg PUBLIC "-//W3C//DTD SVG 1.1//EN" "http://www.w3.org/Graphics/SVG/1.1/DTD/svg11.dtd">
<svg version="1.1" xmlns="http://www.w3.org/2000/svg" xmlns:xlink="http://www.w3.org/1999/xlink" x="0px" y="0px" width="130px"
	 height="20px" viewBox="0 0 130 20" enable-background="new 0 0 130 20" xml:space="preserve">
<g id="Help">
</g>
<g id="Nav">
	<g>
		<path fill="#FFFFFF" d="M53.543,13.977c0.816,0,1.434-0.159,1.854-0.477s0.63-0.681,0.63-1.089c0-0.252-0.075-0.474-0.225-0.666
			c-0.15-0.191-0.348-0.363-0.594-0.513s-0.522-0.279-0.828-0.387c-0.306-0.108-0.615-0.209-0.927-0.306
			c-0.456-0.132-0.879-0.279-1.269-0.441c-0.39-0.162-0.726-0.36-1.008-0.594c-0.282-0.234-0.501-0.51-0.657-0.828
			c-0.156-0.318-0.234-0.699-0.234-1.143c0-0.852,0.339-1.512,1.017-1.98c0.678-0.468,1.599-0.702,2.763-0.702
			c0.564,0,1.116,0.057,1.656,0.171s1.02,0.279,1.44,0.495l-0.396,1.224c-0.732-0.384-1.584-0.576-2.556-0.576
			c-0.756,0-1.347,0.132-1.773,0.396c-0.426,0.264-0.639,0.588-0.639,0.972c0,0.216,0.06,0.408,0.18,0.576s0.282,0.315,0.486,0.441
			c0.204,0.126,0.438,0.24,0.702,0.342c0.264,0.103,0.546,0.201,0.846,0.297c0.564,0.18,1.065,0.369,1.503,0.567
			c0.438,0.198,0.807,0.423,1.107,0.675s0.528,0.54,0.684,0.864c0.156,0.324,0.234,0.708,0.234,1.152
			c0,0.852-0.321,1.539-0.963,2.061c-0.642,0.522-1.629,0.783-2.961,0.783c-0.66,0-1.269-0.061-1.827-0.18s-1.029-0.294-1.413-0.522
			l0.378-1.206c0.372,0.18,0.798,0.324,1.278,0.432C52.511,13.923,53.016,13.977,53.543,13.977z"/>
		<path fill="#FFFFFF" d="M56.863,3.663c-0.204,0-0.384-0.072-0.54-0.216c-0.156-0.144-0.234-0.336-0.234-0.576V2.367
			c0-0.132-0.018-0.225-0.054-0.279c-0.036-0.054-0.126-0.081-0.27-0.081h-0.954v-1.26h1.476c0.336,0,0.603,0.072,0.801,0.216
			c0.198,0.144,0.297,0.372,0.297,0.684v0.45c0,0.096,0.021,0.171,0.063,0.225c0.042,0.054,0.129,0.081,0.261,0.081h2.43v1.26
			H56.863z"/>
		<path fill="#FFFFFF" d="M66.352,15.111V8.613c0-1.62-0.714-2.43-2.142-2.43c-0.576,0-1.116,0.105-1.62,0.315
			s-0.93,0.459-1.278,0.747l-0.414-1.17c0.18-0.156,0.398-0.309,0.657-0.459c0.258-0.15,0.54-0.282,0.846-0.396
			c0.306-0.114,0.624-0.204,0.954-0.27c0.33-0.066,0.663-0.099,0.999-0.099c1.176,0,2.061,0.333,2.655,0.999
			C67.603,6.516,67.9,7.461,67.9,8.685v6.426H66.352z"/>
		<path fill="#FFFFFF" d="M72.132,11.511c0,0.852,0.168,1.473,0.504,1.863s0.882,0.585,1.638,0.585c0.3,0,0.597-0.054,0.891-0.162
			c0.294-0.108,0.573-0.258,0.837-0.45c0.264-0.192,0.498-0.411,0.702-0.657c0.204-0.246,0.372-0.507,0.504-0.783V5.031h1.548v10.08
			h-1.458l-0.09-1.476c-0.348,0.504-0.78,0.906-1.296,1.206c-0.516,0.3-1.182,0.45-1.998,0.45c-1.104,0-1.935-0.321-2.493-0.963
			c-0.558-0.642-0.837-1.575-0.837-2.799V5.031h1.548V11.511z"/>
	</g>
	<g>
	</g>
	<g>
	</g>
	<g>
	</g>
	<g>
	</g>
	<g>
	</g>
	<g>
	</g>
	<g>
	</g>
	<g>
	</g>
	<g>
	</g>
	<g>
	</g>
	<g>
	</g>
	<g>
	</g>
	<g>
	</g>
	<g>
	</g>
	<g>
	</g>
</g>
</svg>
