<?xml version="1.0" encoding="utf-8"?>
<!-- Generator: Adobe Illustrator 16.0.1, SVG Export Plug-In . SVG Version: 6.00 Build 0)  -->
<!DOCTYPE svg PUBLIC "-//W3C//DTD SVG 1.1//EN" "http://www.w3.org/Graphics/SVG/1.1/DTD/svg11.dtd">
<svg version="1.1" xmlns="http://www.w3.org/2000/svg" xmlns:xlink="http://www.w3.org/1999/xlink" x="0px" y="0px" width="130px"
	 height="20px" viewBox="0 0 130 20" enable-background="new 0 0 130 20" xml:space="preserve">
<g id="Help">
</g>
<g id="Nav" display="none">
	<g display="inline">
		<path fill="#FFFFFF" d="M42.312,11.799c0,0.996-0.348,1.812-1.044,2.448c-0.756,0.684-1.806,1.026-3.15,1.026
			c-1.26,0-2.268-0.252-3.024-0.756l0.396-1.296c0.816,0.516,1.728,0.774,2.736,0.774c0.78,0,1.392-0.189,1.836-0.567
			c0.444-0.378,0.666-0.879,0.666-1.503c0-0.564-0.174-1.032-0.522-1.404c-0.348-0.372-0.924-0.708-1.728-1.008
			c-2.1-0.792-3.15-1.938-3.15-3.438c0-0.948,0.36-1.73,1.08-2.349c0.72-0.618,1.656-0.927,2.808-0.927
			c1.068,0,1.938,0.192,2.61,0.576l-0.432,1.278c-0.624-0.384-1.368-0.576-2.232-0.576c-0.744,0-1.326,0.198-1.746,0.594
			c-0.336,0.336-0.504,0.744-0.504,1.224c0,0.54,0.186,0.99,0.558,1.35c0.348,0.312,0.948,0.642,1.8,0.99
			c1.044,0.42,1.812,0.906,2.304,1.458C42.066,10.245,42.312,10.947,42.312,11.799z"/>
		<path fill="#FFFFFF" d="M51.624,15.111h-1.386l-0.09-1.386h-0.054c-0.6,1.044-1.536,1.566-2.808,1.566
			c-0.816,0-1.476-0.252-1.98-0.756c-0.636-0.648-0.954-1.649-0.954-3.006v-5.13h1.566v4.842c0,1.848,0.63,2.772,1.89,2.772
			c0.479,0,0.918-0.156,1.314-0.468c0.335-0.264,0.576-0.588,0.72-0.972c0.096-0.24,0.144-0.51,0.144-0.81V6.399h1.566v6.336
			C51.552,13.515,51.576,14.307,51.624,15.111z"/>
		<path fill="#FFFFFF" d="M62.371,10.629c0,1.488-0.396,2.658-1.188,3.51c-0.708,0.768-1.602,1.152-2.682,1.152
			c-1.2,0-2.07-0.444-2.61-1.332h-0.036v4.698h-1.548V9.225c0-0.936-0.024-1.877-0.072-2.826h1.404l0.072,1.458h0.036
			c0.66-1.092,1.662-1.638,3.006-1.638c1.056,0,1.923,0.408,2.601,1.224C62.032,8.259,62.371,9.321,62.371,10.629z M60.787,10.701
			c0-0.912-0.21-1.667-0.63-2.268c-0.468-0.648-1.092-0.972-1.872-0.972c-0.54,0-1.026,0.18-1.458,0.54
			c-0.432,0.36-0.72,0.822-0.864,1.386c-0.072,0.276-0.108,0.492-0.108,0.648v1.548c0,0.696,0.222,1.284,0.666,1.764
			c0.444,0.48,1.014,0.72,1.71,0.72c0.804,0,1.431-0.309,1.881-0.927C60.562,12.522,60.787,11.709,60.787,10.701z"/>
		<path fill="#FFFFFF" d="M72.294,10.629c0,1.488-0.396,2.658-1.188,3.51c-0.708,0.768-1.602,1.152-2.682,1.152
			c-1.2,0-2.07-0.444-2.61-1.332h-0.036v4.698H64.23V9.225c0-0.936-0.024-1.877-0.072-2.826h1.404l0.072,1.458h0.036
			c0.66-1.092,1.662-1.638,3.006-1.638c1.056,0,1.923,0.408,2.601,1.224C71.956,8.259,72.294,9.321,72.294,10.629z M70.71,10.701
			c0-0.912-0.21-1.667-0.63-2.268c-0.468-0.648-1.092-0.972-1.872-0.972c-0.54,0-1.026,0.18-1.458,0.54
			c-0.432,0.36-0.72,0.822-0.864,1.386c-0.072,0.276-0.108,0.492-0.108,0.648v1.548c0,0.696,0.222,1.284,0.666,1.764
			c0.444,0.48,1.014,0.72,1.71,0.72c0.804,0,1.431-0.309,1.881-0.927C70.485,12.522,70.71,11.709,70.71,10.701z"/>
		<path fill="#FFFFFF" d="M81.955,10.683c0,1.332-0.366,2.424-1.098,3.276c-0.78,0.888-1.824,1.332-3.132,1.332
			c-1.26,0-2.268-0.432-3.024-1.296c-0.708-0.84-1.062-1.896-1.062-3.168c0-1.332,0.366-2.424,1.098-3.276
			c0.78-0.888,1.824-1.332,3.132-1.332c1.26,0,2.268,0.432,3.024,1.296C81.601,8.343,81.955,9.399,81.955,10.683z M80.353,10.737
			c0-0.876-0.204-1.626-0.612-2.25c-0.468-0.732-1.116-1.098-1.944-1.098c-0.852,0-1.512,0.366-1.98,1.098
			c-0.408,0.624-0.612,1.386-0.612,2.286c0,0.864,0.21,1.614,0.63,2.25c0.468,0.732,1.116,1.098,1.944,1.098
			c0.816,0,1.464-0.372,1.944-1.116C80.143,12.357,80.353,11.601,80.353,10.737z"/>
		<path fill="#FFFFFF" d="M88.414,7.731c-0.156-0.024-0.336-0.036-0.54-0.036c-0.708,0-1.254,0.294-1.638,0.882
			c-0.349,0.516-0.522,1.14-0.522,1.872v4.662h-1.548v-6.03c0-0.936-0.024-1.83-0.072-2.682h1.386l0.072,1.692h0.054
			c0.192-0.576,0.507-1.032,0.945-1.368c0.438-0.335,0.915-0.504,1.431-0.504c0.168,0,0.312,0.012,0.432,0.036V7.731z"/>
		<path fill="#FFFFFF" d="M94.829,7.587h-2.232v4.734c0,1.116,0.39,1.674,1.17,1.674c0.348,0,0.648-0.036,0.9-0.108l0.072,1.188
			c-0.36,0.132-0.822,0.198-1.386,0.198c-0.732,0-1.299-0.219-1.701-0.657c-0.402-0.438-0.603-1.185-0.603-2.241V7.587h-1.332V6.399
			h1.332V4.797l1.548-0.468v2.07h2.232V7.587z"/>
	</g>
</g>
<g id="Nav_copy">
	<g>
		<path fill="#FFFFFF" d="M11.34,13.959c0.864,0,1.503-0.228,1.917-0.684s0.621-1.08,0.621-1.872V5.031h1.548v6.372
			c0,1.248-0.348,2.208-1.044,2.88c-0.696,0.672-1.71,1.008-3.042,1.008s-2.346-0.336-3.042-1.008
			c-0.696-0.672-1.044-1.632-1.044-2.88V5.031h1.548v6.372c0,0.792,0.207,1.416,0.621,1.872S10.476,13.959,11.34,13.959z"/>
		<path fill="#FFFFFF" d="M21.186,13.977c0.816,0,1.434-0.159,1.854-0.477s0.63-0.681,0.63-1.089c0-0.252-0.075-0.474-0.225-0.666
			c-0.15-0.191-0.348-0.363-0.594-0.513s-0.522-0.279-0.828-0.387c-0.306-0.108-0.615-0.209-0.927-0.306
			c-0.456-0.132-0.879-0.279-1.269-0.441c-0.39-0.162-0.726-0.36-1.008-0.594c-0.282-0.234-0.501-0.51-0.657-0.828
			c-0.156-0.318-0.234-0.699-0.234-1.143c0-0.852,0.339-1.512,1.017-1.98c0.678-0.468,1.599-0.702,2.763-0.702
			c0.564,0,1.116,0.057,1.656,0.171s1.02,0.279,1.44,0.495l-0.396,1.224c-0.732-0.384-1.584-0.576-2.556-0.576
			c-0.756,0-1.347,0.132-1.773,0.396c-0.426,0.264-0.639,0.588-0.639,0.972c0,0.216,0.06,0.408,0.18,0.576s0.282,0.315,0.486,0.441
			c0.204,0.126,0.438,0.24,0.702,0.342c0.264,0.103,0.546,0.201,0.846,0.297c0.564,0.18,1.065,0.369,1.503,0.567
			c0.438,0.198,0.807,0.423,1.107,0.675s0.528,0.54,0.684,0.864c0.156,0.324,0.234,0.708,0.234,1.152
			c0,0.852-0.321,1.539-0.963,2.061c-0.642,0.522-1.629,0.783-2.961,0.783c-0.66,0-1.269-0.061-1.827-0.18s-1.029-0.294-1.413-0.522
			l0.378-1.206c0.372,0.18,0.798,0.324,1.278,0.432C20.153,13.923,20.658,13.977,21.186,13.977z"/>
		<path fill="#FFFFFF" d="M16.938,3.663v-1.26h7.722v1.26H16.938z"/>
		<path fill="#FFFFFF" d="M34.344,15.111V8.757c0-0.864-0.222-1.509-0.666-1.935c-0.444-0.426-1.08-0.639-1.908-0.639
			c-0.684,0-1.29,0.147-1.818,0.441c-0.528,0.294-0.888,0.681-1.08,1.161l1.368,1.26c-0.324,0.168-0.564,0.375-0.72,0.621
			s-0.234,0.561-0.234,0.945v4.5h-1.548v-4.284c0-0.348,0.083-0.678,0.252-0.99c0.168-0.312,0.408-0.546,0.72-0.702l-1.476-1.26
			c0.096-0.384,0.279-0.759,0.549-1.125s0.603-0.69,0.999-0.972c0.396-0.282,0.849-0.507,1.359-0.675
			c0.51-0.168,1.053-0.252,1.629-0.252c0.684,0,1.284,0.096,1.8,0.288c0.516,0.192,0.945,0.462,1.287,0.81
			c0.342,0.348,0.6,0.759,0.774,1.233c0.173,0.475,0.261,0.999,0.261,1.575v6.354H34.344z"/>
		<path fill="#FFFFFF" d="M43.235,15.111V8.613c0-1.62-0.714-2.43-2.142-2.43c-0.576,0-1.116,0.105-1.62,0.315
			s-0.93,0.459-1.278,0.747l-0.414-1.17c0.18-0.156,0.398-0.309,0.657-0.459c0.258-0.15,0.54-0.282,0.846-0.396
			c0.306-0.114,0.624-0.204,0.954-0.27c0.33-0.066,0.663-0.099,0.999-0.099c1.176,0,2.061,0.333,2.655,0.999
			c0.594,0.666,0.891,1.611,0.891,2.835v6.426H43.235z"/>
		<path fill="#FFFFFF" d="M50.543,13.977c0.816,0,1.434-0.159,1.854-0.477s0.63-0.681,0.63-1.089c0-0.252-0.075-0.474-0.225-0.666
			c-0.15-0.191-0.348-0.363-0.594-0.513s-0.522-0.279-0.828-0.387c-0.306-0.108-0.615-0.209-0.927-0.306
			c-0.456-0.132-0.879-0.279-1.269-0.441c-0.39-0.162-0.726-0.36-1.008-0.594c-0.282-0.234-0.501-0.51-0.657-0.828
			c-0.156-0.318-0.234-0.699-0.234-1.143c0-0.852,0.339-1.512,1.017-1.98c0.678-0.468,1.599-0.702,2.763-0.702
			c0.564,0,1.116,0.057,1.656,0.171s1.02,0.279,1.44,0.495l-0.396,1.224c-0.732-0.384-1.584-0.576-2.556-0.576
			c-0.756,0-1.347,0.132-1.773,0.396c-0.426,0.264-0.639,0.588-0.639,0.972c0,0.216,0.06,0.408,0.18,0.576s0.282,0.315,0.486,0.441
			c0.204,0.126,0.438,0.24,0.702,0.342c0.264,0.103,0.546,0.201,0.846,0.297c0.564,0.18,1.065,0.369,1.503,0.567
			c0.438,0.198,0.807,0.423,1.107,0.675s0.528,0.54,0.684,0.864c0.156,0.324,0.234,0.708,0.234,1.152
			c0,0.852-0.321,1.539-0.963,2.061c-0.642,0.522-1.629,0.783-2.961,0.783c-0.66,0-1.269-0.061-1.827-0.18s-1.029-0.294-1.413-0.522
			l0.378-1.206c0.372,0.18,0.798,0.324,1.278,0.432C49.511,13.923,50.016,13.977,50.543,13.977z"/>
		<path fill="#FFFFFF" d="M64.386,11.637c0,1.176-0.292,2.079-0.873,2.709c-0.583,0.63-1.533,0.945-2.853,0.945
			c-0.66,0-1.227-0.087-1.701-0.261s-0.864-0.417-1.17-0.729s-0.531-0.675-0.675-1.089c-0.144-0.414-0.216-0.867-0.216-1.359v-1.386
			c0-0.348,0.093-0.672,0.279-0.972c0.186-0.3,0.393-0.582,0.621-0.846c0.228-0.264,0.435-0.513,0.621-0.747
			s0.279-0.459,0.279-0.675V6.795c0-0.132-0.033-0.237-0.099-0.315c-0.066-0.078-0.183-0.117-0.351-0.117h-1.242V5.031h1.422
			c0.648,0,1.101,0.147,1.359,0.441c0.258,0.294,0.387,0.693,0.387,1.197v0.54c0,0.324-0.093,0.63-0.279,0.918
			s-0.387,0.561-0.603,0.819c-0.216,0.258-0.417,0.513-0.603,0.765s-0.279,0.504-0.279,0.756v1.386c0,0.648,0.171,1.164,0.513,1.548
			c0.342,0.384,0.921,0.576,1.737,0.576c0.744,0,1.293-0.165,1.647-0.495c0.354-0.33,0.531-0.939,0.531-1.827V9.837
			c0-0.504-0.105-0.864-0.315-1.08s-0.489-0.324-0.837-0.324h-0.342l-0.216-0.648l1.908-2.754h1.692l-2.034,2.646
			c0.48,0.096,0.882,0.333,1.206,0.711c0.324,0.378,0.486,0.855,0.486,1.431V11.637z"/>
		<path fill="#FFFFFF" d="M62.874,3.663V0.675h1.512v2.988H62.874z"/>
		<path fill="#FFFFFF" d="M67.14,13.059c0.432,0.264,0.891,0.48,1.377,0.648c0.486,0.168,1.017,0.252,1.593,0.252
			c0.912,0,1.641-0.312,2.187-0.936c0.546-0.624,0.819-1.584,0.819-2.88c0-1.368-0.261-2.37-0.783-3.006
			c-0.522-0.636-1.263-0.954-2.223-0.954c-0.636,0-1.182,0.081-1.638,0.243s-0.912,0.393-1.368,0.693l-0.36-1.242
			c0.48-0.312,1.023-0.561,1.629-0.747s1.227-0.279,1.863-0.279c1.452,0,2.553,0.453,3.303,1.359s1.125,2.169,1.125,3.789
			c0,1.728-0.399,3.042-1.197,3.942c-0.798,0.9-1.929,1.35-3.393,1.35c-0.684,0-1.29-0.084-1.818-0.252
			c-0.528-0.168-1.026-0.408-1.494-0.72L67.14,13.059z"/>
		<path fill="#FFFFFF" d="M83.465,5.031h1.548v6.318c0,0.588-0.078,1.125-0.234,1.611c-0.156,0.486-0.405,0.9-0.747,1.242
			c-0.342,0.342-0.78,0.609-1.314,0.801c-0.534,0.192-1.185,0.288-1.953,0.288c-1.272,0-2.259-0.282-2.961-0.846
			c-0.702-0.564-1.053-1.368-1.053-2.412c0-0.6,0.15-1.113,0.45-1.539c0.3-0.426,0.708-0.723,1.224-0.891
			c-0.456-0.12-0.849-0.372-1.179-0.756c-0.331-0.384-0.495-0.918-0.495-1.602c0-0.672,0.228-1.227,0.684-1.665
			c0.456-0.438,1.086-0.657,1.89-0.657c0.336,0,0.636,0.03,0.9,0.09c0.264,0.061,0.492,0.132,0.684,0.216l-0.18,1.296
			c-0.12-0.06-0.285-0.12-0.495-0.18c-0.21-0.06-0.429-0.09-0.657-0.09c-0.444,0-0.777,0.111-0.999,0.333s-0.333,0.507-0.333,0.855
			c0,0.24,0.051,0.447,0.153,0.621c0.102,0.174,0.231,0.324,0.387,0.45s0.33,0.219,0.522,0.279s0.384,0.09,0.576,0.09h1.53
			l0.126,1.332h-1.422c-0.528,0-0.969,0.156-1.323,0.468c-0.354,0.312-0.531,0.732-0.531,1.26c0,0.324,0.069,0.612,0.207,0.864
			c0.138,0.252,0.324,0.465,0.558,0.639c0.234,0.174,0.504,0.303,0.81,0.387s0.627,0.126,0.963,0.126c0.9,0,1.569-0.225,2.007-0.675
			c0.438-0.45,0.657-1.101,0.657-1.953V5.031z"/>
		<path fill="#FFFFFF" d="M88.127,15.111V5.031h1.548v10.08H88.127z"/>
		<path fill="#FFFFFF" d="M99.792,15.111l-1.332-4.572c-0.336-1.104-0.948-1.668-1.836-1.692l-2.25,1.854v4.41h-1.548V5.031h1.548
			v3.96l4.788-3.96h2.088l-3.528,2.916c0.648,0.096,1.148,0.366,1.503,0.81c0.354,0.444,0.633,0.996,0.837,1.656l1.386,4.698H99.792
			z"/>
		<path fill="#FFFFFF" d="M109.817,15.111v-4.86h-2.52c-0.853,0-1.524,0.165-2.016,0.495c-0.492,0.331-0.738,0.837-0.738,1.521
			c0,0.588,0.174,1.023,0.522,1.305c0.348,0.282,0.786,0.423,1.314,0.423c0.252,0,0.519-0.027,0.801-0.081
			c0.282-0.054,0.531-0.129,0.747-0.225l0.252,1.278c-0.264,0.096-0.57,0.174-0.918,0.234c-0.348,0.06-0.696,0.09-1.044,0.09
			c-0.457,0-0.879-0.063-1.269-0.189c-0.39-0.126-0.729-0.312-1.017-0.558s-0.516-0.558-0.684-0.936s-0.252-0.819-0.252-1.323
			c0-1.056,0.372-1.881,1.116-2.475c0.744-0.594,1.866-0.891,3.366-0.891h2.34V8.685c0-0.792-0.187-1.413-0.558-1.863
			c-0.372-0.45-1.032-0.675-1.98-0.675c-0.684,0-1.32,0.102-1.908,0.306c-0.588,0.205-1.098,0.457-1.53,0.756l-0.504-1.098
			c0.18-0.156,0.411-0.309,0.693-0.459c0.282-0.15,0.6-0.285,0.954-0.405c0.354-0.12,0.735-0.216,1.143-0.288
			c0.408-0.072,0.834-0.108,1.278-0.108c1.296,0,2.28,0.345,2.952,1.035c0.672,0.69,1.008,1.617,1.008,2.781v6.444H109.817z"/>
		<path fill="#FFFFFF" d="M103.643,3.663v-1.26h4.212V0.747h1.278v1.692h0.954V0.747h1.278v2.916H103.643z"/>
		<path fill="#FFFFFF" d="M115.991,10.665c-0.132,0-0.243,0.045-0.333,0.135s-0.135,0.219-0.135,0.387v0.486
			c0,0.792,0.222,1.371,0.666,1.737c0.444,0.366,1.122,0.549,2.034,0.549c0.96,0,1.71-0.309,2.25-0.927
			c0.54-0.618,0.81-1.623,0.81-3.015c0-1.235-0.27-2.184-0.81-2.844c-0.54-0.66-1.296-0.99-2.268-0.99
			c-0.792,0-1.491,0.111-2.097,0.333c-0.606,0.222-1.137,0.507-1.593,0.855l-0.504-1.152c0.204-0.168,0.456-0.333,0.756-0.495
			c0.3-0.162,0.63-0.309,0.99-0.441c0.36-0.132,0.747-0.237,1.161-0.315c0.414-0.078,0.843-0.117,1.287-0.117
			c1.512,0,2.661,0.468,3.447,1.404c0.786,0.936,1.179,2.214,1.179,3.834c0,1.704-0.393,2.997-1.179,3.879
			c-0.786,0.882-1.917,1.323-3.393,1.323c-1.452,0-2.529-0.312-3.231-0.936c-0.702-0.624-1.053-1.518-1.053-2.682v-0.54
			c0-0.624,0.165-1.08,0.495-1.368c0.33-0.288,0.777-0.432,1.341-0.432h1.62v1.332H115.991z"/>
	</g>
	<g>
	</g>
	<g>
	</g>
	<g>
	</g>
	<g>
	</g>
	<g>
	</g>
	<g>
	</g>
	<g>
	</g>
	<g>
	</g>
	<g>
	</g>
	<g>
	</g>
	<g>
	</g>
	<g>
	</g>
	<g>
	</g>
	<g>
	</g>
	<g>
	</g>
</g>
</svg>
