<?xml version="1.0" encoding="utf-8"?>
<svg version="1.1" xmlns="http://www.w3.org/2000/svg" xmlns:xlink="http://www.w3.org/1999/xlink" width="130px" height="20px">
	<path fill="#FFFFFF" d="M39.165,11.655c0,0.972-0.342,1.782-1.026,2.43c-0.804,0.744-2.178,1.116-4.122,1.116
		c-0.828,0-1.626-0.042-2.394-0.126V3.141c0.78-0.167,1.716-0.252,2.808-0.252c1.452,0,2.544,0.294,3.276,0.882
		c0.672,0.528,1.008,1.242,1.008,2.142c0,0.588-0.183,1.123-0.549,1.602c-0.366,0.48-0.867,0.828-1.503,1.044v0.054
		c0.684,0.168,1.248,0.486,1.692,0.954C38.895,10.131,39.165,10.827,39.165,11.655z M37.131,6.057c0-1.32-0.87-1.98-2.61-1.98
		c-0.588,0-1.038,0.042-1.35,0.126v3.906h1.386c0.78,0,1.404-0.192,1.872-0.576C36.897,7.149,37.131,6.657,37.131,6.057z
		 M37.527,11.637c0-0.78-0.306-1.38-0.918-1.8c-0.552-0.372-1.278-0.558-2.178-0.558h-1.26v4.644
		c0.264,0.048,0.69,0.072,1.278,0.072c0.9,0,1.614-0.174,2.142-0.522C37.215,13.065,37.527,12.453,37.527,11.637z"/>
	<path fill="#FFFFFF" d="M49.184,10.683c0,1.332-0.366,2.424-1.098,3.276c-0.78,0.888-1.824,1.332-3.132,1.332
		c-1.26,0-2.268-0.432-3.024-1.296c-0.708-0.84-1.062-1.896-1.062-3.168c0-1.332,0.366-2.424,1.098-3.276
		c0.78-0.888,1.824-1.332,3.132-1.332c1.26,0,2.268,0.432,3.024,1.296C48.83,8.343,49.184,9.399,49.184,10.683z M47.582,10.737
		c0-0.876-0.204-1.626-0.612-2.25c-0.468-0.732-1.116-1.098-1.944-1.098c-0.852,0-1.512,0.366-1.98,1.098
		c-0.408,0.624-0.612,1.386-0.612,2.286c0,0.864,0.21,1.614,0.63,2.25c0.468,0.732,1.116,1.098,1.944,1.098
		c0.816,0,1.464-0.372,1.944-1.116C47.372,12.357,47.582,11.601,47.582,10.737z"/>
	<path fill="#FFFFFF" d="M58.603,15.111h-1.386l-0.09-1.386h-0.054c-0.6,1.044-1.536,1.566-2.808,1.566
		c-0.816,0-1.476-0.252-1.98-0.756c-0.636-0.648-0.954-1.649-0.954-3.006v-5.13h1.566v4.842c0,1.848,0.63,2.772,1.89,2.772
		c0.479,0,0.918-0.156,1.314-0.468c0.335-0.264,0.576-0.588,0.72-0.972c0.096-0.24,0.144-0.51,0.144-0.81V6.399h1.566v6.336
		C58.531,13.515,58.555,14.307,58.603,15.111z"/>
	<path fill="#FFFFFF" d="M65.448,7.587h-2.232v4.734c0,1.116,0.39,1.674,1.17,1.674c0.348,0,0.648-0.036,0.9-0.108l0.072,1.188
		c-0.36,0.132-0.822,0.198-1.386,0.198c-0.732,0-1.299-0.219-1.701-0.657c-0.402-0.438-0.603-1.185-0.603-2.241V7.587h-1.332V6.399
		h1.332V4.797l1.548-0.468v2.07h2.232V7.587z"/>
	<path fill="#FFFFFF" d="M69.12,3.789c0,0.3-0.096,0.543-0.288,0.729s-0.438,0.279-0.738,0.279c-0.288,0-0.525-0.096-0.711-0.288
		c-0.186-0.192-0.279-0.432-0.279-0.72c0-0.288,0.096-0.528,0.288-0.72c0.192-0.192,0.432-0.288,0.72-0.288
		c0.3,0,0.543,0.093,0.729,0.279S69.12,3.489,69.12,3.789z M68.904,15.111h-1.566V6.399h1.566V15.111z"/>
	<path fill="#FFFFFF" d="M79.169,6.399c-0.048,0.876-0.072,1.68-0.072,2.412v9.846h-1.566v-4.86h-0.036
		c-0.552,0.996-1.476,1.494-2.772,1.494c-1.021,0-1.875-0.405-2.565-1.215c-0.69-0.81-1.035-1.869-1.035-3.177
		c0-1.512,0.414-2.7,1.242-3.564c0.72-0.744,1.59-1.116,2.61-1.116c1.236,0,2.106,0.492,2.61,1.476h0.036l0.054-1.296H79.169z
		 M77.531,11.583V9.909c0-0.672-0.21-1.248-0.63-1.728c-0.42-0.479-0.966-0.72-1.638-0.72c-0.792,0-1.417,0.309-1.872,0.927
		c-0.457,0.618-0.684,1.425-0.684,2.421c0,0.924,0.204,1.68,0.612,2.268c0.444,0.648,1.074,0.972,1.89,0.972
		c0.504,0,0.954-0.15,1.35-0.45c0.396-0.3,0.678-0.72,0.846-1.26C77.489,12.087,77.531,11.835,77.531,11.583z"/>
	<path fill="#FFFFFF" d="M89.053,15.111h-1.386l-0.09-1.386h-0.054c-0.6,1.044-1.536,1.566-2.808,1.566
		c-0.816,0-1.476-0.252-1.98-0.756c-0.636-0.648-0.954-1.649-0.954-3.006v-5.13h1.566v4.842c0,1.848,0.63,2.772,1.89,2.772
		c0.479,0,0.918-0.156,1.314-0.468c0.335-0.264,0.576-0.588,0.72-0.972c0.096-0.24,0.144-0.51,0.144-0.81V6.399h1.566v6.336
		C88.98,13.515,89.004,14.307,89.053,15.111z"/>
	<path fill="#FFFFFF" d="M98.715,10.251c0,0.312-0.018,0.57-0.054,0.774h-5.976c0.024,1.02,0.324,1.794,0.9,2.322
		c0.504,0.468,1.182,0.702,2.034,0.702c0.864,0,1.644-0.144,2.34-0.432l0.27,1.116c-0.78,0.348-1.728,0.522-2.844,0.522
		c-1.296,0-2.319-0.396-3.069-1.188c-0.75-0.792-1.125-1.854-1.125-3.186c0-1.356,0.363-2.475,1.089-3.357
		c0.726-0.882,1.701-1.323,2.925-1.323c1.235,0,2.166,0.474,2.79,1.422C98.475,8.355,98.715,9.231,98.715,10.251z M97.203,9.891
		c0.012-0.66-0.126-1.218-0.414-1.674c-0.373-0.588-0.942-0.882-1.71-0.882c-0.72,0-1.296,0.288-1.728,0.864
		c-0.349,0.468-0.564,1.032-0.648,1.692H97.203z"/>
</svg>
