<?xml version="1.0" encoding="utf-8"?>
<!-- Generator: Adobe Illustrator 16.0.1, SVG Export Plug-In . SVG Version: 6.00 Build 0)  -->
<!DOCTYPE svg PUBLIC "-//W3C//DTD SVG 1.1//EN" "http://www.w3.org/Graphics/SVG/1.1/DTD/svg11.dtd">
<svg version="1.1" xmlns="http://www.w3.org/2000/svg" xmlns:xlink="http://www.w3.org/1999/xlink" x="0px" y="0px" width="130px"
	 height="20px" viewBox="0 0 130 20" enable-background="new 0 0 130 20" xml:space="preserve">
<g id="Help">
</g>
<g id="Nav">
	<g>
		<path fill="#FFFFFF" d="M29.411,2.979v12.132h-1.548V4.275h-5.454v10.836h-1.548V2.979H29.411z"/>
		<path fill="#FFFFFF" d="M39.911,10.683c0,1.344-0.366,2.437-1.098,3.276c-0.78,0.888-1.824,1.332-3.132,1.332
			c-1.26,0-2.268-0.432-3.024-1.296c-0.708-0.852-1.062-1.908-1.062-3.168c0-1.344,0.366-2.436,1.098-3.276
			c0.78-0.888,1.824-1.332,3.132-1.332c1.272,0,2.28,0.432,3.024,1.296C39.557,8.355,39.911,9.411,39.911,10.683z M38.309,10.737
			c0-0.876-0.204-1.626-0.612-2.25c-0.468-0.732-1.116-1.098-1.944-1.098c-0.84,0-1.5,0.366-1.98,1.098
			c-0.408,0.624-0.612,1.386-0.612,2.286c0,0.864,0.21,1.614,0.63,2.25c0.468,0.732,1.116,1.098,1.944,1.098
			c0.804,0,1.452-0.372,1.944-1.116C38.099,12.345,38.309,11.589,38.309,10.737z"/>
		<path fill="#FFFFFF" d="M48.596,6.399v7.524l0.882,0.018l-0.09,3.942h-1.242l-0.072-2.772h-5.85l-0.072,2.772H40.91l-0.072-3.942
			l0.72-0.018c0.192-0.276,0.357-0.564,0.495-0.864c0.138-0.3,0.254-0.606,0.351-0.918c0.168-0.54,0.294-1.101,0.378-1.683
			s0.126-1.179,0.126-1.791V6.399H48.596z M44.312,9.045c0,0.576-0.039,1.137-0.117,1.683s-0.189,1.065-0.333,1.557
			c-0.084,0.3-0.186,0.585-0.306,0.855c-0.12,0.27-0.246,0.525-0.378,0.765h3.87v-6.3h-2.736V9.045z"/>
		<path fill="#FFFFFF" d="M58.537,6.399v7.524l0.882,0.018l-0.09,3.942h-1.242l-0.072-2.772h-5.85l-0.072,2.772h-1.242l-0.072-3.942
			l0.72-0.018c0.192-0.276,0.357-0.564,0.495-0.864c0.138-0.3,0.254-0.606,0.351-0.918c0.168-0.54,0.294-1.101,0.378-1.683
			s0.126-1.179,0.126-1.791V6.399H58.537z M54.253,9.045c0,0.576-0.039,1.137-0.117,1.683s-0.189,1.065-0.333,1.557
			c-0.084,0.3-0.186,0.585-0.306,0.855c-0.12,0.27-0.246,0.525-0.378,0.765h3.87v-6.3h-2.736V9.045z"/>
		<path fill="#FFFFFF" d="M69.585,10.629c0,1.5-0.396,2.67-1.188,3.51c-0.696,0.768-1.59,1.152-2.682,1.152
			c-1.2,0-2.07-0.444-2.61-1.332h-0.036v4.698h-1.548V9.225c0-0.468-0.006-0.936-0.018-1.404c-0.012-0.468-0.03-0.942-0.054-1.422
			h1.404v1.458h0.108c0.66-1.092,1.662-1.638,3.006-1.638c1.056,0,1.919,0.408,2.592,1.224C69.243,8.259,69.585,9.321,69.585,10.629
			z M68.001,10.701c0-0.912-0.21-1.667-0.63-2.268c-0.468-0.648-1.092-0.972-1.872-0.972c-0.54,0-1.026,0.177-1.458,0.531
			c-0.432,0.354-0.72,0.819-0.864,1.395c-0.072,0.276-0.108,0.492-0.108,0.648v1.548c0,0.348,0.06,0.672,0.18,0.972
			c0.12,0.3,0.285,0.564,0.495,0.792c0.21,0.228,0.459,0.405,0.747,0.531s0.605,0.189,0.954,0.189c0.804,0,1.431-0.309,1.881-0.927
			C67.776,12.522,68.001,11.709,68.001,10.701z"/>
		<path fill="#FFFFFF" d="M74.751,6.399v2.934c0.204-0.024,0.432-0.042,0.684-0.054c0.252-0.012,0.51-0.018,0.774-0.018
			c0.444,0,0.891,0.048,1.341,0.144C78,9.501,78.408,9.66,78.774,9.882c0.366,0.222,0.663,0.522,0.891,0.9s0.342,0.849,0.342,1.413
			c0,0.456-0.081,0.846-0.243,1.17c-0.162,0.324-0.381,0.606-0.657,0.846c-0.24,0.204-0.504,0.369-0.792,0.495
			c-0.288,0.126-0.588,0.225-0.9,0.297c-0.312,0.072-0.633,0.123-0.963,0.153s-0.651,0.045-0.963,0.045
			c-0.42,0-0.825-0.012-1.215-0.036c-0.39-0.024-0.753-0.054-1.089-0.09V7.641h-2.52V6.399H74.751z M74.751,13.995
			c0.156,0.024,0.321,0.045,0.495,0.063c0.174,0.018,0.387,0.027,0.639,0.027c0.324,0,0.639-0.03,0.945-0.09
			c0.306-0.06,0.576-0.162,0.81-0.306s0.423-0.333,0.567-0.567c0.144-0.234,0.216-0.525,0.216-0.873
			c0-0.372-0.079-0.678-0.234-0.918c-0.156-0.24-0.357-0.429-0.603-0.567c-0.246-0.138-0.525-0.234-0.837-0.288
			c-0.312-0.054-0.624-0.081-0.936-0.081c-0.192,0-0.372,0.009-0.54,0.027s-0.342,0.039-0.522,0.063V13.995z"/>
		<path fill="#FFFFFF" d="M82.896,6.399l2.826,3.798h0.288V6.399h1.494v3.798h0.27L90.6,6.399h1.8l-3.384,3.96
			c0.648,0.072,1.172,0.3,1.575,0.684c0.402,0.384,0.735,0.924,0.999,1.62c0.144,0.42,0.291,0.846,0.441,1.278
			s0.309,0.822,0.477,1.17h-1.566c-0.132-0.264-0.261-0.567-0.387-0.909c-0.126-0.342-0.255-0.705-0.387-1.089
			c-0.264-0.708-0.597-1.194-0.999-1.458c-0.402-0.264-0.879-0.396-1.431-0.396h-0.234v3.852H86.01v-3.852h-0.252
			c-0.6,0-1.092,0.135-1.476,0.405s-0.708,0.759-0.972,1.467c-0.144,0.384-0.276,0.741-0.396,1.071
			c-0.12,0.331-0.258,0.633-0.414,0.909h-1.512c0.168-0.348,0.327-0.738,0.477-1.17c0.15-0.432,0.297-0.852,0.441-1.26
			c0.276-0.708,0.615-1.253,1.017-1.638c0.402-0.384,0.927-0.612,1.575-0.684l-3.402-3.96H82.896z"/>
		<path fill="#FFFFFF" d="M95.696,6.399v3.78h0.342l3.204-3.78h1.908l-3.726,3.942c0.696,0.072,1.266,0.333,1.71,0.783
			c0.444,0.45,0.834,1.071,1.17,1.863c0.12,0.288,0.252,0.627,0.396,1.017c0.144,0.39,0.318,0.759,0.522,1.107h-1.638
			c-0.12-0.192-0.25-0.447-0.387-0.765c-0.138-0.318-0.273-0.657-0.405-1.017c-0.3-0.708-0.666-1.227-1.098-1.557
			s-1.008-0.495-1.728-0.495h-0.27v3.834h-1.548V6.399H95.696z"/>
		<path fill="#FFFFFF" d="M107.622,15.111l-0.144-1.08h-0.036c-0.588,0.84-1.458,1.26-2.61,1.26c-0.816,0-1.464-0.252-1.944-0.756
			c-0.444-0.456-0.666-1.032-0.666-1.728c0-1.056,0.435-1.86,1.305-2.412c0.87-0.552,2.121-0.828,3.753-0.828h0.072v-0.18
			c0-1.344-0.648-2.016-1.944-2.016c-0.84,0-1.578,0.21-2.214,0.63l-0.36-1.044c0.78-0.492,1.722-0.738,2.826-0.738
			c2.16,0,3.24,1.176,3.24,3.528v3.294c0,0.828,0.048,1.518,0.144,2.07H107.622z M107.37,10.665h-0.27
			c-2.208,0-3.312,0.654-3.312,1.962c0,0.504,0.138,0.882,0.414,1.134s0.624,0.378,1.044,0.378c0.528,0,0.978-0.15,1.35-0.45
			c0.24-0.192,0.429-0.411,0.567-0.657c0.138-0.246,0.207-0.525,0.207-0.837V10.665z"/>
	</g>
	<g>
	</g>
	<g>
	</g>
	<g>
	</g>
	<g>
	</g>
	<g>
	</g>
	<g>
	</g>
	<g>
	</g>
	<g>
	</g>
	<g>
	</g>
	<g>
	</g>
	<g>
	</g>
	<g>
	</g>
	<g>
	</g>
	<g>
	</g>
	<g>
	</g>
</g>
</svg>
