<?xml version="1.0" encoding="utf-8"?>
<!-- Generator: Adobe Illustrator 16.0.1, SVG Export Plug-In . SVG Version: 6.00 Build 0)  -->
<!DOCTYPE svg PUBLIC "-//W3C//DTD SVG 1.1//EN" "http://www.w3.org/Graphics/SVG/1.1/DTD/svg11.dtd">
<svg version="1.1" xmlns="http://www.w3.org/2000/svg" xmlns:xlink="http://www.w3.org/1999/xlink" x="0px" y="0px" width="130px"
	 height="20px" viewBox="0 0 130 20" enable-background="new 0 0 130 20" xml:space="preserve">
<g id="Help">
</g>
<g id="Nav">
	<g>
		<path fill="#FFFFFF" d="M7.73,2.979v5.382h0.414l4.05-5.382h1.89L9.602,8.541c0.48,0.072,0.897,0.198,1.251,0.378
			c0.354,0.18,0.657,0.405,0.909,0.675s0.471,0.583,0.657,0.936c0.186,0.354,0.357,0.735,0.513,1.143
			c0.216,0.624,0.42,1.218,0.612,1.782s0.42,1.116,0.684,1.656h-1.692c-0.204-0.42-0.393-0.882-0.567-1.386
			c-0.174-0.504-0.345-0.996-0.513-1.476c-0.132-0.396-0.285-0.762-0.459-1.098c-0.174-0.336-0.387-0.621-0.639-0.855
			S9.803,9.879,9.449,9.747C9.095,9.615,8.666,9.549,8.162,9.549H7.73v5.562H6.182V2.979H7.73z"/>
		<path fill="#FFFFFF" d="M18.208,6.399v2.934c0.204-0.024,0.432-0.042,0.684-0.054c0.252-0.012,0.51-0.018,0.774-0.018
			c0.444,0,0.891,0.048,1.341,0.144c0.45,0.096,0.858,0.255,1.224,0.477c0.366,0.222,0.663,0.522,0.891,0.9s0.342,0.849,0.342,1.413
			c0,0.456-0.081,0.846-0.243,1.17c-0.162,0.324-0.381,0.606-0.657,0.846c-0.24,0.204-0.504,0.369-0.792,0.495
			c-0.288,0.126-0.588,0.225-0.9,0.297c-0.312,0.072-0.633,0.123-0.963,0.153s-0.651,0.045-0.963,0.045
			c-0.42,0-0.825-0.012-1.215-0.036c-0.39-0.024-0.753-0.054-1.089-0.09V7.641h-2.52V6.399H18.208z M18.208,13.995
			c0.156,0.024,0.321,0.045,0.495,0.063c0.174,0.018,0.387,0.027,0.639,0.027c0.324,0,0.639-0.03,0.945-0.09
			c0.306-0.06,0.576-0.162,0.81-0.306s0.423-0.333,0.567-0.567c0.144-0.234,0.216-0.525,0.216-0.873
			c0-0.372-0.079-0.678-0.234-0.918c-0.156-0.24-0.357-0.429-0.603-0.567c-0.246-0.138-0.525-0.234-0.837-0.288
			c-0.312-0.054-0.624-0.081-0.936-0.081c-0.192,0-0.372,0.009-0.54,0.027s-0.342,0.039-0.522,0.063V13.995z"/>
		<path fill="#FFFFFF" d="M32.374,6.399v7.524l0.882,0.018l-0.09,3.942h-1.242l-0.072-2.772h-5.85l-0.072,2.772h-1.242l-0.072-3.942
			l0.72-0.018c0.192-0.276,0.357-0.564,0.495-0.864c0.138-0.3,0.254-0.606,0.351-0.918c0.168-0.54,0.294-1.101,0.378-1.683
			s0.126-1.179,0.126-1.791V6.399H32.374z M28.089,9.045c0,0.576-0.039,1.137-0.117,1.683s-0.189,1.065-0.333,1.557
			c-0.084,0.3-0.186,0.585-0.306,0.855c-0.12,0.27-0.246,0.525-0.378,0.765h3.87v-6.3h-2.736V9.045z"/>
		<path fill="#FFFFFF" d="M42.142,10.251c0,0.324-0.018,0.582-0.054,0.774h-5.976c0.024,0.96,0.293,1.704,0.81,2.232
			c0.516,0.528,1.224,0.792,2.124,0.792c0.852,0,1.632-0.144,2.34-0.432l0.27,1.116c-0.792,0.348-1.74,0.522-2.844,0.522
			c-0.648,0-1.23-0.102-1.746-0.306c-0.516-0.204-0.957-0.498-1.323-0.882c-0.366-0.384-0.646-0.843-0.837-1.377
			c-0.192-0.534-0.288-1.137-0.288-1.809c0-1.344,0.36-2.46,1.08-3.348c0.744-0.888,1.722-1.332,2.934-1.332
			c1.235,0,2.166,0.474,2.79,1.422C41.902,8.355,42.142,9.231,42.142,10.251z M40.63,9.891c0-0.684-0.138-1.242-0.414-1.674
			c-0.373-0.588-0.942-0.882-1.71-0.882c-0.72,0-1.296,0.288-1.728,0.864c-0.349,0.468-0.564,1.032-0.648,1.692H40.63z"/>
		<path fill="#FFFFFF" d="M55.678,6.399v7.524l0.882,0.018l-0.09,3.942h-1.242l-0.072-2.772h-5.85l-0.072,2.772h-1.242l-0.072-3.942
			l0.72-0.018c0.192-0.276,0.357-0.564,0.495-0.864c0.138-0.3,0.254-0.606,0.351-0.918c0.168-0.54,0.294-1.101,0.378-1.683
			s0.126-1.179,0.126-1.791V6.399H55.678z M51.394,9.045c0,0.576-0.039,1.137-0.117,1.683s-0.189,1.065-0.333,1.557
			c-0.084,0.3-0.186,0.585-0.306,0.855c-0.12,0.27-0.246,0.525-0.378,0.765h3.87v-6.3h-2.736V9.045z"/>
		<path fill="#FFFFFF" d="M63.455,15.111l-0.144-1.08h-0.036c-0.588,0.84-1.458,1.26-2.61,1.26c-0.816,0-1.464-0.252-1.944-0.756
			c-0.444-0.456-0.666-1.032-0.666-1.728c0-1.056,0.435-1.86,1.305-2.412c0.87-0.552,2.121-0.828,3.753-0.828h0.072v-0.18
			c0-1.344-0.648-2.016-1.944-2.016c-0.84,0-1.578,0.21-2.214,0.63l-0.36-1.044c0.78-0.492,1.722-0.738,2.826-0.738
			c2.16,0,3.24,1.176,3.24,3.528v3.294c0,0.828,0.048,1.518,0.144,2.07H63.455z M63.203,10.665h-0.27
			c-2.208,0-3.312,0.654-3.312,1.962c0,0.504,0.138,0.882,0.414,1.134s0.624,0.378,1.044,0.378c0.528,0,0.978-0.15,1.35-0.45
			c0.24-0.192,0.429-0.411,0.567-0.657c0.138-0.246,0.207-0.525,0.207-0.837V10.665z"/>
		<path fill="#FFFFFF" d="M73.77,6.399v3.78h0.342l3.204-3.78h1.908l-3.726,3.942c0.696,0.072,1.266,0.333,1.71,0.783
			c0.444,0.45,0.834,1.071,1.17,1.863c0.12,0.288,0.252,0.627,0.396,1.017c0.144,0.39,0.318,0.759,0.522,1.107h-1.638
			c-0.12-0.192-0.25-0.447-0.387-0.765c-0.138-0.318-0.273-0.657-0.405-1.017c-0.3-0.708-0.666-1.227-1.098-1.557
			s-1.008-0.495-1.728-0.495h-0.27v3.834h-1.548V6.399H73.77z"/>
		<path fill="#FFFFFF" d="M88.374,6.399l-2.304,6.174c-0.288,0.78-0.558,1.455-0.81,2.025s-0.474,1.047-0.666,1.431
			c-0.457,0.864-0.942,1.53-1.458,1.998c-0.636,0.564-1.272,0.906-1.908,1.026l-0.414-1.314c0.516-0.168,0.978-0.432,1.386-0.792
			c0.54-0.456,0.966-1.038,1.278-1.746c0.084-0.156,0.126-0.276,0.126-0.36c0-0.072-0.036-0.21-0.108-0.414l-3.132-8.028h1.692
			l1.854,5.148c0.096,0.24,0.186,0.507,0.27,0.801c0.083,0.294,0.174,0.615,0.27,0.963h0.054c0.06-0.192,0.132-0.438,0.216-0.738
			c0.083-0.3,0.192-0.654,0.324-1.062l1.674-5.112H88.374z"/>
		<path fill="#FFFFFF" d="M97.16,6.399v8.712h-1.548V7.659H91.58v7.452h-1.548V6.399H97.16z"/>
		<path fill="#FFFFFF" d="M101.303,6.399v3.672c0,0.348,0,0.666,0,0.954s-0.003,0.57-0.009,0.846
			c-0.006,0.276-0.015,0.549-0.027,0.819c-0.012,0.27-0.024,0.561-0.036,0.873h0.054c0.12-0.264,0.231-0.504,0.333-0.72
			c0.102-0.216,0.204-0.426,0.306-0.63s0.204-0.411,0.306-0.621c0.102-0.21,0.225-0.441,0.369-0.693l2.664-4.5h1.836v8.712h-1.512
			v-3.69c0-0.36,0.003-0.681,0.009-0.963s0.012-0.558,0.018-0.828s0.015-0.546,0.027-0.828c0.012-0.282,0.024-0.597,0.036-0.945
			h-0.054c-0.132,0.276-0.255,0.531-0.369,0.765c-0.114,0.234-0.225,0.459-0.333,0.675s-0.219,0.426-0.333,0.63
			c-0.114,0.204-0.231,0.414-0.351,0.63c-0.408,0.684-0.84,1.422-1.296,2.214s-0.912,1.572-1.368,2.34H99.81V6.399H101.303z"/>
		<path fill="#FFFFFF" d="M115.633,6.399v1.26h-2.664v7.452h-1.548V7.659h-2.646v-1.26H115.633z"/>
		<path fill="#FFFFFF" d="M124.156,10.251c0,0.324-0.018,0.582-0.054,0.774h-5.976c0.024,0.96,0.293,1.704,0.81,2.232
			c0.516,0.528,1.224,0.792,2.124,0.792c0.852,0,1.632-0.144,2.34-0.432l0.27,1.116c-0.792,0.348-1.74,0.522-2.844,0.522
			c-0.648,0-1.23-0.102-1.746-0.306c-0.516-0.204-0.957-0.498-1.323-0.882c-0.366-0.384-0.646-0.843-0.837-1.377
			c-0.192-0.534-0.288-1.137-0.288-1.809c0-1.344,0.36-2.46,1.08-3.348c0.744-0.888,1.722-1.332,2.934-1.332
			c1.235,0,2.166,0.474,2.79,1.422C123.916,8.355,124.156,9.231,124.156,10.251z M122.644,9.891c0-0.684-0.138-1.242-0.414-1.674
			c-0.373-0.588-0.942-0.882-1.71-0.882c-0.72,0-1.296,0.288-1.728,0.864c-0.349,0.468-0.564,1.032-0.648,1.692H122.644z"/>
	</g>
	<g>
	</g>
	<g>
	</g>
	<g>
	</g>
	<g>
	</g>
	<g>
	</g>
	<g>
	</g>
	<g>
	</g>
	<g>
	</g>
	<g>
	</g>
	<g>
	</g>
	<g>
	</g>
	<g>
	</g>
	<g>
	</g>
	<g>
	</g>
	<g>
	</g>
</g>
</svg>
