<?xml version="1.0" encoding="utf-8"?>
<svg version="1.1" xmlns="http://www.w3.org/2000/svg" xmlns:xlink="http://www.w3.org/1999/xlink" width="130px" height="20px">
	<path fill="#FFFFFF" d="M59.629,11.655c0,0.972-0.342,1.782-1.026,2.43c-0.804,0.744-2.178,1.116-4.122,1.116
		c-0.828,0-1.626-0.042-2.394-0.126V3.141c0.78-0.167,1.716-0.252,2.808-0.252c1.452,0,2.544,0.294,3.276,0.882
		c0.672,0.528,1.008,1.242,1.008,2.142c0,0.588-0.183,1.123-0.549,1.602c-0.366,0.48-0.867,0.828-1.503,1.044v0.054
		c0.684,0.168,1.248,0.486,1.692,0.954C59.359,10.131,59.629,10.827,59.629,11.655z M57.595,6.057c0-1.32-0.87-1.98-2.61-1.98
		c-0.588,0-1.038,0.042-1.35,0.126v3.906h1.386c0.78,0,1.404-0.192,1.872-0.576C57.361,7.149,57.595,6.657,57.595,6.057z
		 M57.991,11.637c0-0.78-0.306-1.38-0.918-1.8c-0.552-0.372-1.278-0.558-2.178-0.558h-1.26v4.644
		c0.264,0.048,0.69,0.072,1.278,0.072c0.9,0,1.614-0.174,2.142-0.522C57.679,13.065,57.991,12.453,57.991,11.637z"/>
	<path fill="#FFFFFF" d="M69.076,15.111h-1.386l-0.09-1.386h-0.054c-0.6,1.044-1.536,1.566-2.808,1.566
		c-0.816,0-1.476-0.252-1.98-0.756c-0.636-0.648-0.954-1.649-0.954-3.006v-5.13h1.566v4.842c0,1.848,0.63,2.772,1.89,2.772
		c0.479,0,0.918-0.156,1.314-0.468c0.335-0.264,0.576-0.588,0.72-0.972c0.096-0.24,0.144-0.51,0.144-0.81V6.399h1.566v6.336
		C69.003,13.515,69.027,14.307,69.076,15.111z"/>
	<path fill="#FFFFFF" d="M78.754,6.399l-2.304,6.174c-0.588,1.548-1.08,2.7-1.476,3.456c-0.457,0.864-0.942,1.53-1.458,1.998
		c-0.624,0.564-1.26,0.906-1.908,1.026l-0.414-1.314c0.492-0.156,0.954-0.42,1.386-0.792c0.54-0.456,0.966-1.038,1.278-1.746
		c0.084-0.168,0.126-0.288,0.126-0.36c0-0.084-0.036-0.222-0.108-0.414l-3.132-8.028h1.692l1.854,5.148
		c0.18,0.48,0.36,1.068,0.54,1.764h0.054c0.108-0.384,0.288-0.984,0.54-1.8l1.674-5.112H78.754z"/>
</svg>
