<?xml version="1.0" encoding="utf-8"?>
<!-- Generator: Adobe Illustrator 16.0.1, SVG Export Plug-In . SVG Version: 6.00 Build 0)  -->
<!DOCTYPE svg PUBLIC "-//W3C//DTD SVG 1.1//EN" "http://www.w3.org/Graphics/SVG/1.1/DTD/svg11.dtd">
<svg version="1.1" xmlns="http://www.w3.org/2000/svg" xmlns:xlink="http://www.w3.org/1999/xlink" x="0px" y="0px" width="130px"
	 height="20px" viewBox="0 0 130 20" enable-background="new 0 0 130 20" xml:space="preserve">
<g id="Help">
</g>
<g id="Nav">
	<g>
		<path fill="#FFFFFF" d="M44.885,15.111h-1.656l-1.26-3.798h-4.194l-1.224,3.798h-1.602L38.98,2.979h1.872L44.885,15.111z
			 M41.663,10.089l-1.17-3.456c-0.132-0.42-0.336-1.17-0.612-2.25h-0.036c-0.12,0.492-0.318,1.236-0.594,2.232l-1.17,3.474H41.663z"
			/>
		<path fill="#FFFFFF" d="M50.63,7.587h-2.232v4.734c0,1.116,0.39,1.674,1.17,1.674c0.348,0,0.648-0.036,0.9-0.108l0.072,1.188
			c-0.36,0.132-0.822,0.198-1.386,0.198c-0.732,0-1.299-0.219-1.701-0.657c-0.402-0.438-0.603-1.185-0.603-2.241V7.587h-1.332V6.399
			h1.332V4.797l1.548-0.468v2.07h2.232V7.587z"/>
		<path fill="#FFFFFF" d="M60.585,10.647c0,1.464-0.402,2.628-1.206,3.492c-0.708,0.768-1.584,1.152-2.628,1.152
			c-1.272,0-2.214-0.528-2.826-1.584h-0.054L53.8,15.111h-1.35c0.048-0.696,0.072-1.44,0.072-2.232V2.349h1.548v5.436h0.036
			c0.588-1.044,1.554-1.566,2.898-1.566c1.056,0,1.917,0.408,2.583,1.224S60.585,9.327,60.585,10.647z M59.02,10.701
			c0-0.924-0.216-1.686-0.648-2.286c-0.468-0.636-1.098-0.954-1.89-0.954c-0.528,0-1.008,0.174-1.44,0.522s-0.726,0.81-0.882,1.386
			c-0.06,0.229-0.09,0.45-0.09,0.666v1.62c0,0.66,0.23,1.224,0.693,1.692c0.462,0.468,1.023,0.702,1.683,0.702
			c0.804,0,1.434-0.306,1.89-0.918S59.02,11.709,59.02,10.701z"/>
		<path fill="#FFFFFF" d="M69.013,15.111h-1.422l-0.144-1.08h-0.036c-0.6,0.84-1.47,1.26-2.61,1.26
			c-0.816,0-1.464-0.252-1.944-0.756c-0.444-0.468-0.666-1.044-0.666-1.728c0-1.056,0.444-1.863,1.332-2.421
			s2.154-0.831,3.798-0.819v-0.18c0-1.344-0.648-2.016-1.944-2.016c-0.84,0-1.578,0.21-2.214,0.63l-0.36-1.044
			c0.768-0.492,1.71-0.738,2.826-0.738c2.16,0,3.24,1.176,3.24,3.528v3.294C68.869,13.893,68.917,14.583,69.013,15.111z
			 M67.339,12.195v-1.53c-2.388-0.048-3.582,0.606-3.582,1.962c0,0.492,0.138,0.867,0.414,1.125
			c0.276,0.258,0.624,0.387,1.044,0.387c0.516,0,0.966-0.15,1.35-0.45c0.336-0.264,0.57-0.594,0.702-0.99
			C67.315,12.543,67.339,12.375,67.339,12.195z"/>
		<path fill="#FFFFFF" d="M73.123,15.111h-1.566V2.349h1.566V15.111z"/>
		<path fill="#FFFFFF" d="M80.812,12.681c0,0.78-0.288,1.407-0.864,1.881s-1.362,0.711-2.358,0.711
			c-0.924,0-1.722-0.192-2.394-0.576l0.378-1.188c0.648,0.408,1.332,0.612,2.052,0.612c1.116,0,1.674-0.432,1.674-1.296
			c0-0.372-0.12-0.678-0.36-0.918c-0.24-0.24-0.648-0.468-1.224-0.684c-1.524-0.576-2.286-1.397-2.286-2.466
			c0-0.72,0.273-1.323,0.819-1.809c0.546-0.486,1.263-0.729,2.151-0.729c0.828,0,1.53,0.174,2.106,0.522L80.11,7.893
			C79.582,7.557,79,7.389,78.364,7.389c-0.444,0-0.792,0.111-1.044,0.333c-0.252,0.222-0.378,0.507-0.378,0.855
			c0,0.336,0.132,0.612,0.396,0.828c0.216,0.204,0.624,0.42,1.224,0.648C80.062,10.641,80.812,11.517,80.812,12.681z"/>
		<path fill="#FFFFFF" d="M87.286,7.587h-2.232v4.734c0,1.116,0.39,1.674,1.17,1.674c0.348,0,0.648-0.036,0.9-0.108l0.072,1.188
			c-0.36,0.132-0.822,0.198-1.386,0.198c-0.732,0-1.299-0.219-1.701-0.657c-0.402-0.438-0.603-1.185-0.603-2.241V7.587h-1.332V6.399
			h1.332V4.797l1.548-0.468v2.07h2.232V7.587z"/>
		<path fill="#FFFFFF" d="M94.436,12.681c0,0.78-0.288,1.407-0.864,1.881s-1.362,0.711-2.358,0.711
			c-0.924,0-1.722-0.192-2.394-0.576l0.378-1.188c0.648,0.408,1.332,0.612,2.052,0.612c1.116,0,1.674-0.432,1.674-1.296
			c0-0.372-0.12-0.678-0.36-0.918c-0.24-0.24-0.648-0.468-1.224-0.684c-1.524-0.576-2.286-1.397-2.286-2.466
			c0-0.72,0.273-1.323,0.819-1.809c0.546-0.486,1.263-0.729,2.151-0.729c0.828,0,1.53,0.174,2.106,0.522l-0.396,1.152
			c-0.528-0.336-1.11-0.504-1.746-0.504c-0.444,0-0.792,0.111-1.044,0.333c-0.252,0.222-0.378,0.507-0.378,0.855
			c0,0.336,0.132,0.612,0.396,0.828c0.216,0.204,0.624,0.42,1.224,0.648C93.686,10.641,94.436,11.517,94.436,12.681z"/>
	</g>
	<g>
	</g>
	<g>
	</g>
	<g>
	</g>
	<g>
	</g>
	<g>
	</g>
	<g>
	</g>
	<g>
	</g>
	<g>
	</g>
	<g>
	</g>
	<g>
	</g>
	<g>
	</g>
	<g>
	</g>
	<g>
	</g>
	<g>
	</g>
	<g>
	</g>
</g>
</svg>
