<?xml version="1.0" encoding="utf-8"?>
<!-- Generator: Adobe Illustrator 16.0.1, SVG Export Plug-In . SVG Version: 6.00 Build 0)  -->
<!DOCTYPE svg PUBLIC "-//W3C//DTD SVG 1.1//EN" "http://www.w3.org/Graphics/SVG/1.1/DTD/svg11.dtd">
<svg version="1.1" xmlns="http://www.w3.org/2000/svg" xmlns:xlink="http://www.w3.org/1999/xlink" x="0px" y="0px" width="130px"
	 height="20px" viewBox="0 0 130 20" enable-background="new 0 0 130 20" xml:space="preserve">
<g id="Help">
</g>
<g id="Nav">
	<g>
		<path fill="#FFFFFF" d="M41.953,11.799c0,1.008-0.348,1.824-1.044,2.448c-0.756,0.684-1.806,1.026-3.15,1.026
			c-1.26,0-2.268-0.252-3.024-0.756l0.396-1.296c0.804,0.516,1.716,0.774,2.736,0.774c0.792,0,1.407-0.189,1.845-0.567
			s0.657-0.879,0.657-1.503c0-0.576-0.174-1.047-0.522-1.413c-0.348-0.366-0.924-0.699-1.728-0.999
			c-2.1-0.792-3.15-1.938-3.15-3.438c0-0.948,0.36-1.728,1.08-2.34c0.708-0.624,1.644-0.936,2.808-0.936
			c1.068,0,1.938,0.192,2.61,0.576l-0.432,1.278c-0.636-0.384-1.38-0.576-2.232-0.576c-0.756,0-1.338,0.198-1.746,0.594
			c-0.336,0.336-0.504,0.744-0.504,1.224c0,0.54,0.186,0.99,0.558,1.35c0.36,0.324,0.96,0.654,1.8,0.99
			c1.044,0.42,1.812,0.906,2.304,1.458C41.707,10.245,41.953,10.947,41.953,11.799z"/>
		<path fill="#FFFFFF" d="M49.878,15.111l-0.09-1.386h-0.054c-0.6,1.044-1.536,1.566-2.808,1.566c-0.816,0-1.476-0.252-1.98-0.756
			c-0.636-0.66-0.954-1.662-0.954-3.006v-5.13h1.566v4.842c0,1.848,0.63,2.772,1.89,2.772c0.468,0,0.906-0.156,1.314-0.468
			c0.335-0.264,0.576-0.588,0.72-0.972c0.096-0.252,0.144-0.522,0.144-0.81V6.399h1.566v6.336c0,0.384,0.006,0.774,0.018,1.17
			c0.012,0.396,0.03,0.798,0.054,1.206H49.878z"/>
		<path fill="#FFFFFF" d="M62.012,10.629c0,1.5-0.396,2.67-1.188,3.51c-0.696,0.768-1.59,1.152-2.682,1.152
			c-1.2,0-2.07-0.444-2.61-1.332h-0.036v4.698h-1.548V9.225c0-0.468-0.006-0.936-0.018-1.404c-0.012-0.468-0.03-0.942-0.054-1.422
			h1.404l0.072,1.458h0.036c0.66-1.092,1.662-1.638,3.006-1.638c1.056,0,1.919,0.408,2.592,1.224
			C61.67,8.259,62.012,9.321,62.012,10.629z M60.428,10.701c0-0.912-0.21-1.667-0.63-2.268c-0.468-0.648-1.092-0.972-1.872-0.972
			c-0.54,0-1.026,0.177-1.458,0.531c-0.432,0.354-0.72,0.819-0.864,1.395c-0.072,0.276-0.108,0.492-0.108,0.648v1.548
			c0,0.348,0.06,0.672,0.18,0.972c0.12,0.3,0.285,0.564,0.495,0.792c0.21,0.228,0.459,0.405,0.747,0.531s0.605,0.189,0.954,0.189
			c0.804,0,1.431-0.309,1.881-0.927C60.203,12.522,60.428,11.709,60.428,10.701z"/>
		<path fill="#FFFFFF" d="M72.295,10.629c0,1.5-0.396,2.67-1.188,3.51c-0.696,0.768-1.59,1.152-2.682,1.152
			c-1.2,0-2.07-0.444-2.61-1.332H65.78v4.698h-1.548V9.225c0-0.468-0.006-0.936-0.018-1.404c-0.012-0.468-0.03-0.942-0.054-1.422
			h1.404l0.072,1.458h0.036c0.66-1.092,1.662-1.638,3.006-1.638c1.056,0,1.919,0.408,2.592,1.224
			C71.954,8.259,72.295,9.321,72.295,10.629z M70.711,10.701c0-0.912-0.21-1.667-0.63-2.268c-0.468-0.648-1.092-0.972-1.872-0.972
			c-0.54,0-1.026,0.177-1.458,0.531c-0.432,0.354-0.72,0.819-0.864,1.395c-0.072,0.276-0.108,0.492-0.108,0.648v1.548
			c0,0.348,0.06,0.672,0.18,0.972c0.12,0.3,0.285,0.564,0.495,0.792c0.21,0.228,0.459,0.405,0.747,0.531s0.605,0.189,0.954,0.189
			c0.804,0,1.431-0.309,1.881-0.927C70.486,12.522,70.711,11.709,70.711,10.701z"/>
		<path fill="#FFFFFF" d="M82.316,10.683c0,1.344-0.366,2.437-1.098,3.276c-0.78,0.888-1.824,1.332-3.132,1.332
			c-1.26,0-2.268-0.432-3.024-1.296C74.354,13.143,74,12.087,74,10.827c0-1.344,0.366-2.436,1.098-3.276
			c0.78-0.888,1.824-1.332,3.132-1.332c1.26,0,2.268,0.432,3.024,1.296C81.962,8.355,82.316,9.411,82.316,10.683z M80.714,10.737
			c0-0.876-0.204-1.626-0.612-2.25c-0.468-0.732-1.116-1.098-1.944-1.098c-0.852,0-1.512,0.366-1.98,1.098
			c-0.408,0.624-0.612,1.386-0.612,2.286c0,0.864,0.21,1.614,0.63,2.25c0.468,0.732,1.116,1.098,1.944,1.098
			c0.804,0,1.452-0.372,1.944-1.116C80.504,12.345,80.714,11.589,80.714,10.737z"/>
		<path fill="#FFFFFF" d="M88.774,7.731c-0.084-0.012-0.171-0.021-0.261-0.027c-0.09-0.006-0.183-0.009-0.279-0.009
			c-0.72,0-1.266,0.294-1.638,0.882c-0.349,0.528-0.522,1.152-0.522,1.872v4.662h-1.548v-6.03c0-0.468-0.006-0.927-0.018-1.377
			c-0.012-0.45-0.03-0.885-0.054-1.305h1.386l0.072,1.692h0.054c0.192-0.576,0.507-1.032,0.945-1.368
			c0.438-0.335,0.915-0.504,1.431-0.504c0.084,0,0.162,0.003,0.234,0.009c0.072,0.006,0.138,0.015,0.198,0.027V7.731z"/>
		<path fill="#FFFFFF" d="M95.189,7.587h-2.232v4.734c0,1.116,0.39,1.674,1.17,1.674c0.348,0,0.648-0.036,0.9-0.108l0.072,1.188
			c-0.372,0.132-0.834,0.198-1.386,0.198c-0.732,0-1.299-0.219-1.701-0.657c-0.402-0.438-0.603-1.185-0.603-2.241V7.587h-1.332
			V6.399h1.332V4.797l1.548-0.468v2.07h2.232V7.587z"/>
	</g>
	<g>
	</g>
	<g>
	</g>
	<g>
	</g>
	<g>
	</g>
	<g>
	</g>
	<g>
	</g>
	<g>
	</g>
	<g>
	</g>
	<g>
	</g>
	<g>
	</g>
	<g>
	</g>
	<g>
	</g>
	<g>
	</g>
	<g>
	</g>
	<g>
	</g>
</g>
</svg>
