<?xml version="1.0" encoding="utf-8"?>
<!-- Generator: Adobe Illustrator 16.0.1, SVG Export Plug-In . SVG Version: 6.00 Build 0)  -->
<!DOCTYPE svg PUBLIC "-//W3C//DTD SVG 1.1//EN" "http://www.w3.org/Graphics/SVG/1.1/DTD/svg11.dtd">
<svg version="1.1" xmlns="http://www.w3.org/2000/svg" xmlns:xlink="http://www.w3.org/1999/xlink" x="0px" y="0px" width="130px"
	 height="20px" viewBox="0 0 130 20" enable-background="new 0 0 130 20" xml:space="preserve">
<g id="Help">
</g>
<g id="Nav">
	<g>
		<path fill="#FFFFFF" d="M28.158,2.979l-3.366,12.132h-1.62l-1.494-6.282c-0.204-0.828-0.372-1.572-0.504-2.232
			c-0.132-0.66-0.228-1.242-0.288-1.746H20.85c-0.144,0.936-0.45,2.262-0.918,3.978l-1.674,6.282H16.62L13.596,2.979h1.656
			l1.404,6.12c0.18,0.768,0.342,1.5,0.486,2.196s0.276,1.368,0.396,2.016h0.036c0.144-0.864,0.468-2.274,0.972-4.23l1.602-6.102
			h1.584l1.458,6.12c0.204,0.864,0.375,1.641,0.513,2.331c0.138,0.69,0.249,1.305,0.333,1.845h0.036
			c0.108-0.612,0.24-1.263,0.396-1.953c0.156-0.69,0.336-1.437,0.54-2.241l1.566-6.102H28.158z"/>
		<path fill="#FFFFFF" d="M37.156,15.111H35.59v-5.058c0-1.692-0.654-2.538-1.962-2.538c-0.48,0-0.909,0.147-1.287,0.441
			s-0.645,0.669-0.801,1.125c-0.061,0.216-0.09,0.462-0.09,0.738v5.292h-1.566V2.349h1.566v5.382h0.036
			c0.276-0.468,0.657-0.837,1.143-1.107s1.005-0.405,1.557-0.405c0.768,0,1.41,0.24,1.926,0.72c0.696,0.648,1.044,1.632,1.044,2.952
			V15.111z"/>
		<path fill="#FFFFFF" d="M46.827,10.251c0,0.324-0.018,0.582-0.054,0.774h-5.976c0.012,1.02,0.312,1.794,0.9,2.322
			c0.504,0.468,1.182,0.702,2.034,0.702s1.632-0.144,2.34-0.432l0.27,1.116c-0.792,0.348-1.74,0.522-2.844,0.522
			c-0.648,0-1.23-0.102-1.746-0.306c-0.516-0.204-0.957-0.498-1.323-0.882c-0.366-0.384-0.646-0.843-0.837-1.377
			c-0.192-0.534-0.288-1.137-0.288-1.809c0-1.344,0.36-2.46,1.08-3.348c0.744-0.888,1.722-1.332,2.934-1.332
			c1.235,0,2.166,0.474,2.79,1.422C46.587,8.355,46.827,9.231,46.827,10.251z M45.315,9.891c0.012-0.66-0.126-1.218-0.414-1.674
			c-0.373-0.588-0.942-0.882-1.71-0.882c-0.72,0-1.296,0.288-1.728,0.864c-0.349,0.468-0.564,1.032-0.648,1.692H45.315z"/>
		<path fill="#FFFFFF" d="M53.246,7.731c-0.084-0.012-0.171-0.021-0.261-0.027c-0.09-0.006-0.183-0.009-0.279-0.009
			c-0.72,0-1.266,0.294-1.638,0.882c-0.349,0.528-0.522,1.152-0.522,1.872v4.662h-1.548v-6.03c0-0.468-0.006-0.927-0.018-1.377
			c-0.012-0.45-0.03-0.885-0.054-1.305h1.386l0.072,1.692h0.054c0.192-0.576,0.507-1.032,0.945-1.368
			c0.438-0.335,0.915-0.504,1.431-0.504c0.084,0,0.162,0.003,0.234,0.009c0.072,0.006,0.138,0.015,0.198,0.027V7.731z"/>
		<path fill="#FFFFFF" d="M61.86,10.251c0,0.324-0.018,0.582-0.054,0.774h-5.976c0.012,1.02,0.312,1.794,0.9,2.322
			c0.504,0.468,1.182,0.702,2.034,0.702s1.632-0.144,2.34-0.432l0.27,1.116c-0.792,0.348-1.74,0.522-2.844,0.522
			c-0.648,0-1.23-0.102-1.746-0.306c-0.516-0.204-0.957-0.498-1.323-0.882c-0.366-0.384-0.646-0.843-0.837-1.377
			c-0.192-0.534-0.288-1.137-0.288-1.809c0-1.344,0.36-2.46,1.08-3.348c0.744-0.888,1.722-1.332,2.934-1.332
			c1.235,0,2.166,0.474,2.79,1.422C61.62,8.355,61.86,9.231,61.86,10.251z M60.348,9.891c0.012-0.66-0.126-1.218-0.414-1.674
			c-0.373-0.588-0.942-0.882-1.71-0.882c-0.72,0-1.296,0.288-1.728,0.864c-0.349,0.468-0.564,1.032-0.648,1.692H60.348z"/>
		<path fill="#FFFFFF" d="M72.948,7.587h-2.232v4.734c0,1.116,0.39,1.674,1.17,1.674c0.348,0,0.648-0.036,0.9-0.108l0.072,1.188
			c-0.372,0.132-0.834,0.198-1.386,0.198c-0.732,0-1.299-0.219-1.701-0.657c-0.402-0.438-0.603-1.185-0.603-2.241V7.587h-1.332
			V6.399h1.332V4.797l1.548-0.468v2.07h2.232V7.587z"/>
		<path fill="#FFFFFF" d="M82.443,10.683c0,1.344-0.366,2.437-1.098,3.276c-0.78,0.888-1.824,1.332-3.132,1.332
			c-1.26,0-2.268-0.432-3.024-1.296c-0.708-0.852-1.062-1.908-1.062-3.168c0-1.344,0.366-2.436,1.098-3.276
			c0.78-0.888,1.824-1.332,3.132-1.332c1.26,0,2.268,0.432,3.024,1.296C82.089,8.355,82.443,9.411,82.443,10.683z M80.841,10.737
			c0-0.876-0.204-1.626-0.612-2.25c-0.468-0.732-1.116-1.098-1.944-1.098c-0.852,0-1.512,0.366-1.98,1.098
			c-0.408,0.624-0.612,1.386-0.612,2.286c0,0.864,0.21,1.614,0.63,2.25c0.468,0.732,1.116,1.098,1.944,1.098
			c0.804,0,1.452-0.372,1.944-1.116C80.631,12.345,80.841,11.589,80.841,10.737z"/>
		<path fill="#FFFFFF" d="M97.041,11.655c0,0.972-0.342,1.782-1.026,2.43c-0.816,0.744-2.19,1.116-4.122,1.116
			c-0.42,0-0.828-0.009-1.224-0.027s-0.786-0.051-1.17-0.099V3.141c0.804-0.167,1.74-0.252,2.808-0.252
			c1.452,0,2.544,0.294,3.276,0.882c0.672,0.528,1.008,1.242,1.008,2.142c0,0.588-0.18,1.123-0.54,1.602
			c-0.36,0.48-0.864,0.828-1.512,1.044v0.054c0.672,0.156,1.236,0.474,1.692,0.954C96.771,10.131,97.041,10.827,97.041,11.655z
			 M95.007,6.057c0-1.32-0.87-1.98-2.61-1.98c-0.612,0-1.062,0.042-1.35,0.126v3.906h1.386c0.792,0,1.419-0.189,1.881-0.567
			S95.007,6.669,95.007,6.057z M95.403,11.637c0-0.78-0.306-1.38-0.918-1.8c-0.552-0.372-1.278-0.558-2.178-0.558h-1.26v4.644
			c0.24,0.048,0.666,0.072,1.278,0.072c0.9,0,1.614-0.174,2.142-0.522C95.091,13.065,95.403,12.453,95.403,11.637z"/>
		<path fill="#FFFFFF" d="M105.101,15.111l-0.09-1.386h-0.054c-0.6,1.044-1.536,1.566-2.808,1.566c-0.816,0-1.476-0.252-1.98-0.756
			c-0.636-0.66-0.954-1.662-0.954-3.006v-5.13h1.566v4.842c0,1.848,0.63,2.772,1.89,2.772c0.468,0,0.906-0.156,1.314-0.468
			c0.335-0.264,0.576-0.588,0.72-0.972c0.096-0.252,0.144-0.522,0.144-0.81V6.399h1.566v6.336c0,0.384,0.006,0.774,0.018,1.17
			c0.012,0.396,0.03,0.798,0.054,1.206H105.101z"/>
		<path fill="#FFFFFF" d="M116.166,6.399l-2.304,6.174c-0.3,0.78-0.57,1.455-0.81,2.025c-0.24,0.57-0.462,1.047-0.666,1.431
			c-0.457,0.864-0.942,1.53-1.458,1.998c-0.636,0.564-1.272,0.906-1.908,1.026l-0.414-1.314c0.516-0.168,0.978-0.432,1.386-0.792
			c0.54-0.456,0.966-1.038,1.278-1.746c0.084-0.156,0.126-0.276,0.126-0.36c0-0.072-0.036-0.21-0.108-0.414l-3.132-8.028h1.692
			l1.854,5.148c0.096,0.24,0.186,0.507,0.27,0.801c0.083,0.294,0.174,0.615,0.27,0.963h0.054l0.54-1.8l1.674-5.112H116.166z"/>
	</g>
	<g>
	</g>
	<g>
	</g>
	<g>
	</g>
	<g>
	</g>
	<g>
	</g>
	<g>
	</g>
	<g>
	</g>
	<g>
	</g>
	<g>
	</g>
	<g>
	</g>
	<g>
	</g>
	<g>
	</g>
	<g>
	</g>
	<g>
	</g>
	<g>
	</g>
</g>
</svg>
