<?xml version="1.0" encoding="utf-8"?>
<!-- Generator: Adobe Illustrator 16.0.1, SVG Export Plug-In . SVG Version: 6.00 Build 0)  -->
<!DOCTYPE svg PUBLIC "-//W3C//DTD SVG 1.1//EN" "http://www.w3.org/Graphics/SVG/1.1/DTD/svg11.dtd">
<svg version="1.1" xmlns="http://www.w3.org/2000/svg" xmlns:xlink="http://www.w3.org/1999/xlink" x="0px" y="0px" width="130px"
	 height="20px" viewBox="0 0 130 20" enable-background="new 0 0 130 20" xml:space="preserve">
<g id="Help">
</g>
<g id="Nav">
	<g>
		<path fill="#FFFFFF" d="M45.63,2.979l-3.366,12.132h-1.62L39.15,8.829c-0.396-1.656-0.66-2.981-0.792-3.978h-0.036
			c-0.144,0.924-0.45,2.25-0.918,3.978l-1.674,6.282h-1.638L31.068,2.979h1.656l1.404,6.12c0.36,1.537,0.654,2.94,0.882,4.212h0.036
			c0.144-0.876,0.468-2.286,0.972-4.23l1.602-6.102h1.584l1.458,6.12c0.408,1.716,0.69,3.108,0.846,4.176h0.036
			c0.216-1.2,0.528-2.598,0.936-4.194l1.566-6.102H45.63z"/>
		<path fill="#FFFFFF" d="M51.84,12.681c0,0.78-0.288,1.407-0.864,1.881s-1.362,0.711-2.358,0.711c-0.924,0-1.722-0.192-2.394-0.576
			l0.378-1.188c0.648,0.408,1.332,0.612,2.052,0.612c1.116,0,1.674-0.432,1.674-1.296c0-0.372-0.12-0.678-0.36-0.918
			c-0.24-0.24-0.648-0.468-1.224-0.684c-1.524-0.576-2.286-1.397-2.286-2.466c0-0.72,0.273-1.323,0.819-1.809
			c0.546-0.486,1.263-0.729,2.151-0.729c0.828,0,1.53,0.174,2.106,0.522l-0.396,1.152c-0.528-0.336-1.11-0.504-1.746-0.504
			c-0.444,0-0.792,0.111-1.044,0.333c-0.252,0.222-0.378,0.507-0.378,0.855c0,0.336,0.132,0.612,0.396,0.828
			c0.216,0.204,0.624,0.42,1.224,0.648C51.09,10.641,51.84,11.517,51.84,12.681z"/>
		<path fill="#FFFFFF" d="M62.032,10.629c0,1.488-0.396,2.658-1.188,3.51c-0.708,0.768-1.602,1.152-2.682,1.152
			c-1.2,0-2.07-0.444-2.61-1.332h-0.036v4.698h-1.548V9.225c0-0.936-0.024-1.877-0.072-2.826H55.3l0.072,1.458h0.036
			c0.66-1.092,1.662-1.638,3.006-1.638c1.056,0,1.923,0.408,2.601,1.224C61.693,8.259,62.032,9.321,62.032,10.629z M60.448,10.701
			c0-0.912-0.21-1.667-0.63-2.268c-0.468-0.648-1.092-0.972-1.872-0.972c-0.54,0-1.026,0.18-1.458,0.54
			c-0.432,0.36-0.72,0.822-0.864,1.386c-0.072,0.276-0.108,0.492-0.108,0.648v1.548c0,0.696,0.222,1.284,0.666,1.764
			c0.444,0.48,1.014,0.72,1.71,0.72c0.804,0,1.431-0.309,1.881-0.927C60.223,12.522,60.448,11.709,60.448,10.701z"/>
		<path fill="#FFFFFF" d="M70.459,15.111h-1.422l-0.144-1.08h-0.036c-0.6,0.84-1.47,1.26-2.61,1.26
			c-0.816,0-1.464-0.252-1.944-0.756c-0.444-0.468-0.666-1.044-0.666-1.728c0-1.056,0.444-1.863,1.332-2.421
			s2.154-0.831,3.798-0.819v-0.18c0-1.344-0.648-2.016-1.944-2.016c-0.84,0-1.578,0.21-2.214,0.63l-0.36-1.044
			c0.768-0.492,1.71-0.738,2.826-0.738c2.16,0,3.24,1.176,3.24,3.528v3.294C70.315,13.893,70.363,14.583,70.459,15.111z
			 M68.785,12.195v-1.53c-2.388-0.048-3.582,0.606-3.582,1.962c0,0.492,0.138,0.867,0.414,1.125
			c0.276,0.258,0.624,0.387,1.044,0.387c0.516,0,0.966-0.15,1.35-0.45c0.336-0.264,0.57-0.594,0.702-0.99
			C68.761,12.543,68.785,12.375,68.785,12.195z"/>
		<path fill="#FFFFFF" d="M77.232,7.731c-0.156-0.024-0.336-0.036-0.54-0.036c-0.708,0-1.254,0.294-1.638,0.882
			c-0.349,0.516-0.522,1.14-0.522,1.872v4.662h-1.548v-6.03c0-0.936-0.024-1.83-0.072-2.682h1.386l0.072,1.692h0.054
			c0.192-0.576,0.507-1.032,0.945-1.368c0.438-0.335,0.915-0.504,1.431-0.504c0.168,0,0.312,0.012,0.432,0.036V7.731z"/>
		<path fill="#FFFFFF" d="M84.981,6.669L84.64,7.875c-0.504-0.276-1.098-0.414-1.782-0.414c-0.948,0-1.692,0.33-2.232,0.99
			c-0.516,0.601-0.774,1.375-0.774,2.322c0,0.984,0.276,1.773,0.828,2.367c0.552,0.594,1.266,0.891,2.142,0.891
			c0.624,0,1.248-0.138,1.872-0.414l0.252,1.188c-0.66,0.312-1.464,0.468-2.412,0.468c-1.296,0-2.331-0.402-3.105-1.206
			c-0.774-0.804-1.161-1.878-1.161-3.222c0-1.356,0.42-2.466,1.26-3.33c0.84-0.864,1.95-1.296,3.33-1.296
			C83.722,6.219,84.429,6.369,84.981,6.669z"/>
		<path fill="#FFFFFF" d="M88.663,3.789c0,0.3-0.096,0.543-0.288,0.729s-0.438,0.279-0.738,0.279c-0.288,0-0.525-0.096-0.711-0.288
			c-0.186-0.192-0.279-0.432-0.279-0.72c0-0.288,0.096-0.528,0.288-0.72c0.192-0.192,0.432-0.288,0.72-0.288
			c0.3,0,0.543,0.093,0.729,0.279S88.663,3.489,88.663,3.789z M88.446,15.111H86.88V6.399h1.566V15.111z"/>
		<path fill="#FFFFFF" d="M98.189,10.251c0,0.312-0.018,0.57-0.054,0.774H92.16c0.024,1.02,0.324,1.794,0.9,2.322
			c0.504,0.468,1.182,0.702,2.034,0.702c0.864,0,1.644-0.144,2.34-0.432l0.27,1.116c-0.78,0.348-1.728,0.522-2.844,0.522
			c-1.296,0-2.319-0.396-3.069-1.188c-0.75-0.792-1.125-1.854-1.125-3.186c0-1.356,0.363-2.475,1.089-3.357
			c0.726-0.882,1.701-1.323,2.925-1.323c1.235,0,2.166,0.474,2.79,1.422C97.949,8.355,98.189,9.231,98.189,10.251z M96.677,9.891
			c0.012-0.66-0.126-1.218-0.414-1.674c-0.373-0.588-0.942-0.882-1.71-0.882c-0.72,0-1.296,0.288-1.728,0.864
			c-0.349,0.468-0.564,1.032-0.648,1.692H96.677z"/>
	</g>
	<g>
	</g>
	<g>
	</g>
	<g>
	</g>
	<g>
	</g>
	<g>
	</g>
	<g>
	</g>
	<g>
	</g>
	<g>
	</g>
	<g>
	</g>
	<g>
	</g>
	<g>
	</g>
	<g>
	</g>
	<g>
	</g>
	<g>
	</g>
	<g>
	</g>
</g>
</svg>
