<?xml version="1.0" encoding="utf-8"?>
<!-- Generator: Adobe Illustrator 16.0.1, SVG Export Plug-In . SVG Version: 6.00 Build 0)  -->
<!DOCTYPE svg PUBLIC "-//W3C//DTD SVG 1.1//EN" "http://www.w3.org/Graphics/SVG/1.1/DTD/svg11.dtd">
<svg version="1.1" xmlns="http://www.w3.org/2000/svg" xmlns:xlink="http://www.w3.org/1999/xlink" x="0px" y="0px" width="130px"
	 height="20px" viewBox="0 0 130 20" enable-background="new 0 0 130 20" xml:space="preserve">
<g id="Help">
</g>
<g id="Nav">
	<g>
		<path fill="#FFFFFF" d="M52.214,11.799c0,0.996-0.348,1.812-1.044,2.448c-0.756,0.684-1.806,1.026-3.15,1.026
			c-1.26,0-2.268-0.252-3.024-0.756l0.396-1.296c0.816,0.516,1.728,0.774,2.736,0.774c0.78,0,1.392-0.189,1.836-0.567
			c0.444-0.378,0.666-0.879,0.666-1.503c0-0.564-0.174-1.032-0.522-1.404c-0.348-0.372-0.924-0.708-1.728-1.008
			c-2.1-0.792-3.15-1.938-3.15-3.438c0-0.948,0.36-1.73,1.08-2.349c0.72-0.618,1.656-0.927,2.808-0.927
			c1.068,0,1.938,0.192,2.61,0.576l-0.432,1.278c-0.624-0.384-1.368-0.576-2.232-0.576c-0.744,0-1.326,0.198-1.746,0.594
			c-0.336,0.336-0.504,0.744-0.504,1.224c0,0.54,0.186,0.99,0.558,1.35c0.348,0.312,0.948,0.642,1.8,0.99
			c1.044,0.42,1.812,0.906,2.304,1.458C51.968,10.245,52.214,10.947,52.214,11.799z"/>
		<path fill="#FFFFFF" d="M61.523,15.111h-1.908L56.7,10.935l-0.792,0.9v3.276h-1.548V2.349h1.548v8.046h0.036
			c0.252-0.36,0.498-0.69,0.738-0.99l2.52-3.006h1.872l-3.294,3.6L61.523,15.111z"/>
		<path fill="#FFFFFF" d="M64.677,15.111h-1.566V2.349h1.566V15.111z"/>
		<path fill="#FFFFFF" d="M74.459,10.251c0,0.312-0.018,0.57-0.054,0.774H68.43c0.024,1.02,0.324,1.794,0.9,2.322
			c0.504,0.468,1.182,0.702,2.034,0.702c0.864,0,1.644-0.144,2.34-0.432l0.27,1.116c-0.78,0.348-1.728,0.522-2.844,0.522
			c-1.296,0-2.319-0.396-3.069-1.188c-0.75-0.792-1.125-1.854-1.125-3.186c0-1.356,0.363-2.475,1.089-3.357
			c0.726-0.882,1.701-1.323,2.925-1.323c1.235,0,2.166,0.474,2.79,1.422C74.219,8.355,74.459,9.231,74.459,10.251z M72.947,9.891
			c0.012-0.66-0.126-1.218-0.414-1.674c-0.373-0.588-0.942-0.882-1.71-0.882c-0.72,0-1.296,0.288-1.728,0.864
			c-0.349,0.468-0.564,1.032-0.648,1.692H72.947z"/>
		<path fill="#FFFFFF" d="M84.694,10.629c0,1.488-0.396,2.658-1.188,3.51c-0.708,0.768-1.602,1.152-2.682,1.152
			c-1.2,0-2.07-0.444-2.61-1.332h-0.036v4.698H76.63V9.225c0-0.936-0.024-1.877-0.072-2.826h1.404l0.072,1.458h0.036
			c0.66-1.092,1.662-1.638,3.006-1.638c1.056,0,1.923,0.408,2.601,1.224C84.355,8.259,84.694,9.321,84.694,10.629z M83.11,10.701
			c0-0.912-0.21-1.667-0.63-2.268c-0.468-0.648-1.092-0.972-1.872-0.972c-0.54,0-1.026,0.18-1.458,0.54
			c-0.432,0.36-0.72,0.822-0.864,1.386c-0.072,0.276-0.108,0.492-0.108,0.648v1.548c0,0.696,0.222,1.284,0.666,1.764
			c0.444,0.48,1.014,0.72,1.71,0.72c0.804,0,1.431-0.309,1.881-0.927C82.885,12.522,83.11,11.709,83.11,10.701z"/>
	</g>
	<g>
	</g>
	<g>
	</g>
	<g>
	</g>
	<g>
	</g>
	<g>
	</g>
	<g>
	</g>
	<g>
	</g>
	<g>
	</g>
	<g>
	</g>
	<g>
	</g>
	<g>
	</g>
	<g>
	</g>
	<g>
	</g>
	<g>
	</g>
	<g>
	</g>
</g>
</svg>
