<?xml version="1.0" encoding="utf-8"?>
<!-- Generator: Adobe Illustrator 16.0.1, SVG Export Plug-In . SVG Version: 6.00 Build 0)  -->
<!DOCTYPE svg PUBLIC "-//W3C//DTD SVG 1.1//EN" "http://www.w3.org/Graphics/SVG/1.1/DTD/svg11.dtd">
<svg version="1.1" xmlns="http://www.w3.org/2000/svg" xmlns:xlink="http://www.w3.org/1999/xlink" x="0px" y="0px" width="130px"
	 height="20px" viewBox="0 0 130 20" enable-background="new 0 0 130 20" xml:space="preserve">
<g id="Help">
</g>
<g id="Nav">
	<g>
		<path fill="#FFFFFF" d="M41.585,6.391c0,0.634-0.111,1.191-0.333,1.669c-0.222,0.479-0.531,0.883-0.927,1.212
			s-0.873,0.577-1.431,0.745c-0.558,0.167-1.167,0.251-1.827,0.251c-0.601,0-1.026-0.042-1.278-0.124v4.966h-1.368V3.141
			c0.432-0.084,0.885-0.144,1.359-0.18c0.474-0.036,0.969-0.054,1.485-0.054c1.416,0,2.49,0.312,3.222,0.934
			S41.585,5.313,41.585,6.391z M40.217,6.479c0-0.831-0.264-1.454-0.792-1.87c-0.528-0.415-1.242-0.623-2.142-0.623
			c-0.648,0-1.146,0.042-1.494,0.126v4.931c0.36,0.096,0.798,0.145,1.314,0.145c0.972,0,1.734-0.235,2.286-0.705
			C39.94,8.015,40.217,7.347,40.217,6.479z"/>
		<path fill="#FFFFFF" d="M51.069,10.683c0,0.684-0.102,1.308-0.306,1.872c-0.204,0.564-0.492,1.05-0.864,1.458
			c-0.373,0.408-0.813,0.727-1.323,0.954c-0.51,0.228-1.077,0.342-1.701,0.342c-0.6,0-1.146-0.111-1.638-0.333
			c-0.492-0.222-0.916-0.534-1.269-0.936c-0.354-0.402-0.63-0.876-0.828-1.422c-0.198-0.546-0.297-1.143-0.297-1.791
			c0-0.672,0.102-1.29,0.306-1.854c0.204-0.564,0.489-1.046,0.855-1.449c0.366-0.402,0.807-0.717,1.323-0.945
			c0.516-0.228,1.08-0.342,1.692-0.342c0.612,0,1.167,0.111,1.665,0.333c0.498,0.222,0.924,0.528,1.278,0.918
			c0.354,0.39,0.626,0.858,0.819,1.404C50.973,9.438,51.069,10.035,51.069,10.683z M49.646,10.728c0-0.479-0.063-0.931-0.189-1.355
			s-0.306-0.79-0.54-1.095c-0.234-0.305-0.516-0.548-0.846-0.727c-0.33-0.18-0.699-0.27-1.107-0.27c-0.42,0-0.798,0.09-1.134,0.27
			c-0.336,0.179-0.624,0.425-0.864,0.736c-0.24,0.311-0.423,0.679-0.549,1.104c-0.126,0.425-0.189,0.889-0.189,1.391
			c0,0.467,0.066,0.91,0.198,1.329c0.132,0.419,0.315,0.784,0.549,1.095s0.519,0.56,0.855,0.745s0.702,0.278,1.098,0.278
			s0.759-0.09,1.089-0.27c0.33-0.179,0.615-0.428,0.855-0.745c0.24-0.317,0.429-0.688,0.567-1.113
			C49.578,11.676,49.646,11.219,49.646,10.728z"/>
		<path fill="#FFFFFF" d="M59.482,15.111v-1.512h-0.108c-0.564,1.141-1.536,1.71-2.916,1.71c-0.528,0-1.014-0.111-1.458-0.333
			c-0.444-0.222-0.828-0.528-1.152-0.918c-0.324-0.39-0.579-0.855-0.765-1.395c-0.186-0.54-0.279-1.127-0.279-1.764
			c0-0.684,0.093-1.311,0.279-1.881s0.45-1.062,0.792-1.476c0.342-0.414,0.747-0.735,1.215-0.963
			c0.468-0.228,0.983-0.342,1.548-0.342c1.236,0,2.1,0.45,2.592,1.35h0.036V2.349h1.368v10.602c0,0.384,0.006,0.753,0.018,1.107
			c0.012,0.354,0.03,0.705,0.054,1.053H59.482z M59.266,9.927c0-0.384-0.06-0.735-0.18-1.053s-0.288-0.594-0.504-0.828
			c-0.216-0.234-0.471-0.414-0.765-0.54s-0.609-0.189-0.945-0.189c-0.408,0-0.777,0.087-1.107,0.261
			c-0.33,0.174-0.612,0.414-0.846,0.72c-0.234,0.306-0.414,0.675-0.54,1.107s-0.189,0.9-0.189,1.404
			c0,0.504,0.063,0.963,0.189,1.377c0.126,0.414,0.303,0.771,0.531,1.071c0.228,0.3,0.504,0.531,0.828,0.693
			c0.324,0.162,0.684,0.243,1.08,0.243c0.36,0,0.689-0.072,0.99-0.216c0.3-0.144,0.558-0.339,0.774-0.585
			c0.216-0.246,0.384-0.531,0.504-0.855c0.12-0.324,0.18-0.66,0.18-1.008V9.927z"/>
		<path fill="#FFFFFF" d="M71.403,10.656c0,0.694-0.093,1.327-0.279,1.895c-0.187,0.569-0.45,1.057-0.792,1.464
			c-0.342,0.408-0.75,0.725-1.224,0.953c-0.474,0.227-0.999,0.341-1.575,0.341c-1.224,0-2.112-0.468-2.664-1.404h-0.036v4.77h-1.368
			V9.239c0-0.468-0.006-0.935-0.018-1.402c-0.012-0.467-0.03-0.935-0.054-1.402h1.242v1.51h0.108
			c0.648-1.126,1.662-1.689,3.042-1.689c0.516,0,0.996,0.108,1.44,0.323c0.444,0.216,0.828,0.515,1.152,0.898
			c0.324,0.384,0.576,0.848,0.756,1.393C71.313,9.414,71.403,10.01,71.403,10.656z M70.017,10.709c0-0.481-0.063-0.929-0.189-1.344
			s-0.303-0.773-0.531-1.074c-0.228-0.301-0.507-0.535-0.837-0.704c-0.331-0.168-0.693-0.253-1.089-0.253
			c-0.312,0-0.621,0.066-0.927,0.198c-0.306,0.133-0.579,0.319-0.819,0.56c-0.24,0.241-0.432,0.526-0.576,0.857
			s-0.216,0.695-0.216,1.092v1.588c0,0.361,0.063,0.698,0.189,1.011c0.126,0.312,0.297,0.586,0.513,0.821
			c0.216,0.234,0.477,0.421,0.783,0.56c0.306,0.138,0.639,0.208,0.999,0.208c0.828,0,1.485-0.313,1.971-0.938
			C69.774,12.665,70.017,11.805,70.017,10.709z"/>
		<path fill="#FFFFFF" d="M81.365,10.683c0,0.684-0.102,1.308-0.306,1.872c-0.204,0.564-0.492,1.05-0.864,1.458
			c-0.373,0.408-0.813,0.727-1.323,0.954c-0.51,0.228-1.077,0.342-1.701,0.342c-0.6,0-1.146-0.111-1.638-0.333
			c-0.492-0.222-0.916-0.534-1.269-0.936c-0.354-0.402-0.63-0.876-0.828-1.422c-0.198-0.546-0.297-1.143-0.297-1.791
			c0-0.672,0.102-1.29,0.306-1.854c0.204-0.564,0.489-1.046,0.855-1.449c0.366-0.402,0.807-0.717,1.323-0.945
			c0.516-0.228,1.08-0.342,1.692-0.342c0.612,0,1.167,0.111,1.665,0.333c0.498,0.222,0.924,0.528,1.278,0.918
			c0.354,0.39,0.626,0.858,0.819,1.404C81.269,9.438,81.365,10.035,81.365,10.683z M79.942,10.728c0-0.479-0.063-0.931-0.189-1.355
			s-0.306-0.79-0.54-1.095c-0.234-0.305-0.516-0.548-0.846-0.727c-0.33-0.18-0.699-0.27-1.107-0.27c-0.42,0-0.798,0.09-1.134,0.27
			c-0.336,0.179-0.624,0.425-0.864,0.736c-0.24,0.311-0.423,0.679-0.549,1.104c-0.126,0.425-0.189,0.889-0.189,1.391
			c0,0.467,0.066,0.91,0.198,1.329c0.132,0.419,0.315,0.784,0.549,1.095s0.519,0.56,0.855,0.745s0.702,0.278,1.098,0.278
			s0.759-0.09,1.089-0.27c0.33-0.179,0.615-0.428,0.855-0.745c0.24-0.317,0.429-0.688,0.567-1.113
			C79.874,11.676,79.942,11.219,79.942,10.728z"/>
		<path fill="#FFFFFF" d="M87.691,7.569c-0.072-0.012-0.15-0.021-0.234-0.027s-0.174-0.009-0.27-0.009
			c-0.324,0-0.621,0.072-0.891,0.216s-0.501,0.342-0.693,0.594s-0.342,0.555-0.45,0.909c-0.108,0.354-0.162,0.741-0.162,1.161v4.698
			h-1.368V9.063c0-0.444-0.003-0.885-0.009-1.323c-0.006-0.438-0.021-0.879-0.045-1.323h1.206v1.71h0.108
			c0.204-0.576,0.519-1.035,0.945-1.377c0.426-0.342,0.909-0.513,1.449-0.513c0.084,0,0.159,0.003,0.225,0.009
			c0.066,0.006,0.129,0.016,0.189,0.027V7.569z"/>
		<path fill="#FFFFFF" d="M94.207,15.111l-0.126-1.116h-0.054c-0.588,0.876-1.464,1.314-2.628,1.314
			c-0.372,0-0.714-0.061-1.026-0.18c-0.312-0.12-0.582-0.291-0.81-0.513c-0.229-0.222-0.408-0.483-0.54-0.783
			c-0.132-0.3-0.198-0.63-0.198-0.99c0-1.056,0.435-1.857,1.305-2.403c0.87-0.546,2.145-0.819,3.825-0.819V9.423
			c0-1.428-0.666-2.142-1.998-2.142c-0.828,0-1.56,0.21-2.196,0.63l-0.324-0.936c0.78-0.492,1.686-0.738,2.718-0.738
			c2.112,0,3.168,1.158,3.168,3.474v3.33c0,0.42,0.009,0.801,0.027,1.143c0.018,0.342,0.051,0.651,0.099,0.927H94.207z
			 M93.973,10.611h-0.27c-2.328,0-3.492,0.684-3.492,2.052c0,0.54,0.144,0.942,0.432,1.206c0.288,0.264,0.648,0.396,1.08,0.396
			c0.276,0,0.549-0.048,0.819-0.144c0.27-0.096,0.51-0.23,0.72-0.405c0.21-0.174,0.381-0.387,0.513-0.639
			c0.132-0.252,0.198-0.534,0.198-0.846V10.611z"/>
	</g>
	<g>
	</g>
	<g>
	</g>
	<g>
	</g>
	<g>
	</g>
	<g>
	</g>
	<g>
	</g>
	<g>
	</g>
	<g>
	</g>
	<g>
	</g>
	<g>
	</g>
	<g>
	</g>
	<g>
	</g>
	<g>
	</g>
	<g>
	</g>
	<g>
	</g>
</g>
</svg>
