<?xml version="1.0" encoding="utf-8"?>
<!-- Generator: Adobe Illustrator 16.0.1, SVG Export Plug-In . SVG Version: 6.00 Build 0)  -->
<!DOCTYPE svg PUBLIC "-//W3C//DTD SVG 1.1//EN" "http://www.w3.org/Graphics/SVG/1.1/DTD/svg11.dtd">
<svg version="1.1" xmlns="http://www.w3.org/2000/svg" xmlns:xlink="http://www.w3.org/1999/xlink" x="0px" y="0px" width="130px"
	 height="20px" viewBox="0 0 130 20" enable-background="new 0 0 130 20" xml:space="preserve">
<g id="Help">
</g>
<g id="Nav">
	<g>
		<path fill="#FFFFFF" d="M45.99,8.919c0,0.948-0.129,1.812-0.387,2.592c-0.258,0.78-0.625,1.452-1.098,2.016
			c-0.474,0.564-1.044,1.002-1.71,1.314s-1.407,0.468-2.223,0.468c-0.78,0-1.494-0.153-2.142-0.459
			c-0.648-0.306-1.206-0.731-1.674-1.278c-0.468-0.546-0.831-1.194-1.089-1.944c-0.258-0.75-0.387-1.575-0.387-2.475
			c0-0.936,0.135-1.797,0.405-2.583c0.27-0.786,0.645-1.458,1.125-2.016c0.479-0.558,1.053-0.993,1.719-1.305
			s1.395-0.468,2.187-0.468s1.515,0.15,2.169,0.45c0.654,0.3,1.209,0.72,1.665,1.26s0.81,1.188,1.062,1.944
			C45.864,7.191,45.99,8.019,45.99,8.919z M44.532,8.991c0-0.72-0.096-1.389-0.288-2.007s-0.459-1.158-0.801-1.62
			c-0.342-0.462-0.75-0.822-1.224-1.08c-0.474-0.258-0.999-0.387-1.575-0.387c-0.588,0-1.125,0.129-1.611,0.387
			c-0.486,0.258-0.9,0.618-1.242,1.08c-0.342,0.462-0.609,1.014-0.801,1.656s-0.288,1.341-0.288,2.097
			c0,0.708,0.096,1.371,0.288,1.989s0.459,1.155,0.801,1.611c0.342,0.456,0.753,0.816,1.233,1.08
			c0.479,0.264,1.008,0.396,1.584,0.396c0.588,0,1.125-0.132,1.611-0.396c0.486-0.264,0.9-0.63,1.242-1.098
			c0.342-0.468,0.605-1.017,0.792-1.647C44.439,10.422,44.532,9.735,44.532,8.991z"/>
		<path fill="#FFFFFF" d="M56.227,10.674c0,0.683-0.096,1.305-0.288,1.868s-0.459,1.051-0.801,1.464
			c-0.342,0.413-0.744,0.733-1.206,0.961c-0.462,0.227-0.969,0.341-1.521,0.341c-1.296,0-2.256-0.546-2.88-1.638h-0.054v1.44h-1.26
			c0.024-0.348,0.042-0.699,0.054-1.053c0.012-0.354,0.018-0.723,0.018-1.107V2.349h1.368v5.508h0.036
			c0.588-1.068,1.566-1.602,2.934-1.602c0.528,0,1.014,0.108,1.458,0.323c0.444,0.216,0.825,0.518,1.143,0.907
			s0.564,0.856,0.738,1.401S56.227,10.027,56.227,10.674z M54.84,10.719c0-0.479-0.063-0.927-0.189-1.341s-0.303-0.774-0.531-1.08
			c-0.228-0.306-0.507-0.543-0.837-0.711c-0.331-0.168-0.693-0.252-1.089-0.252c-0.324,0-0.639,0.066-0.945,0.198
			c-0.306,0.132-0.576,0.315-0.81,0.549c-0.234,0.234-0.423,0.516-0.567,0.846c-0.144,0.33-0.216,0.693-0.216,1.089v1.674
			c0,0.372,0.069,0.711,0.207,1.017c0.138,0.306,0.321,0.57,0.549,0.792c0.228,0.222,0.492,0.393,0.792,0.513
			c0.3,0.12,0.612,0.18,0.936,0.18c0.84,0,1.5-0.318,1.98-0.954C54.601,12.603,54.84,11.763,54.84,10.719z"/>
		<path fill="#FFFFFF" d="M64.316,7.785c-0.528-0.288-1.14-0.432-1.836-0.432c-0.492,0-0.93,0.087-1.314,0.261
			c-0.384,0.174-0.708,0.414-0.972,0.72c-0.264,0.306-0.468,0.669-0.612,1.089c-0.144,0.42-0.216,0.876-0.216,1.368
			c0,0.504,0.075,0.966,0.225,1.386c0.15,0.42,0.36,0.777,0.63,1.071s0.591,0.522,0.963,0.684c0.372,0.162,0.786,0.243,1.242,0.243
			c0.648,0,1.29-0.144,1.926-0.432l0.27,1.044c-0.66,0.336-1.476,0.504-2.448,0.504c-0.636,0-1.212-0.105-1.728-0.315
			c-0.516-0.21-0.96-0.51-1.332-0.9c-0.372-0.39-0.657-0.855-0.855-1.395c-0.198-0.54-0.297-1.146-0.297-1.818
			c0-0.684,0.111-1.308,0.333-1.872c0.222-0.564,0.531-1.05,0.927-1.458c0.396-0.408,0.873-0.726,1.431-0.954
			c0.558-0.228,1.173-0.342,1.845-0.342c0.875,0,1.596,0.156,2.16,0.468L64.316,7.785z"/>
		<path fill="#FFFFFF" d="M73.685,15.111h-1.386v-5.076c0-1.776-0.684-2.664-2.052-2.664c-0.312,0-0.606,0.066-0.882,0.198
			c-0.276,0.132-0.519,0.309-0.729,0.531c-0.21,0.223-0.378,0.48-0.504,0.774s-0.189,0.609-0.189,0.945v5.292h-1.368V2.349h1.368
			v5.454h0.036c0.276-0.479,0.663-0.861,1.161-1.143c0.498-0.282,1.023-0.423,1.575-0.423c0.9,0,1.62,0.318,2.16,0.954
			c0.54,0.636,0.81,1.53,0.81,2.682V15.111z"/>
		<path fill="#FFFFFF" d="M84.107,10.683c0,0.684-0.102,1.308-0.306,1.872c-0.204,0.564-0.492,1.05-0.864,1.458
			c-0.373,0.408-0.813,0.727-1.323,0.954c-0.51,0.228-1.077,0.342-1.701,0.342c-0.6,0-1.146-0.111-1.638-0.333
			c-0.492-0.222-0.916-0.534-1.269-0.936c-0.354-0.402-0.63-0.876-0.828-1.422c-0.198-0.546-0.297-1.143-0.297-1.791
			c0-0.672,0.102-1.29,0.306-1.854c0.204-0.564,0.489-1.046,0.855-1.449c0.366-0.402,0.807-0.717,1.323-0.945
			c0.516-0.228,1.08-0.342,1.692-0.342c0.612,0,1.167,0.111,1.665,0.333C82.22,6.792,82.646,7.098,83,7.488
			c0.354,0.39,0.626,0.858,0.819,1.404C84.011,9.438,84.107,10.035,84.107,10.683z M82.685,10.728c0-0.479-0.063-0.931-0.189-1.355
			s-0.306-0.79-0.54-1.095c-0.234-0.305-0.516-0.548-0.846-0.727c-0.33-0.18-0.699-0.27-1.107-0.27c-0.42,0-0.798,0.09-1.134,0.27
			c-0.336,0.179-0.624,0.425-0.864,0.736c-0.24,0.311-0.423,0.679-0.549,1.104c-0.126,0.425-0.189,0.889-0.189,1.391
			c0,0.467,0.066,0.91,0.198,1.329c0.132,0.419,0.315,0.784,0.549,1.095s0.519,0.56,0.855,0.745s0.702,0.278,1.098,0.278
			s0.759-0.09,1.089-0.27c0.33-0.179,0.615-0.428,0.855-0.745c0.24-0.317,0.429-0.688,0.567-1.113
			C82.616,11.676,82.685,11.219,82.685,10.728z"/>
		<path fill="#FFFFFF" d="M92.52,15.111v-1.512h-0.108c-0.564,1.141-1.536,1.71-2.916,1.71c-0.528,0-1.014-0.111-1.458-0.333
			c-0.444-0.222-0.828-0.528-1.152-0.918c-0.324-0.39-0.579-0.855-0.765-1.395c-0.186-0.54-0.279-1.127-0.279-1.764
			c0-0.684,0.093-1.311,0.279-1.881s0.45-1.062,0.792-1.476c0.342-0.414,0.747-0.735,1.215-0.963
			c0.468-0.228,0.983-0.342,1.548-0.342c1.236,0,2.1,0.45,2.592,1.35h0.036V2.349h1.368v10.602c0,0.384,0.006,0.753,0.018,1.107
			c0.012,0.354,0.03,0.705,0.054,1.053H92.52z M92.304,9.927c0-0.384-0.06-0.735-0.18-1.053S91.836,8.28,91.62,8.046
			c-0.216-0.234-0.471-0.414-0.765-0.54s-0.609-0.189-0.945-0.189c-0.408,0-0.777,0.087-1.107,0.261
			c-0.33,0.174-0.612,0.414-0.846,0.72c-0.234,0.306-0.414,0.675-0.54,1.107s-0.189,0.9-0.189,1.404
			c0,0.504,0.063,0.963,0.189,1.377c0.126,0.414,0.303,0.771,0.531,1.071c0.228,0.3,0.504,0.531,0.828,0.693
			c0.324,0.162,0.684,0.243,1.08,0.243c0.36,0,0.689-0.072,0.99-0.216c0.3-0.144,0.558-0.339,0.774-0.585
			c0.216-0.246,0.384-0.531,0.504-0.855c0.12-0.324,0.18-0.66,0.18-1.008V9.927z"/>
	</g>
	<g>
	</g>
	<g>
	</g>
	<g>
	</g>
	<g>
	</g>
	<g>
	</g>
	<g>
	</g>
	<g>
	</g>
	<g>
	</g>
	<g>
	</g>
	<g>
	</g>
	<g>
	</g>
	<g>
	</g>
	<g>
	</g>
	<g>
	</g>
	<g>
	</g>
</g>
</svg>
