<?xml version="1.0" encoding="utf-8"?>
<!-- Generator: Adobe Illustrator 16.0.1, SVG Export Plug-In . SVG Version: 6.00 Build 0)  -->
<!DOCTYPE svg PUBLIC "-//W3C//DTD SVG 1.1//EN" "http://www.w3.org/Graphics/SVG/1.1/DTD/svg11.dtd">
<svg version="1.1" xmlns="http://www.w3.org/2000/svg" xmlns:xlink="http://www.w3.org/1999/xlink" x="0px" y="0px" width="130px"
	 height="20px" viewBox="0 0 130 20" enable-background="new 0 0 130 20" xml:space="preserve">
<g id="Help">
</g>
<g id="Nav">
	<g>
		<path fill="#FFFFFF" d="M34.327,8.919c0,1.812-0.45,3.3-1.35,4.464c-0.996,1.272-2.376,1.908-4.14,1.908
			c-1.668,0-2.988-0.618-3.96-1.854c-0.9-1.14-1.35-2.574-1.35-4.302c0-1.764,0.462-3.234,1.386-4.41
			c1.008-1.296,2.376-1.944,4.104-1.944c1.68,0,3.006,0.618,3.978,1.854C33.882,5.763,34.327,7.191,34.327,8.919z M32.67,8.991
			c0-1.284-0.294-2.388-0.882-3.312c-0.696-1.08-1.65-1.62-2.862-1.62c-1.248,0-2.214,0.552-2.898,1.656
			c-0.588,0.924-0.882,2.052-0.882,3.384c0,1.284,0.3,2.388,0.9,3.312c0.696,1.08,1.65,1.62,2.862,1.62
			c1.248,0,2.214-0.552,2.898-1.656C32.382,11.439,32.67,10.311,32.67,8.991z"/>
		<path fill="#FFFFFF" d="M42.446,15.111l-0.09-1.386h-0.054c-0.6,1.044-1.536,1.566-2.808,1.566c-0.936,0-1.659-0.327-2.169-0.981
			c-0.51-0.654-0.765-1.581-0.765-2.781v-5.13h1.566v4.842c0,1.848,0.63,2.772,1.89,2.772c0.468,0,0.906-0.156,1.314-0.468
			c0.335-0.264,0.576-0.588,0.72-0.972c0.096-0.252,0.144-0.522,0.144-0.81V6.399h1.566v6.336c0,0.384,0.006,0.774,0.018,1.17
			c0.012,0.396,0.03,0.798,0.054,1.206H42.446z M41.15,5.337h-1.116l-2.16-2.574h1.71L41.15,5.337z"/>
		<path fill="#FFFFFF" d="M57.512,15.111H56.09l-0.144-1.08H55.91c-0.6,0.84-1.47,1.26-2.61,1.26c-0.816,0-1.464-0.252-1.944-0.756
			c-0.444-0.468-0.666-1.044-0.666-1.728c0-1.056,0.444-1.863,1.332-2.421s2.154-0.831,3.798-0.819v-0.18
			c0-1.344-0.648-2.016-1.944-2.016c-0.84,0-1.578,0.21-2.214,0.63l-0.36-1.044c0.768-0.492,1.71-0.738,2.826-0.738
			c2.16,0,3.24,1.176,3.24,3.528v3.294C57.368,13.893,57.416,14.583,57.512,15.111z M55.838,12.195v-1.53
			c-2.388-0.048-3.582,0.606-3.582,1.962c0,0.492,0.138,0.867,0.414,1.125c0.276,0.258,0.624,0.387,1.044,0.387
			c0.516,0,0.966-0.15,1.35-0.45c0.336-0.264,0.57-0.594,0.702-0.99C55.814,12.543,55.838,12.375,55.838,12.195z"/>
		<path fill="#FFFFFF" d="M66.202,6.669L65.86,7.875c-0.504-0.276-1.098-0.414-1.782-0.414c-0.948,0-1.692,0.33-2.232,0.99
			c-0.516,0.601-0.774,1.375-0.774,2.322c0,0.984,0.276,1.773,0.828,2.367c0.552,0.594,1.266,0.891,2.142,0.891
			c0.624,0,1.248-0.138,1.872-0.414l0.252,1.188c-0.66,0.312-1.464,0.468-2.412,0.468c-1.296,0-2.331-0.402-3.105-1.206
			c-0.774-0.804-1.161-1.878-1.161-3.222c0-1.356,0.42-2.466,1.26-3.33c0.84-0.864,1.95-1.296,3.33-1.296
			C64.942,6.219,65.65,6.369,66.202,6.669z"/>
		<path fill="#FFFFFF" d="M75.375,15.111h-1.566v-5.058c0-1.692-0.654-2.538-1.962-2.538c-0.48,0-0.909,0.147-1.287,0.441
			s-0.645,0.669-0.801,1.125c-0.061,0.192-0.09,0.438-0.09,0.738v5.292h-1.566V2.349h1.566v5.382h0.036
			c0.276-0.468,0.657-0.837,1.143-1.107s1.005-0.405,1.557-0.405c0.756,0,1.397,0.24,1.926,0.72
			c0.696,0.648,1.044,1.632,1.044,2.952V15.111z"/>
		<path fill="#FFFFFF" d="M85.046,10.251c0,0.312-0.018,0.57-0.054,0.774h-5.976c0.024,1.02,0.324,1.794,0.9,2.322
			c0.504,0.468,1.182,0.702,2.034,0.702c0.864,0,1.644-0.144,2.34-0.432l0.27,1.116c-0.78,0.348-1.728,0.522-2.844,0.522
			c-1.296,0-2.319-0.396-3.069-1.188c-0.75-0.792-1.125-1.854-1.125-3.186c0-1.356,0.363-2.475,1.089-3.357
			c0.726-0.882,1.701-1.323,2.925-1.323c1.235,0,2.166,0.474,2.79,1.422C84.806,8.355,85.046,9.231,85.046,10.251z M83.534,9.891
			c0.012-0.66-0.126-1.218-0.414-1.674c-0.373-0.588-0.942-0.882-1.71-0.882c-0.72,0-1.296,0.288-1.728,0.864
			c-0.349,0.468-0.564,1.032-0.648,1.692H83.534z"/>
		<path fill="#FFFFFF" d="M91.375,7.587h-2.232v4.734c0,1.116,0.39,1.674,1.17,1.674c0.348,0,0.648-0.036,0.9-0.108l0.072,1.188
			c-0.36,0.132-0.822,0.198-1.386,0.198c-0.732,0-1.299-0.219-1.701-0.657c-0.402-0.438-0.603-1.185-0.603-2.241V7.587h-1.332V6.399
			h1.332V4.797l1.548-0.468v2.07h2.232V7.587z"/>
		<path fill="#FFFFFF" d="M100.087,10.251c0,0.312-0.018,0.57-0.054,0.774h-5.976c0.024,1.02,0.324,1.794,0.9,2.322
			c0.504,0.468,1.182,0.702,2.034,0.702c0.864,0,1.644-0.144,2.34-0.432l0.27,1.116c-0.78,0.348-1.728,0.522-2.844,0.522
			c-1.296,0-2.319-0.396-3.069-1.188c-0.75-0.792-1.125-1.854-1.125-3.186c0-1.356,0.363-2.475,1.089-3.357
			c0.726-0.882,1.701-1.323,2.925-1.323c1.235,0,2.166,0.474,2.79,1.422C99.847,8.355,100.087,9.231,100.087,10.251z M98.575,9.891
			c0.012-0.66-0.126-1.218-0.414-1.674c-0.373-0.588-0.942-0.882-1.71-0.882c-0.72,0-1.296,0.288-1.728,0.864
			c-0.349,0.468-0.564,1.032-0.648,1.692H98.575z"/>
		<path fill="#FFFFFF" d="M106.505,7.731c-0.156-0.024-0.336-0.036-0.54-0.036c-0.708,0-1.254,0.294-1.638,0.882
			c-0.349,0.516-0.522,1.14-0.522,1.872v4.662h-1.548v-6.03c0-0.936-0.024-1.83-0.072-2.682h1.386l0.072,1.692h0.054
			c0.192-0.576,0.507-1.032,0.945-1.368c0.438-0.335,0.915-0.504,1.431-0.504c0.168,0,0.312,0.012,0.432,0.036V7.731z"/>
	</g>
	<g>
	</g>
	<g>
	</g>
	<g>
	</g>
	<g>
	</g>
	<g>
	</g>
	<g>
	</g>
	<g>
	</g>
	<g>
	</g>
	<g>
	</g>
	<g>
	</g>
	<g>
	</g>
	<g>
	</g>
	<g>
	</g>
	<g>
	</g>
	<g>
	</g>
</g>
</svg>
