<?xml version="1.0" encoding="utf-8"?>
<!-- Generator: Adobe Illustrator 16.0.1, SVG Export Plug-In . SVG Version: 6.00 Build 0)  -->
<!DOCTYPE svg PUBLIC "-//W3C//DTD SVG 1.1//EN" "http://www.w3.org/Graphics/SVG/1.1/DTD/svg11.dtd">
<svg version="1.1" xmlns="http://www.w3.org/2000/svg" xmlns:xlink="http://www.w3.org/1999/xlink" x="0px" y="0px" width="130px"
	 height="20px" viewBox="0 0 130 20" enable-background="new 0 0 130 20" xml:space="preserve">
<g id="Help">
</g>
<g id="Nav">
	<g>
		<path fill="#FFFFFF" d="M36.418,8.757c0,2.016-0.576,3.594-1.728,4.734c-1.152,1.14-2.898,1.71-5.238,1.71
			c-1.08,0-1.998-0.042-2.754-0.126V3.141c1.02-0.167,2.094-0.252,3.222-0.252c2.124,0,3.72,0.486,4.788,1.458
			C35.849,5.403,36.418,6.873,36.418,8.757z M34.781,8.811c0-1.488-0.39-2.634-1.17-3.438c-0.816-0.828-2.016-1.242-3.6-1.242
			c-0.672,0-1.26,0.048-1.764,0.144v9.612c0.288,0.048,0.792,0.072,1.512,0.072c1.62,0,2.862-0.444,3.726-1.332
			C34.349,11.739,34.781,10.467,34.781,8.811z"/>
		<path fill="#FFFFFF" d="M45.885,15.111h-1.386l-0.09-1.386h-0.054c-0.6,1.044-1.536,1.566-2.808,1.566
			c-0.816,0-1.476-0.252-1.98-0.756c-0.636-0.648-0.954-1.649-0.954-3.006v-5.13h1.566v4.842c0,1.848,0.63,2.772,1.89,2.772
			c0.479,0,0.918-0.156,1.314-0.468c0.335-0.264,0.576-0.588,0.72-0.972c0.096-0.24,0.144-0.51,0.144-0.81V6.399h1.566v6.336
			C45.812,13.515,45.836,14.307,45.885,15.111z"/>
		<path fill="#FFFFFF" d="M55.721,15.111h-1.908l-2.916-4.176l-0.792,0.9v3.276h-1.548V2.349h1.548v8.046h0.036
			c0.252-0.36,0.498-0.69,0.738-0.99l2.52-3.006h1.872l-3.294,3.6L55.721,15.111z"/>
		<path fill="#FFFFFF" d="M64.329,15.111h-1.386l-0.09-1.386h-0.054c-0.6,1.044-1.536,1.566-2.808,1.566
			c-0.816,0-1.476-0.252-1.98-0.756c-0.636-0.648-0.954-1.649-0.954-3.006v-5.13h1.566v4.842c0,1.848,0.63,2.772,1.89,2.772
			c0.479,0,0.918-0.156,1.314-0.468c0.335-0.264,0.576-0.588,0.72-0.972c0.096-0.24,0.144-0.51,0.144-0.81V6.399h1.566v6.336
			C64.257,13.515,64.281,14.307,64.329,15.111z"/>
		<path fill="#FFFFFF" d="M74.285,15.111h-1.566v-5.058c0-1.704-0.654-2.556-1.962-2.556c-0.624,0-1.143,0.237-1.557,0.711
			s-0.621,1.023-0.621,1.647v5.256h-1.566V8.757c0-0.72-0.024-1.506-0.072-2.358h1.386l0.09,1.404h0.036
			c0.24-0.444,0.588-0.81,1.044-1.098c0.528-0.324,1.122-0.486,1.782-0.486c0.768,0,1.416,0.24,1.944,0.72
			c0.708,0.648,1.062,1.626,1.062,2.934V15.111z"/>
		<path fill="#FFFFFF" d="M84.406,6.399c-0.048,0.708-0.072,1.512-0.072,2.412v5.04c0,1.884-0.408,3.204-1.224,3.96
			c-0.744,0.684-1.782,1.026-3.114,1.026c-1.188,0-2.13-0.228-2.826-0.684l0.378-1.224c0.732,0.456,1.566,0.684,2.502,0.684
			c1.824,0,2.736-1.002,2.736-3.006v-0.972H82.75c-0.552,0.96-1.446,1.44-2.682,1.44c-1.056,0-1.926-0.405-2.61-1.215
			s-1.026-1.821-1.026-3.033c0-1.416,0.396-2.556,1.188-3.42c0.732-0.792,1.62-1.188,2.664-1.188c1.236,0,2.112,0.492,2.628,1.476
			h0.036l0.072-1.296H84.406z M82.768,11.439V9.801c0-0.288-0.024-0.522-0.072-0.702c-0.349-1.104-1.068-1.656-2.16-1.656
			c-0.756,0-1.368,0.3-1.836,0.9c-0.468,0.6-0.702,1.398-0.702,2.394c0,0.912,0.216,1.65,0.648,2.214
			c0.456,0.624,1.08,0.936,1.872,0.936c0.48,0,0.915-0.144,1.305-0.432c0.39-0.288,0.668-0.684,0.837-1.188
			C82.732,12.027,82.768,11.751,82.768,11.439z"/>
		<path fill="#FFFFFF" d="M93.248,15.111h-1.422l-0.144-1.08h-0.036c-0.6,0.84-1.47,1.26-2.61,1.26
			c-0.816,0-1.464-0.252-1.944-0.756c-0.444-0.468-0.666-1.044-0.666-1.728c0-1.056,0.444-1.863,1.332-2.421
			s2.154-0.831,3.798-0.819v-0.18c0-1.344-0.648-2.016-1.944-2.016c-0.84,0-1.578,0.21-2.214,0.63l-0.36-1.044
			c0.768-0.492,1.71-0.738,2.826-0.738c2.16,0,3.24,1.176,3.24,3.528v3.294C93.104,13.893,93.151,14.583,93.248,15.111z
			 M91.573,12.195v-1.53c-2.388-0.048-3.582,0.606-3.582,1.962c0,0.492,0.138,0.867,0.414,1.125
			c0.276,0.258,0.624,0.387,1.044,0.387c0.516,0,0.966-0.15,1.35-0.45c0.336-0.264,0.57-0.594,0.702-0.99
			C91.549,12.543,91.573,12.375,91.573,12.195z"/>
		<path fill="#FFFFFF" d="M103.045,15.111h-1.566v-5.058c0-1.704-0.654-2.556-1.962-2.556c-0.624,0-1.143,0.237-1.557,0.711
			s-0.621,1.023-0.621,1.647v5.256h-1.566V8.757c0-0.72-0.024-1.506-0.072-2.358h1.386l0.09,1.404h0.036
			c0.24-0.444,0.588-0.81,1.044-1.098c0.528-0.324,1.122-0.486,1.782-0.486c0.768,0,1.416,0.24,1.944,0.72
			c0.708,0.648,1.062,1.626,1.062,2.934V15.111z"/>
	</g>
	<g>
	</g>
	<g>
	</g>
	<g>
	</g>
	<g>
	</g>
	<g>
	</g>
	<g>
	</g>
	<g>
	</g>
	<g>
	</g>
	<g>
	</g>
	<g>
	</g>
	<g>
	</g>
	<g>
	</g>
	<g>
	</g>
	<g>
	</g>
	<g>
	</g>
</g>
</svg>
