<?xml version="1.0" encoding="utf-8"?>
<!-- Generator: Adobe Illustrator 16.0.1, SVG Export Plug-In . SVG Version: 6.00 Build 0)  -->
<!DOCTYPE svg PUBLIC "-//W3C//DTD SVG 1.1//EN" "http://www.w3.org/Graphics/SVG/1.1/DTD/svg11.dtd">
<svg version="1.1" xmlns="http://www.w3.org/2000/svg" xmlns:xlink="http://www.w3.org/1999/xlink" x="0px" y="0px" width="130px"
	 height="20px" viewBox="0 0 130 20" enable-background="new 0 0 130 20" xml:space="preserve">
<g id="Help">
</g>
<g id="Nav">
	<g>
		<path fill="#FFFFFF" d="M28.665,2.979l-3.42,12.132h-1.386l-1.584-6.48c-0.204-0.864-0.378-1.626-0.522-2.286
			c-0.144-0.66-0.246-1.23-0.306-1.71h-0.036c-0.072,0.432-0.187,0.981-0.342,1.647c-0.156,0.666-0.36,1.449-0.612,2.349
			l-1.782,6.48h-1.404l-3.06-12.132h1.44l1.494,6.318c0.204,0.828,0.381,1.587,0.531,2.277c0.15,0.69,0.273,1.329,0.369,1.917h0.054
			c0.06-0.408,0.177-0.957,0.351-1.647c0.174-0.69,0.393-1.545,0.657-2.565l1.674-6.3h1.386l1.548,6.282
			c0.216,0.9,0.396,1.698,0.54,2.394c0.144,0.696,0.258,1.302,0.342,1.818h0.036c0.192-1.127,0.516-2.532,0.972-4.212l1.674-6.282
			H28.665z"/>
		<path fill="#FFFFFF" d="M37.494,15.111h-1.386v-5.076c0-1.776-0.684-2.664-2.052-2.664c-0.312,0-0.606,0.066-0.882,0.198
			c-0.276,0.132-0.519,0.309-0.729,0.531c-0.21,0.223-0.378,0.48-0.504,0.774s-0.189,0.609-0.189,0.945v5.292h-1.368V2.349h1.368
			v5.454h0.036c0.276-0.479,0.663-0.861,1.161-1.143c0.498-0.282,1.023-0.423,1.575-0.423c0.9,0,1.62,0.318,2.16,0.954
			c0.54,0.636,0.81,1.53,0.81,2.682V15.111z"/>
		<path fill="#FFFFFF" d="M47.105,10.233c0,0.288-0.018,0.522-0.054,0.702h-6.03c0.024,1.044,0.297,1.848,0.819,2.412
			c0.522,0.564,1.251,0.846,2.187,0.846c0.912,0,1.692-0.15,2.34-0.45l0.252,0.99c-0.756,0.36-1.686,0.54-2.79,0.54
			c-0.648,0-1.228-0.105-1.737-0.315c-0.51-0.21-0.945-0.51-1.305-0.9c-0.36-0.39-0.633-0.852-0.819-1.386
			c-0.186-0.534-0.279-1.125-0.279-1.773c0-0.684,0.096-1.311,0.288-1.881c0.191-0.57,0.459-1.062,0.801-1.476
			c0.342-0.414,0.756-0.738,1.242-0.972c0.486-0.234,1.029-0.351,1.629-0.351c0.54,0,1.023,0.099,1.449,0.297
			c0.426,0.198,0.789,0.475,1.089,0.828c0.3,0.354,0.528,0.777,0.684,1.269C47.027,9.105,47.105,9.645,47.105,10.233z M45.755,9.927
			c0-0.828-0.192-1.485-0.576-1.971c-0.384-0.486-0.936-0.729-1.656-0.729c-0.684,0-1.245,0.252-1.683,0.756
			s-0.699,1.152-0.783,1.944H45.755z"/>
		<path fill="#FFFFFF" d="M53.393,7.569c-0.072-0.012-0.15-0.021-0.234-0.027s-0.174-0.009-0.27-0.009
			c-0.324,0-0.621,0.072-0.891,0.216s-0.501,0.342-0.693,0.594s-0.342,0.555-0.45,0.909c-0.108,0.354-0.162,0.741-0.162,1.161v4.698
			h-1.368V9.063c0-0.444-0.003-0.885-0.009-1.323c-0.006-0.438-0.021-0.879-0.045-1.323h1.206v1.71h0.108
			c0.204-0.576,0.519-1.035,0.945-1.377c0.426-0.342,0.909-0.513,1.449-0.513c0.084,0,0.159,0.003,0.225,0.009
			c0.066,0.006,0.129,0.016,0.189,0.027V7.569z"/>
		<path fill="#FFFFFF" d="M61.862,10.233c0,0.288-0.018,0.522-0.054,0.702h-6.03c0.024,1.044,0.297,1.848,0.819,2.412
			c0.522,0.564,1.251,0.846,2.187,0.846c0.912,0,1.692-0.15,2.34-0.45l0.252,0.99c-0.756,0.36-1.686,0.54-2.79,0.54
			c-0.648,0-1.228-0.105-1.737-0.315c-0.51-0.21-0.945-0.51-1.305-0.9c-0.36-0.39-0.633-0.852-0.819-1.386
			c-0.186-0.534-0.279-1.125-0.279-1.773c0-0.684,0.096-1.311,0.288-1.881c0.191-0.57,0.459-1.062,0.801-1.476
			c0.342-0.414,0.756-0.738,1.242-0.972c0.486-0.234,1.029-0.351,1.629-0.351c0.54,0,1.023,0.099,1.449,0.297
			c0.426,0.198,0.789,0.475,1.089,0.828c0.3,0.354,0.528,0.777,0.684,1.269C61.784,9.105,61.862,9.645,61.862,10.233z M60.512,9.927
			c0-0.828-0.192-1.485-0.576-1.971C59.552,7.47,59,7.227,58.28,7.227c-0.684,0-1.245,0.252-1.683,0.756s-0.699,1.152-0.783,1.944
			H60.512z"/>
		<path fill="#FFFFFF" d="M72.914,7.479h-2.286v4.968c0,1.14,0.396,1.71,1.188,1.71c0.396,0,0.702-0.042,0.918-0.126l0.072,1.062
			c-0.372,0.132-0.81,0.198-1.314,0.198c-0.72,0-1.269-0.219-1.647-0.657c-0.378-0.438-0.567-1.167-0.567-2.187V7.479H67.91V6.417
			h1.368V4.833l1.35-0.45v2.034h2.286V7.479z"/>
		<path fill="#FFFFFF" d="M82.225,10.683c0,0.684-0.102,1.308-0.306,1.872c-0.204,0.564-0.492,1.05-0.864,1.458
			c-0.373,0.408-0.813,0.727-1.323,0.954c-0.51,0.228-1.077,0.342-1.701,0.342c-0.6,0-1.146-0.111-1.638-0.333
			c-0.492-0.222-0.916-0.534-1.269-0.936c-0.354-0.402-0.63-0.876-0.828-1.422c-0.198-0.546-0.297-1.143-0.297-1.791
			c0-0.672,0.102-1.29,0.306-1.854c0.204-0.564,0.489-1.046,0.855-1.449c0.366-0.402,0.807-0.717,1.323-0.945
			c0.516-0.228,1.08-0.342,1.692-0.342c0.612,0,1.167,0.111,1.665,0.333c0.498,0.222,0.924,0.528,1.278,0.918
			c0.354,0.39,0.626,0.858,0.819,1.404C82.129,9.438,82.225,10.035,82.225,10.683z M80.803,10.737c0-0.48-0.063-0.933-0.189-1.359
			s-0.306-0.792-0.54-1.098c-0.234-0.306-0.516-0.549-0.846-0.729c-0.33-0.18-0.699-0.27-1.107-0.27c-0.42,0-0.798,0.09-1.134,0.27
			s-0.624,0.426-0.864,0.738c-0.24,0.312-0.423,0.681-0.549,1.107s-0.189,0.891-0.189,1.395c0,0.468,0.066,0.912,0.198,1.332
			c0.132,0.42,0.315,0.786,0.549,1.098c0.234,0.312,0.519,0.561,0.855,0.747s0.702,0.279,1.098,0.279s0.759-0.09,1.089-0.27
			c0.33-0.18,0.615-0.429,0.855-0.747s0.429-0.69,0.567-1.116C80.734,11.688,80.803,11.229,80.803,10.737z"/>
		<path fill="#FFFFFF" d="M96.678,11.673c0,0.528-0.099,1.011-0.297,1.449c-0.198,0.438-0.501,0.813-0.909,1.125
			c-0.408,0.312-0.927,0.552-1.557,0.72c-0.63,0.168-1.383,0.252-2.259,0.252c-0.384,0-0.768-0.009-1.152-0.027
			c-0.384-0.018-0.768-0.051-1.152-0.099V3.141c0.84-0.167,1.74-0.252,2.7-0.252c1.344,0,2.376,0.258,3.096,0.774
			c0.72,0.516,1.08,1.26,1.08,2.232c0,0.612-0.187,1.155-0.558,1.629c-0.372,0.474-0.87,0.825-1.494,1.053v0.036
			c0.732,0.18,1.332,0.543,1.8,1.089C96.444,10.248,96.678,10.905,96.678,11.673z M94.842,6.021c0-1.38-0.912-2.07-2.736-2.07
			c-0.636,0-1.098,0.042-1.386,0.126v4.086h1.476c0.804,0,1.446-0.201,1.926-0.603C94.602,7.158,94.842,6.645,94.842,6.021z
			 M95.238,11.673c0-0.768-0.288-1.371-0.864-1.809c-0.576-0.438-1.356-0.657-2.34-0.657H90.72v4.842
			c0.156,0.024,0.342,0.045,0.558,0.063s0.468,0.027,0.756,0.027c1.02,0,1.809-0.213,2.367-0.639S95.238,12.465,95.238,11.673z"/>
		<path fill="#FFFFFF" d="M104.785,15.111v-1.422h-0.126c-0.6,1.08-1.542,1.62-2.826,1.62c-0.936,0-1.656-0.321-2.16-0.963
			c-0.504-0.642-0.756-1.581-0.756-2.817V6.417h1.368v4.86c0,1.92,0.66,2.88,1.98,2.88c0.3,0,0.591-0.06,0.873-0.18
			c0.282-0.12,0.528-0.288,0.738-0.504c0.21-0.216,0.378-0.468,0.504-0.756s0.189-0.594,0.189-0.918V6.417h1.368v6.39
			c0,0.384,0.006,0.768,0.018,1.152c0.012,0.384,0.03,0.768,0.054,1.152H104.785z"/>
		<path fill="#FFFFFF" d="M115.551,6.417l-2.358,6.21c-0.588,1.5-1.074,2.64-1.458,3.42c-0.504,0.948-1.035,1.659-1.593,2.133
			c-0.558,0.474-1.113,0.771-1.665,0.891l-0.378-1.152c0.576-0.204,1.104-0.543,1.584-1.017c0.479-0.474,0.864-1.035,1.152-1.683
			c0.072-0.156,0.108-0.282,0.108-0.378c0-0.084-0.036-0.216-0.108-0.396l-3.132-8.028h1.494l1.944,5.274
			c0.096,0.252,0.191,0.528,0.288,0.828s0.186,0.624,0.27,0.972h0.054c0.06-0.204,0.135-0.456,0.225-0.756
			c0.09-0.3,0.201-0.66,0.333-1.08l1.782-5.238H115.551z"/>
	</g>
	<g>
	</g>
	<g>
	</g>
	<g>
	</g>
	<g>
	</g>
	<g>
	</g>
	<g>
	</g>
	<g>
	</g>
	<g>
	</g>
	<g>
	</g>
	<g>
	</g>
	<g>
	</g>
	<g>
	</g>
	<g>
	</g>
	<g>
	</g>
	<g>
	</g>
</g>
</svg>
