<?xml version="1.0" encoding="utf-8"?>
<!-- Generator: Adobe Illustrator 16.0.1, SVG Export Plug-In . SVG Version: 6.00 Build 0)  -->
<!DOCTYPE svg PUBLIC "-//W3C//DTD SVG 1.1//EN" "http://www.w3.org/Graphics/SVG/1.1/DTD/svg11.dtd">
<svg version="1.1" xmlns="http://www.w3.org/2000/svg" xmlns:xlink="http://www.w3.org/1999/xlink" x="0px" y="0px" width="130px"
	 height="20px" viewBox="0 0 130 20" enable-background="new 0 0 130 20" xml:space="preserve">
<g id="Help">
</g>
<g id="Nav">
	<g>
		<path fill="#FFFFFF" d="M43.519,6.435c0,1.068-0.312,1.926-0.936,2.574c-0.84,0.888-2.058,1.332-3.654,1.332
			c-0.54,0-0.948-0.036-1.224-0.108v4.878h-1.548V3.123c0.888-0.156,1.872-0.234,2.952-0.234c1.488,0,2.604,0.331,3.348,0.99
			C43.165,4.515,43.519,5.367,43.519,6.435z M41.953,6.507c0-0.768-0.252-1.359-0.756-1.773s-1.188-0.621-2.052-0.621
			c-0.588,0-1.068,0.042-1.44,0.126v4.734c0.3,0.084,0.714,0.126,1.242,0.126c0.948,0,1.686-0.225,2.214-0.675
			C41.688,7.974,41.953,7.335,41.953,6.507z"/>
		<path fill="#FFFFFF" d="M53.116,10.683c0,1.332-0.366,2.424-1.098,3.276c-0.78,0.888-1.824,1.332-3.132,1.332
			c-1.26,0-2.268-0.432-3.024-1.296c-0.708-0.84-1.062-1.896-1.062-3.168c0-1.332,0.366-2.424,1.098-3.276
			c0.78-0.888,1.824-1.332,3.132-1.332c1.26,0,2.268,0.432,3.024,1.296C52.762,8.343,53.116,9.399,53.116,10.683z M51.514,10.737
			c0-0.876-0.204-1.626-0.612-2.25c-0.468-0.732-1.116-1.098-1.944-1.098c-0.852,0-1.512,0.366-1.98,1.098
			c-0.408,0.624-0.612,1.386-0.612,2.286c0,0.864,0.21,1.614,0.63,2.25c0.468,0.732,1.116,1.098,1.944,1.098
			c0.816,0,1.464-0.372,1.944-1.116C51.304,12.357,51.514,11.601,51.514,10.737z"/>
		<path fill="#FFFFFF" d="M62.897,15.111h-1.404l-0.072-1.476h-0.036c-0.564,1.104-1.524,1.656-2.88,1.656
			c-1.056,0-1.929-0.408-2.619-1.224c-0.69-0.816-1.035-1.878-1.035-3.186c0-1.416,0.378-2.562,1.134-3.438
			c0.72-0.816,1.614-1.224,2.682-1.224c1.224,0,2.076,0.432,2.556,1.296h0.036V2.349h1.566v10.53
			C62.826,13.671,62.85,14.415,62.897,15.111z M61.259,11.493V9.927c0-0.264-0.018-0.486-0.054-0.666
			c-0.12-0.516-0.381-0.948-0.783-1.296s-0.885-0.522-1.449-0.522c-0.78,0-1.401,0.315-1.863,0.945
			c-0.462,0.63-0.693,1.431-0.693,2.403c0,0.936,0.216,1.698,0.648,2.286c0.456,0.648,1.08,0.972,1.872,0.972
			c0.684,0,1.248-0.264,1.692-0.792C61.049,12.765,61.259,12.177,61.259,11.493z"/>
		<path fill="#FFFFFF" d="M69.843,7.731c-0.156-0.024-0.336-0.036-0.54-0.036c-0.708,0-1.254,0.294-1.638,0.882
			c-0.349,0.516-0.522,1.14-0.522,1.872v4.662h-1.548v-6.03c0-0.936-0.024-1.83-0.072-2.682h1.386l0.072,1.692h0.054
			c0.192-0.576,0.507-1.032,0.945-1.368c0.438-0.335,0.915-0.504,1.431-0.504c0.168,0,0.312,0.012,0.432,0.036V7.731z"/>
		<path fill="#FFFFFF" d="M76.735,12.681c0,0.78-0.288,1.407-0.864,1.881s-1.362,0.711-2.358,0.711
			c-0.924,0-1.722-0.192-2.394-0.576l0.378-1.188c0.648,0.408,1.332,0.612,2.052,0.612c1.116,0,1.674-0.432,1.674-1.296
			c0-0.372-0.12-0.678-0.36-0.918c-0.24-0.24-0.648-0.468-1.224-0.684c-1.524-0.576-2.286-1.397-2.286-2.466
			c0-0.72,0.273-1.323,0.819-1.809c0.546-0.486,1.263-0.729,2.151-0.729c0.828,0,1.53,0.174,2.106,0.522l-0.396,1.152
			c-0.528-0.336-1.11-0.504-1.746-0.504c-0.444,0-0.792,0.111-1.044,0.333c-0.252,0.222-0.378,0.507-0.378,0.855
			c0,0.336,0.132,0.612,0.396,0.828c0.216,0.204,0.624,0.42,1.224,0.648C75.985,10.641,76.735,11.517,76.735,12.681z M76.25,2.763
			l-1.674,2.574h-1.098l-1.71-2.574h1.188L74,4.473h0.036l1.062-1.71H76.25z"/>
		<path fill="#FFFFFF" d="M86.068,15.111H84.16l-2.916-4.176l-0.792,0.9v3.276h-1.548V2.349h1.548v8.046h0.036
			c0.252-0.36,0.498-0.69,0.738-0.99l2.52-3.006h1.872l-3.294,3.6L86.068,15.111z"/>
		<path fill="#FFFFFF" d="M93.749,15.111h-1.422l-0.144-1.08h-0.036c-0.6,0.84-1.47,1.26-2.61,1.26
			c-0.816,0-1.464-0.252-1.944-0.756c-0.444-0.468-0.666-1.044-0.666-1.728c0-1.056,0.444-1.863,1.332-2.421
			s2.154-0.831,3.798-0.819v-0.18c0-1.344-0.648-2.016-1.944-2.016c-0.84,0-1.578,0.21-2.214,0.63l-0.36-1.044
			c0.768-0.492,1.71-0.738,2.826-0.738c2.16,0,3.24,1.176,3.24,3.528v3.294C93.605,13.893,93.653,14.583,93.749,15.111z
			 M92.075,12.195v-1.53c-2.388-0.048-3.582,0.606-3.582,1.962c0,0.492,0.138,0.867,0.414,1.125
			c0.276,0.258,0.624,0.387,1.044,0.387c0.516,0,0.966-0.15,1.35-0.45c0.336-0.264,0.57-0.594,0.702-0.99
			C92.051,12.543,92.075,12.375,92.075,12.195z"/>
	</g>
	<g>
	</g>
	<g>
	</g>
	<g>
	</g>
	<g>
	</g>
	<g>
	</g>
	<g>
	</g>
	<g>
	</g>
	<g>
	</g>
	<g>
	</g>
	<g>
	</g>
	<g>
	</g>
	<g>
	</g>
	<g>
	</g>
	<g>
	</g>
	<g>
	</g>
</g>
</svg>
