<?xml version="1.0" encoding="utf-8"?>
<!-- Generator: Adobe Illustrator 16.0.1, SVG Export Plug-In . SVG Version: 6.00 Build 0)  -->
<!DOCTYPE svg PUBLIC "-//W3C//DTD SVG 1.1//EN" "http://www.w3.org/Graphics/SVG/1.1/DTD/svg11.dtd">
<svg version="1.1" xmlns="http://www.w3.org/2000/svg" xmlns:xlink="http://www.w3.org/1999/xlink" x="0px" y="0px" width="130px"
	 height="20px" viewBox="0 0 130 20" enable-background="new 0 0 130 20" xml:space="preserve">
<g id="Help">
</g>
<g id="Nav">
	<g>
		<path fill="#FFFFFF" d="M33.408,14.589c-1.14,0.42-2.346,0.63-3.618,0.63c-1.872,0-3.348-0.522-4.428-1.566
			c-1.116-1.08-1.674-2.586-1.674-4.518c0-1.86,0.585-3.372,1.755-4.536c1.17-1.164,2.727-1.746,4.671-1.746
			c1.212,0,2.196,0.18,2.952,0.54l-0.396,1.278c-0.732-0.336-1.596-0.504-2.592-0.504c-1.44,0-2.592,0.432-3.456,1.296
			c-0.864,0.864-1.296,2.058-1.296,3.582c0,1.536,0.411,2.736,1.233,3.6c0.822,0.864,1.929,1.296,3.321,1.296
			c0.924,0,1.596-0.102,2.016-0.306V9.999h-2.412v-1.26h3.924V14.589z"/>
		<path fill="#FFFFFF" d="M43.559,15.111h-1.404l-0.072-1.476h-0.036c-0.564,1.104-1.524,1.656-2.88,1.656
			c-1.056,0-1.929-0.408-2.619-1.224c-0.69-0.816-1.035-1.878-1.035-3.186c0-1.416,0.378-2.562,1.134-3.438
			c0.72-0.816,1.614-1.224,2.682-1.224c1.224,0,2.076,0.432,2.556,1.296h0.036V2.349h1.566v10.53
			C43.487,13.671,43.511,14.415,43.559,15.111z M41.921,11.493V9.927c0-0.264-0.018-0.486-0.054-0.666
			c-0.12-0.516-0.381-0.948-0.783-1.296s-0.885-0.522-1.449-0.522c-0.78,0-1.401,0.315-1.863,0.945
			c-0.462,0.63-0.693,1.431-0.693,2.403c0,0.936,0.216,1.698,0.648,2.286c0.456,0.648,1.08,0.972,1.872,0.972
			c0.684,0,1.248-0.264,1.692-0.792C41.711,12.765,41.921,12.177,41.921,11.493z"/>
		<path fill="#FFFFFF" d="M47.958,14.355c0,1.667-0.348,2.85-1.044,3.546c-0.624,0.648-1.5,0.978-2.628,0.99l-0.162-1.242
			c0.768-0.06,1.326-0.282,1.674-0.666c0.396-0.456,0.594-1.53,0.594-3.222V6.399h1.566V14.355z M48.174,3.789
			c0,0.3-0.096,0.543-0.288,0.729s-0.438,0.279-0.738,0.279c-0.288,0-0.525-0.096-0.711-0.288c-0.186-0.192-0.279-0.432-0.279-0.72
			c0-0.288,0.099-0.528,0.297-0.72c0.198-0.192,0.441-0.288,0.729-0.288s0.525,0.096,0.711,0.288S48.174,3.501,48.174,3.789z"/>
		<path fill="#FFFFFF" d="M57.657,10.251c0,0.312-0.018,0.57-0.054,0.774h-5.976c0.024,1.02,0.324,1.794,0.9,2.322
			c0.504,0.468,1.182,0.702,2.034,0.702c0.864,0,1.644-0.144,2.34-0.432l0.27,1.116c-0.78,0.348-1.728,0.522-2.844,0.522
			c-1.296,0-2.319-0.396-3.069-1.188c-0.75-0.792-1.125-1.854-1.125-3.186c0-1.356,0.363-2.475,1.089-3.357
			c0.726-0.882,1.701-1.323,2.925-1.323c1.235,0,2.166,0.474,2.79,1.422C57.417,8.355,57.657,9.231,57.657,10.251z M56.145,9.891
			c0.012-0.66-0.126-1.218-0.414-1.674c-0.373-0.588-0.942-0.882-1.71-0.882c-0.72,0-1.296,0.288-1.728,0.864
			c-0.349,0.468-0.564,1.032-0.648,1.692H56.145z"/>
		<path fill="#FFFFFF" d="M71.787,15.111h-1.908l-2.916-4.176l-0.792,0.9v3.276h-1.548V2.349h1.548v8.046h0.036
			c0.252-0.36,0.498-0.69,0.738-0.99l2.52-3.006h1.872l-3.294,3.6L71.787,15.111z"/>
		<path fill="#FFFFFF" d="M80.394,15.111h-1.386l-0.09-1.386h-0.054c-0.6,1.044-1.536,1.566-2.808,1.566
			c-0.816,0-1.476-0.252-1.98-0.756c-0.636-0.648-0.954-1.649-0.954-3.006v-5.13h1.566v4.842c0,1.848,0.63,2.772,1.89,2.772
			c0.479,0,0.918-0.156,1.314-0.468c0.335-0.264,0.576-0.588,0.72-0.972c0.096-0.24,0.144-0.51,0.144-0.81V6.399h1.566v6.336
			C80.322,13.515,80.346,14.307,80.394,15.111z"/>
		<path fill="#FFFFFF" d="M91.142,10.629c0,1.488-0.396,2.658-1.188,3.51c-0.708,0.768-1.602,1.152-2.682,1.152
			c-1.2,0-2.07-0.444-2.61-1.332h-0.036v4.698h-1.548V9.225c0-0.936-0.024-1.877-0.072-2.826h1.404l0.072,1.458h0.036
			c0.66-1.092,1.662-1.638,3.006-1.638c1.056,0,1.923,0.408,2.601,1.224C90.803,8.259,91.142,9.321,91.142,10.629z M89.558,10.701
			c0-0.912-0.21-1.667-0.63-2.268c-0.468-0.648-1.092-0.972-1.872-0.972c-0.54,0-1.026,0.18-1.458,0.54
			c-0.432,0.36-0.72,0.822-0.864,1.386c-0.072,0.276-0.108,0.492-0.108,0.648v1.548c0,0.696,0.222,1.284,0.666,1.764
			c0.444,0.48,1.014,0.72,1.71,0.72c0.804,0,1.431-0.309,1.881-0.927C89.333,12.522,89.558,11.709,89.558,10.701z"/>
		<path fill="#FFFFFF" d="M95.125,3.789c0,0.3-0.096,0.543-0.288,0.729s-0.438,0.279-0.738,0.279c-0.288,0-0.525-0.096-0.711-0.288
			c-0.186-0.192-0.279-0.432-0.279-0.72c0-0.288,0.096-0.528,0.288-0.72c0.192-0.192,0.432-0.288,0.72-0.288
			c0.3,0,0.543,0.093,0.729,0.279S95.125,3.489,95.125,3.789z M94.909,15.111h-1.566V6.399h1.566V15.111z"/>
		<path fill="#FFFFFF" d="M101.844,7.587h-2.232v4.734c0,1.116,0.39,1.674,1.17,1.674c0.348,0,0.648-0.036,0.9-0.108l0.072,1.188
			c-0.36,0.132-0.822,0.198-1.386,0.198c-0.732,0-1.299-0.219-1.701-0.657c-0.402-0.438-0.603-1.185-0.603-2.241V7.587h-1.332V6.399
			h1.332V4.797l1.548-0.468v2.07h2.232V7.587z"/>
		<path fill="#FFFFFF" d="M105.516,3.789c0,0.3-0.096,0.543-0.288,0.729s-0.438,0.279-0.738,0.279c-0.288,0-0.525-0.096-0.711-0.288
			c-0.186-0.192-0.279-0.432-0.279-0.72c0-0.288,0.096-0.528,0.288-0.72c0.192-0.192,0.432-0.288,0.72-0.288
			c0.3,0,0.543,0.093,0.729,0.279S105.516,3.489,105.516,3.789z M105.3,15.111h-1.566V6.399h1.566V15.111z"/>
	</g>
	<g>
	</g>
	<g>
	</g>
	<g>
	</g>
	<g>
	</g>
	<g>
	</g>
	<g>
	</g>
	<g>
	</g>
	<g>
	</g>
	<g>
	</g>
	<g>
	</g>
	<g>
	</g>
	<g>
	</g>
	<g>
	</g>
	<g>
	</g>
	<g>
	</g>
</g>
</svg>
