<?xml version="1.0" encoding="utf-8"?>
<!-- Generator: Adobe Illustrator 16.0.1, SVG Export Plug-In . SVG Version: 6.00 Build 0)  -->
<!DOCTYPE svg PUBLIC "-//W3C//DTD SVG 1.1//EN" "http://www.w3.org/Graphics/SVG/1.1/DTD/svg11.dtd">
<svg version="1.1" xmlns="http://www.w3.org/2000/svg" xmlns:xlink="http://www.w3.org/1999/xlink" x="0px" y="0px" width="130px"
	 height="20px" viewBox="0 0 130 20" enable-background="new 0 0 130 20" xml:space="preserve">
<g id="Help">
</g>
<g id="Nav">
	<g>
		<path fill="#FFFFFF" d="M38.121,15.111h-1.836l-3.888-5.94l-1.134,1.314v4.626h-1.548V2.979h1.548v5.85h0.054
			c0.312-0.479,0.624-0.918,0.936-1.314l3.618-4.536h1.908l-4.284,5.166L38.121,15.111z"/>
		<path fill="#FFFFFF" d="M46.692,15.111h-1.404l-0.072-1.476H45.18c-0.564,1.104-1.524,1.656-2.88,1.656
			c-1.056,0-1.929-0.408-2.619-1.224c-0.69-0.816-1.035-1.878-1.035-3.186c0-1.416,0.378-2.562,1.134-3.438
			c0.72-0.816,1.614-1.224,2.682-1.224c1.224,0,2.076,0.432,2.556,1.296h0.036V2.349h1.566v10.53
			C46.62,13.671,46.644,14.415,46.692,15.111z M45.054,11.493V9.927c0-0.264-0.018-0.486-0.054-0.666
			c-0.12-0.516-0.381-0.948-0.783-1.296s-0.885-0.522-1.449-0.522c-0.78,0-1.401,0.315-1.863,0.945
			c-0.462,0.63-0.693,1.431-0.693,2.403c0,0.936,0.216,1.698,0.648,2.286c0.456,0.648,1.08,0.972,1.872,0.972
			c0.684,0,1.248-0.264,1.692-0.792C44.844,12.765,45.054,12.177,45.054,11.493z"/>
		<path fill="#FFFFFF" d="M56.354,10.251c0,0.312-0.018,0.57-0.054,0.774h-5.976c0.024,1.02,0.324,1.794,0.9,2.322
			c0.504,0.468,1.182,0.702,2.034,0.702c0.864,0,1.644-0.144,2.34-0.432l0.27,1.116c-0.78,0.348-1.728,0.522-2.844,0.522
			c-1.296,0-2.319-0.396-3.069-1.188c-0.75-0.792-1.125-1.854-1.125-3.186c0-1.356,0.363-2.475,1.089-3.357
			c0.726-0.882,1.701-1.323,2.925-1.323c1.235,0,2.166,0.474,2.79,1.422C56.114,8.355,56.354,9.231,56.354,10.251z M54.842,9.891
			c0.012-0.66-0.126-1.218-0.414-1.674c-0.373-0.588-0.942-0.882-1.71-0.882c-0.72,0-1.296,0.288-1.728,0.864
			c-0.349,0.468-0.564,1.032-0.648,1.692H54.842z"/>
		<path fill="#FFFFFF" d="M70.484,15.111h-1.908l-2.916-4.176l-0.792,0.9v3.276H63.32V2.349h1.548v8.046h0.036
			c0.252-0.36,0.498-0.69,0.738-0.99l2.52-3.006h1.872l-3.294,3.6L70.484,15.111z"/>
		<path fill="#FFFFFF" d="M79.092,15.111h-1.386l-0.09-1.386h-0.054c-0.6,1.044-1.536,1.566-2.808,1.566
			c-0.816,0-1.476-0.252-1.98-0.756c-0.636-0.648-0.954-1.649-0.954-3.006v-5.13h1.566v4.842c0,1.848,0.63,2.772,1.89,2.772
			c0.479,0,0.918-0.156,1.314-0.468c0.335-0.264,0.576-0.588,0.72-0.972c0.096-0.24,0.144-0.51,0.144-0.81V6.399h1.566v6.336
			C79.02,13.515,79.043,14.307,79.092,15.111z M77.976,2.763l-2.178,2.574H74.7l1.566-2.574H77.976z"/>
		<path fill="#FFFFFF" d="M89.839,10.629c0,1.488-0.396,2.658-1.188,3.51c-0.708,0.768-1.602,1.152-2.682,1.152
			c-1.2,0-2.07-0.444-2.61-1.332h-0.036v4.698h-1.548V9.225c0-0.936-0.024-1.877-0.072-2.826h1.404l0.072,1.458h0.036
			c0.66-1.092,1.662-1.638,3.006-1.638c1.056,0,1.923,0.408,2.601,1.224C89.5,8.259,89.839,9.321,89.839,10.629z M88.255,10.701
			c0-0.912-0.21-1.667-0.63-2.268c-0.468-0.648-1.092-0.972-1.872-0.972c-0.54,0-1.026,0.18-1.458,0.54
			c-0.432,0.36-0.72,0.822-0.864,1.386c-0.072,0.276-0.108,0.492-0.108,0.648v1.548c0,0.696,0.222,1.284,0.666,1.764
			c0.444,0.48,1.014,0.72,1.71,0.72c0.804,0,1.431-0.309,1.881-0.927C88.03,12.522,88.255,11.709,88.255,10.701z"/>
		<path fill="#FFFFFF" d="M93.823,3.789c0,0.3-0.096,0.543-0.288,0.729s-0.438,0.279-0.738,0.279c-0.288,0-0.525-0.096-0.711-0.288
			c-0.186-0.192-0.279-0.432-0.279-0.72c0-0.288,0.096-0.528,0.288-0.72c0.192-0.192,0.432-0.288,0.72-0.288
			c0.3,0,0.543,0.093,0.729,0.279S93.823,3.489,93.823,3.789z M93.606,15.111h-1.566V6.399h1.566V15.111z"/>
		<path fill="#FFFFFF" d="M100.515,7.587h-2.232v4.734c0,1.116,0.39,1.674,1.17,1.674c0.348,0,0.648-0.036,0.9-0.108l0.072,1.188
			c-0.36,0.132-0.822,0.198-1.386,0.198c-0.732,0-1.299-0.219-1.701-0.657c-0.402-0.438-0.603-1.185-0.603-2.241V7.587h-1.332V6.399
			h1.332V4.797l1.548-0.468v2.07h2.232V7.587z M99.597,4.743c0.156-0.12,0.309-0.291,0.459-0.513
			c0.15-0.222,0.225-0.495,0.225-0.819c0-0.204-0.054-0.398-0.162-0.585c-0.108-0.186-0.234-0.345-0.378-0.477l1.134-0.234
			c0.156,0.096,0.3,0.255,0.432,0.477c0.132,0.222,0.198,0.477,0.198,0.765c0,0.312-0.054,0.582-0.162,0.81s-0.24,0.423-0.396,0.585
			c-0.156,0.162-0.315,0.294-0.477,0.396s-0.297,0.177-0.405,0.225L99.597,4.743z"/>
	</g>
	<g>
	</g>
	<g>
	</g>
	<g>
	</g>
	<g>
	</g>
	<g>
	</g>
	<g>
	</g>
	<g>
	</g>
	<g>
	</g>
	<g>
	</g>
	<g>
	</g>
	<g>
	</g>
	<g>
	</g>
	<g>
	</g>
	<g>
	</g>
	<g>
	</g>
</g>
</svg>
