<?xml version="1.0" encoding="utf-8"?>
<!-- Generator: Adobe Illustrator 16.0.1, SVG Export Plug-In . SVG Version: 6.00 Build 0)  -->
<!DOCTYPE svg PUBLIC "-//W3C//DTD SVG 1.1//EN" "http://www.w3.org/Graphics/SVG/1.1/DTD/svg11.dtd">
<svg version="1.1" xmlns="http://www.w3.org/2000/svg" xmlns:xlink="http://www.w3.org/1999/xlink" x="0px" y="0px" width="130px"
	 height="20px" viewBox="0 0 130 20" enable-background="new 0 0 130 20" xml:space="preserve">
<g id="Help">
</g>
<g id="Nav">
	<g>
		<path fill="#FFFFFF" d="M41.336,6.435c0,1.068-0.312,1.926-0.936,2.574c-0.84,0.888-2.058,1.332-3.654,1.332
			c-0.54,0-0.948-0.036-1.224-0.108v4.878h-1.548V3.123c0.888-0.156,1.872-0.234,2.952-0.234c1.488,0,2.604,0.331,3.348,0.99
			C40.982,4.515,41.336,5.367,41.336,6.435z M39.771,6.507c0-0.768-0.252-1.359-0.756-1.773s-1.188-0.621-2.052-0.621
			c-0.588,0-1.068,0.042-1.44,0.126v4.734c0.3,0.084,0.714,0.126,1.242,0.126c0.948,0,1.686-0.225,2.214-0.675
			C39.506,7.974,39.771,7.335,39.771,6.507z"/>
		<path fill="#FFFFFF" d="M50.934,10.683c0,1.332-0.366,2.424-1.098,3.276c-0.78,0.888-1.824,1.332-3.132,1.332
			c-1.26,0-2.268-0.432-3.024-1.296c-0.708-0.84-1.062-1.896-1.062-3.168c0-1.332,0.366-2.424,1.098-3.276
			c0.78-0.888,1.824-1.332,3.132-1.332c1.26,0,2.268,0.432,3.024,1.296C50.58,8.343,50.934,9.399,50.934,10.683z M49.332,10.737
			c0-0.876-0.204-1.626-0.612-2.25c-0.468-0.732-1.116-1.098-1.944-1.098c-0.852,0-1.512,0.366-1.98,1.098
			c-0.408,0.624-0.612,1.386-0.612,2.286c0,0.864,0.21,1.614,0.63,2.25c0.468,0.732,1.116,1.098,1.944,1.098
			c0.816,0,1.464-0.372,1.944-1.116C49.122,12.357,49.332,11.601,49.332,10.737z"/>
		<path fill="#FFFFFF" d="M60.715,15.111h-1.404l-0.072-1.476h-0.036c-0.564,1.104-1.524,1.656-2.88,1.656
			c-1.056,0-1.929-0.408-2.619-1.224c-0.69-0.816-1.035-1.878-1.035-3.186c0-1.416,0.378-2.562,1.134-3.438
			c0.72-0.816,1.614-1.224,2.682-1.224c1.224,0,2.076,0.432,2.556,1.296h0.036V2.349h1.566v10.53
			C60.644,13.671,60.667,14.415,60.715,15.111z M59.077,11.493V9.927c0-0.264-0.018-0.486-0.054-0.666
			c-0.12-0.516-0.381-0.948-0.783-1.296s-0.885-0.522-1.449-0.522c-0.78,0-1.401,0.315-1.863,0.945
			c-0.462,0.63-0.693,1.431-0.693,2.403c0,0.936,0.216,1.698,0.648,2.286c0.456,0.648,1.08,0.972,1.872,0.972
			c0.684,0,1.248-0.264,1.692-0.792C58.867,12.765,59.077,12.177,59.077,11.493z"/>
		<path fill="#FFFFFF" d="M71.477,10.629c0,1.488-0.396,2.658-1.188,3.51c-0.708,0.768-1.602,1.152-2.682,1.152
			c-1.2,0-2.07-0.444-2.61-1.332h-0.036v4.698h-1.548V9.225c0-0.936-0.024-1.877-0.072-2.826h1.404l0.072,1.458h0.036
			c0.66-1.092,1.662-1.638,3.006-1.638c1.056,0,1.923,0.408,2.601,1.224C71.138,8.259,71.477,9.321,71.477,10.629z M69.893,10.701
			c0-0.912-0.21-1.667-0.63-2.268c-0.468-0.648-1.092-0.972-1.872-0.972c-0.54,0-1.026,0.18-1.458,0.54
			c-0.432,0.36-0.72,0.822-0.864,1.386c-0.072,0.276-0.108,0.492-0.108,0.648v1.548c0,0.696,0.222,1.284,0.666,1.764
			c0.444,0.48,1.014,0.72,1.71,0.72c0.804,0,1.431-0.309,1.881-0.927C69.668,12.522,69.893,11.709,69.893,10.701z"/>
		<path fill="#FFFFFF" d="M81.498,10.683c0,1.332-0.366,2.424-1.098,3.276c-0.78,0.888-1.824,1.332-3.132,1.332
			c-1.26,0-2.268-0.432-3.024-1.296c-0.708-0.84-1.062-1.896-1.062-3.168c0-1.332,0.366-2.424,1.098-3.276
			c0.78-0.888,1.824-1.332,3.132-1.332c1.26,0,2.268,0.432,3.024,1.296C81.144,8.343,81.498,9.399,81.498,10.683z M79.896,10.737
			c0-0.876-0.204-1.626-0.612-2.25c-0.468-0.732-1.116-1.098-1.944-1.098c-0.852,0-1.512,0.366-1.98,1.098
			c-0.408,0.624-0.612,1.386-0.612,2.286c0,0.864,0.21,1.614,0.63,2.25c0.468,0.732,1.116,1.098,1.944,1.098
			c0.816,0,1.464-0.372,1.944-1.116C79.686,12.357,79.896,11.601,79.896,10.737z"/>
		<path fill="#FFFFFF" d="M87.956,7.731c-0.156-0.024-0.336-0.036-0.54-0.036c-0.708,0-1.254,0.294-1.638,0.882
			c-0.349,0.516-0.522,1.14-0.522,1.872v4.662h-1.548v-6.03c0-0.936-0.024-1.83-0.072-2.682h1.386l0.072,1.692h0.054
			c0.192-0.576,0.507-1.032,0.945-1.368c0.438-0.335,0.915-0.504,1.431-0.504c0.168,0,0.312,0.012,0.432,0.036V7.731z"/>
		<path fill="#FFFFFF" d="M95.932,15.111h-1.422l-0.144-1.08H94.33c-0.6,0.84-1.47,1.26-2.61,1.26c-0.816,0-1.464-0.252-1.944-0.756
			c-0.444-0.468-0.666-1.044-0.666-1.728c0-1.056,0.444-1.863,1.332-2.421s2.154-0.831,3.798-0.819v-0.18
			c0-1.344-0.648-2.016-1.944-2.016c-0.84,0-1.578,0.21-2.214,0.63l-0.36-1.044c0.768-0.492,1.71-0.738,2.826-0.738
			c2.16,0,3.24,1.176,3.24,3.528v3.294C95.788,13.893,95.835,14.583,95.932,15.111z M94.257,12.195v-1.53
			c-2.388-0.048-3.582,0.606-3.582,1.962c0,0.492,0.138,0.867,0.414,1.125c0.276,0.258,0.624,0.387,1.044,0.387
			c0.516,0,0.966-0.15,1.35-0.45c0.336-0.264,0.57-0.594,0.702-0.99C94.233,12.543,94.257,12.375,94.257,12.195z"/>
	</g>
	<g>
	</g>
	<g>
	</g>
	<g>
	</g>
	<g>
	</g>
	<g>
	</g>
	<g>
	</g>
	<g>
	</g>
	<g>
	</g>
	<g>
	</g>
	<g>
	</g>
	<g>
	</g>
	<g>
	</g>
	<g>
	</g>
	<g>
	</g>
	<g>
	</g>
</g>
</svg>
