<?xml version="1.0" encoding="utf-8"?>
<!-- Generator: Adobe Illustrator 16.0.1, SVG Export Plug-In . SVG Version: 6.00 Build 0)  -->
<!DOCTYPE svg PUBLIC "-//W3C//DTD SVG 1.1//EN" "http://www.w3.org/Graphics/SVG/1.1/DTD/svg11.dtd">
<svg version="1.1" xmlns="http://www.w3.org/2000/svg" xmlns:xlink="http://www.w3.org/1999/xlink" x="0px" y="0px" width="130px"
	 height="20px" viewBox="0 0 130 20" enable-background="new 0 0 130 20" xml:space="preserve">
<g id="Help">
</g>
<g id="Nav">
	<g>
		<path fill="#FFFFFF" d="M44.881,15.111h-1.512l-0.288-5.328c-0.144-2.459-0.21-4.194-0.198-5.202h-0.054
			c-0.408,1.452-0.9,2.982-1.476,4.59l-2.106,5.868h-1.17l-1.926-5.76c-0.588-1.74-1.044-3.306-1.368-4.698h-0.036
			c-0.048,1.752-0.126,3.528-0.234,5.328l-0.324,5.202h-1.476l0.846-12.132h1.962l2.016,5.85c0.468,1.344,0.87,2.707,1.206,4.086
			h0.054c0.336-1.344,0.756-2.706,1.26-4.086l2.106-5.85h1.98L44.881,15.111z"/>
		<path fill="#FFFFFF" d="M53.613,15.111H52.19l-0.144-1.08h-0.036c-0.6,0.84-1.47,1.26-2.61,1.26c-0.816,0-1.464-0.252-1.944-0.756
			c-0.444-0.468-0.666-1.044-0.666-1.728c0-1.056,0.444-1.863,1.332-2.421s2.154-0.831,3.798-0.819v-0.18
			c0-1.344-0.648-2.016-1.944-2.016c-0.84,0-1.578,0.21-2.214,0.63l-0.36-1.044c0.768-0.492,1.71-0.738,2.826-0.738
			c2.16,0,3.24,1.176,3.24,3.528v3.294C53.469,13.893,53.517,14.583,53.613,15.111z M51.938,12.195v-1.53
			c-2.388-0.048-3.582,0.606-3.582,1.962c0,0.492,0.138,0.867,0.414,1.125c0.276,0.258,0.624,0.387,1.044,0.387
			c0.516,0,0.966-0.15,1.35-0.45c0.336-0.264,0.57-0.594,0.702-0.99C51.915,12.543,51.938,12.375,51.938,12.195z"/>
		<path fill="#FFFFFF" d="M61.333,6.399v1.278h-3.69v7.434h-1.548V6.399H61.333z"/>
		<path fill="#FFFFFF" d="M69.286,15.111h-1.422l-0.144-1.08h-0.036c-0.6,0.84-1.47,1.26-2.61,1.26
			c-0.816,0-1.464-0.252-1.944-0.756c-0.444-0.468-0.666-1.044-0.666-1.728c0-1.056,0.444-1.863,1.332-2.421
			s2.154-0.831,3.798-0.819v-0.18c0-1.344-0.648-2.016-1.944-2.016c-0.84,0-1.578,0.21-2.214,0.63l-0.36-1.044
			c0.768-0.492,1.71-0.738,2.826-0.738c2.16,0,3.24,1.176,3.24,3.528v3.294C69.142,13.893,69.189,14.583,69.286,15.111z
			 M67.611,12.195v-1.53c-2.388-0.048-3.582,0.606-3.582,1.962c0,0.492,0.138,0.867,0.414,1.125
			c0.276,0.258,0.624,0.387,1.044,0.387c0.516,0,0.966-0.15,1.35-0.45c0.336-0.264,0.57-0.594,0.702-0.99
			C67.587,12.543,67.611,12.375,67.611,12.195z"/>
		<path fill="#FFFFFF" d="M72.558,10.053h0.72c0.66,0,1.19-0.132,1.593-0.396c0.402-0.264,0.603-0.6,0.603-1.008
			c0-0.384-0.156-0.69-0.468-0.918c-0.312-0.228-0.708-0.342-1.188-0.342c-0.312,0-0.657,0.048-1.035,0.144
			c-0.378,0.096-0.717,0.24-1.017,0.432l-0.432-1.044c0.432-0.264,0.894-0.447,1.386-0.549c0.492-0.102,0.99-0.153,1.494-0.153
			c0.324,0,0.66,0.039,1.008,0.117c0.348,0.078,0.66,0.207,0.936,0.387c0.276,0.18,0.504,0.417,0.684,0.711
			c0.18,0.294,0.27,0.651,0.27,1.071c0,0.276-0.057,0.522-0.171,0.738C76.827,9.459,76.68,9.651,76.5,9.819
			c-0.18,0.168-0.384,0.309-0.612,0.423c-0.228,0.114-0.462,0.195-0.702,0.243v0.036c0.324,0.024,0.627,0.093,0.909,0.207
			c0.282,0.114,0.528,0.264,0.738,0.45c0.21,0.187,0.375,0.405,0.495,0.657c0.12,0.252,0.18,0.54,0.18,0.864
			c0,0.468-0.108,0.867-0.324,1.197s-0.498,0.6-0.846,0.81s-0.741,0.36-1.179,0.45c-0.438,0.09-0.879,0.135-1.323,0.135
			c-0.504,0-0.999-0.051-1.485-0.153c-0.486-0.102-0.927-0.261-1.323-0.477l0.432-1.098c0.312,0.168,0.669,0.306,1.071,0.414
			c0.402,0.108,0.795,0.162,1.179,0.162c0.648,0,1.158-0.141,1.53-0.423c0.372-0.282,0.558-0.639,0.558-1.071
			c0-0.288-0.069-0.531-0.207-0.729c-0.138-0.198-0.321-0.354-0.549-0.468c-0.228-0.114-0.492-0.195-0.792-0.243
			s-0.612-0.072-0.936-0.072h-0.756V10.053z"/>
		<path fill="#FFFFFF" d="M81.133,6.399v3.672c0,0.348,0,0.666,0,0.954s-0.003,0.57-0.009,0.846
			c-0.006,0.276-0.015,0.549-0.027,0.819c-0.012,0.27-0.024,0.561-0.036,0.873h0.054c0.12-0.264,0.231-0.504,0.333-0.72
			c0.102-0.216,0.204-0.426,0.306-0.63s0.204-0.411,0.306-0.621c0.102-0.21,0.225-0.441,0.369-0.693l2.664-4.5h1.836v8.712h-1.512
			v-3.69c0-0.36,0.003-0.681,0.009-0.963S85.438,9.9,85.444,9.63s0.015-0.546,0.027-0.828c0.012-0.282,0.024-0.597,0.036-0.945
			h-0.054c-0.132,0.276-0.255,0.531-0.369,0.765c-0.114,0.234-0.225,0.459-0.333,0.675s-0.219,0.426-0.333,0.63
			c-0.114,0.204-0.231,0.414-0.351,0.63c-0.408,0.684-0.84,1.422-1.296,2.214s-0.912,1.572-1.368,2.34h-1.764V6.399H81.133z"/>
		<path fill="#FFFFFF" d="M91.126,6.399v3.51h4.032v-3.51h1.548v8.712h-1.548v-3.942h-4.032v3.942h-1.548V6.399H91.126z"/>
	</g>
	<g>
	</g>
	<g>
	</g>
	<g>
	</g>
	<g>
	</g>
	<g>
	</g>
	<g>
	</g>
	<g>
	</g>
	<g>
	</g>
	<g>
	</g>
	<g>
	</g>
	<g>
	</g>
	<g>
	</g>
	<g>
	</g>
	<g>
	</g>
	<g>
	</g>
</g>
</svg>
