<?xml version="1.0" encoding="utf-8"?>
<!-- Generator: Adobe Illustrator 16.0.1, SVG Export Plug-In . SVG Version: 6.00 Build 0)  -->
<!DOCTYPE svg PUBLIC "-//W3C//DTD SVG 1.1//EN" "http://www.w3.org/Graphics/SVG/1.1/DTD/svg11.dtd">
<svg version="1.1" xmlns="http://www.w3.org/2000/svg" xmlns:xlink="http://www.w3.org/1999/xlink" x="0px" y="0px" width="130px"
	 height="20px" viewBox="0 0 130 20" enable-background="new 0 0 130 20" xml:space="preserve">
<g id="Help">
</g>
<g id="Nav">
	<g>
		<path fill="#FFFFFF" d="M30.19,2.979v12.132h-1.548V4.275h-5.454v10.836H21.64V2.979H30.19z"/>
		<path fill="#FFFFFF" d="M40.689,10.683c0,1.344-0.366,2.437-1.098,3.276c-0.78,0.888-1.824,1.332-3.132,1.332
			c-1.26,0-2.268-0.432-3.024-1.296c-0.708-0.852-1.062-1.908-1.062-3.168c0-1.344,0.366-2.436,1.098-3.276
			c0.78-0.888,1.824-1.332,3.132-1.332c1.272,0,2.28,0.432,3.024,1.296C40.335,8.355,40.689,9.411,40.689,10.683z M39.087,10.737
			c0-0.876-0.204-1.626-0.612-2.25c-0.468-0.732-1.116-1.098-1.944-1.098c-0.84,0-1.5,0.366-1.98,1.098
			c-0.408,0.624-0.612,1.386-0.612,2.286c0,0.864,0.21,1.614,0.63,2.25c0.468,0.732,1.116,1.098,1.944,1.098
			c0.804,0,1.452-0.372,1.944-1.116C38.877,12.345,39.087,11.589,39.087,10.737z"/>
		<path fill="#FFFFFF" d="M49.375,6.399v7.524l0.882,0.018l-0.09,3.942h-1.242l-0.072-2.772h-5.85l-0.072,2.772h-1.242l-0.072-3.942
			l0.72-0.018c0.192-0.276,0.357-0.564,0.495-0.864c0.138-0.3,0.254-0.606,0.351-0.918c0.168-0.54,0.294-1.101,0.378-1.683
			s0.126-1.179,0.126-1.791V6.399H49.375z M45.09,9.045c0,0.576-0.039,1.137-0.117,1.683s-0.189,1.065-0.333,1.557
			c-0.084,0.3-0.186,0.585-0.306,0.855c-0.12,0.27-0.246,0.525-0.378,0.765h3.87v-6.3H45.09V9.045z"/>
		<path fill="#FFFFFF" d="M59.316,6.399v7.524l0.882,0.018l-0.09,3.942h-1.242l-0.072-2.772h-5.85l-0.072,2.772H51.63l-0.072-3.942
			l0.72-0.018c0.192-0.276,0.357-0.564,0.495-0.864c0.138-0.3,0.254-0.606,0.351-0.918c0.168-0.54,0.294-1.101,0.378-1.683
			s0.126-1.179,0.126-1.791V6.399H59.316z M55.032,9.045c0,0.576-0.039,1.137-0.117,1.683s-0.189,1.065-0.333,1.557
			c-0.084,0.3-0.186,0.585-0.306,0.855c-0.12,0.27-0.246,0.525-0.378,0.765h3.87v-6.3h-2.736V9.045z"/>
		<path fill="#FFFFFF" d="M69.084,10.251c0,0.324-0.018,0.582-0.054,0.774h-5.976c0.024,0.96,0.293,1.704,0.81,2.232
			c0.516,0.528,1.224,0.792,2.124,0.792c0.852,0,1.632-0.144,2.34-0.432l0.27,1.116c-0.792,0.348-1.74,0.522-2.844,0.522
			c-0.648,0-1.23-0.102-1.746-0.306c-0.516-0.204-0.957-0.498-1.323-0.882c-0.366-0.384-0.646-0.843-0.837-1.377
			c-0.192-0.534-0.288-1.137-0.288-1.809c0-1.344,0.36-2.46,1.08-3.348c0.744-0.888,1.722-1.332,2.934-1.332
			c1.235,0,2.166,0.474,2.79,1.422C68.844,8.355,69.084,9.231,69.084,10.251z M67.572,9.891c0-0.684-0.138-1.242-0.414-1.674
			c-0.373-0.588-0.942-0.882-1.71-0.882c-0.72,0-1.296,0.288-1.728,0.864c-0.349,0.468-0.564,1.032-0.648,1.692H67.572z"/>
		<path fill="#FFFFFF" d="M79.271,10.629c0,1.5-0.396,2.67-1.188,3.51c-0.696,0.768-1.59,1.152-2.682,1.152
			c-1.2,0-2.07-0.444-2.61-1.332h-0.036v4.698h-1.548V9.225c0-0.468-0.006-0.936-0.018-1.404c-0.012-0.468-0.03-0.942-0.054-1.422
			h1.404v1.458h0.108c0.66-1.092,1.662-1.638,3.006-1.638c1.056,0,1.919,0.408,2.592,1.224C78.93,8.259,79.271,9.321,79.271,10.629z
			 M77.688,10.701c0-0.912-0.21-1.667-0.63-2.268c-0.468-0.648-1.092-0.972-1.872-0.972c-0.54,0-1.026,0.177-1.458,0.531
			c-0.432,0.354-0.72,0.819-0.864,1.395c-0.072,0.276-0.108,0.492-0.108,0.648v1.548c0,0.348,0.06,0.672,0.18,0.972
			c0.12,0.3,0.285,0.564,0.495,0.792c0.21,0.228,0.459,0.405,0.747,0.531s0.605,0.189,0.954,0.189c0.804,0,1.431-0.309,1.881-0.927
			C77.462,12.522,77.688,11.709,77.688,10.701z"/>
		<path fill="#FFFFFF" d="M82.118,6.399l2.826,3.798h0.288V6.399h1.494v3.798h0.27l2.826-3.798h1.8l-3.384,3.96
			c0.648,0.072,1.172,0.3,1.575,0.684c0.402,0.384,0.735,0.924,0.999,1.62c0.144,0.42,0.291,0.846,0.441,1.278
			s0.309,0.822,0.477,1.17h-1.566c-0.132-0.264-0.261-0.567-0.387-0.909c-0.126-0.342-0.255-0.705-0.387-1.089
			c-0.264-0.708-0.597-1.194-0.999-1.458c-0.402-0.264-0.879-0.396-1.431-0.396h-0.234v3.852h-1.494v-3.852h-0.252
			c-0.6,0-1.092,0.135-1.476,0.405s-0.708,0.759-0.972,1.467c-0.144,0.384-0.276,0.741-0.396,1.071
			c-0.12,0.331-0.258,0.633-0.414,0.909h-1.512c0.168-0.348,0.327-0.738,0.477-1.17c0.15-0.432,0.297-0.852,0.441-1.26
			c0.276-0.708,0.615-1.253,1.017-1.638c0.402-0.384,0.927-0.612,1.575-0.684l-3.402-3.96H82.118z"/>
		<path fill="#FFFFFF" d="M94.917,6.399v3.78h0.342l3.204-3.78h1.908l-3.726,3.942c0.696,0.072,1.266,0.333,1.71,0.783
			c0.444,0.45,0.834,1.071,1.17,1.863c0.12,0.288,0.252,0.627,0.396,1.017c0.144,0.39,0.318,0.759,0.522,1.107h-1.638
			c-0.12-0.192-0.25-0.447-0.387-0.765c-0.138-0.318-0.273-0.657-0.405-1.017c-0.3-0.708-0.666-1.227-1.098-1.557
			s-1.008-0.495-1.728-0.495h-0.27v3.834H93.37V6.399H94.917z"/>
		<path fill="#FFFFFF" d="M106.844,15.111l-0.144-1.08h-0.036c-0.588,0.84-1.458,1.26-2.61,1.26c-0.816,0-1.464-0.252-1.944-0.756
			c-0.444-0.456-0.666-1.032-0.666-1.728c0-1.056,0.435-1.86,1.305-2.412c0.87-0.552,2.121-0.828,3.753-0.828h0.072v-0.18
			c0-1.344-0.648-2.016-1.944-2.016c-0.84,0-1.578,0.21-2.214,0.63l-0.36-1.044c0.78-0.492,1.722-0.738,2.826-0.738
			c2.16,0,3.24,1.176,3.24,3.528v3.294c0,0.828,0.048,1.518,0.144,2.07H106.844z M106.592,10.665h-0.27
			c-2.208,0-3.312,0.654-3.312,1.962c0,0.504,0.138,0.882,0.414,1.134s0.624,0.378,1.044,0.378c0.528,0,0.978-0.15,1.35-0.45
			c0.24-0.192,0.429-0.411,0.567-0.657c0.138-0.246,0.207-0.525,0.207-0.837V10.665z"/>
	</g>
	<g>
	</g>
	<g>
	</g>
	<g>
	</g>
	<g>
	</g>
	<g>
	</g>
	<g>
	</g>
	<g>
	</g>
	<g>
	</g>
	<g>
	</g>
	<g>
	</g>
	<g>
	</g>
	<g>
	</g>
	<g>
	</g>
	<g>
	</g>
	<g>
	</g>
</g>
</svg>
