<?xml version="1.0" encoding="utf-8"?>
<!-- Generator: Adobe Illustrator 16.0.1, SVG Export Plug-In . SVG Version: 6.00 Build 0)  -->
<!DOCTYPE svg PUBLIC "-//W3C//DTD SVG 1.1//EN" "http://www.w3.org/Graphics/SVG/1.1/DTD/svg11.dtd">
<svg version="1.1" xmlns="http://www.w3.org/2000/svg" xmlns:xlink="http://www.w3.org/1999/xlink" x="0px" y="0px" width="130px"
	 height="20px" viewBox="0 0 130 20" enable-background="new 0 0 130 20" xml:space="preserve">
<g id="Help">
</g>
<g id="Nav">
	<g>
		<path fill="#FFFFFF" d="M28.158,2.979l-3.366,12.132h-1.62l-1.494-6.282c-0.396-1.656-0.66-2.981-0.792-3.978H20.85
			c-0.144,0.924-0.45,2.25-0.918,3.978l-1.674,6.282H16.62L13.596,2.979h1.656l1.404,6.12c0.36,1.537,0.654,2.94,0.882,4.212h0.036
			c0.144-0.876,0.468-2.286,0.972-4.23l1.602-6.102h1.584l1.458,6.12c0.408,1.716,0.69,3.108,0.846,4.176h0.036
			c0.216-1.2,0.528-2.598,0.936-4.194l1.566-6.102H28.158z"/>
		<path fill="#FFFFFF" d="M37.156,15.111H35.59v-5.058c0-1.692-0.654-2.538-1.962-2.538c-0.48,0-0.909,0.147-1.287,0.441
			s-0.645,0.669-0.801,1.125c-0.061,0.192-0.09,0.438-0.09,0.738v5.292h-1.566V2.349h1.566v5.382h0.036
			c0.276-0.468,0.657-0.837,1.143-1.107s1.005-0.405,1.557-0.405c0.756,0,1.397,0.24,1.926,0.72
			c0.696,0.648,1.044,1.632,1.044,2.952V15.111z"/>
		<path fill="#FFFFFF" d="M46.827,10.251c0,0.312-0.018,0.57-0.054,0.774h-5.976c0.024,1.02,0.324,1.794,0.9,2.322
			c0.504,0.468,1.182,0.702,2.034,0.702c0.864,0,1.644-0.144,2.34-0.432l0.27,1.116c-0.78,0.348-1.728,0.522-2.844,0.522
			c-1.296,0-2.319-0.396-3.069-1.188c-0.75-0.792-1.125-1.854-1.125-3.186c0-1.356,0.363-2.475,1.089-3.357
			c0.726-0.882,1.701-1.323,2.925-1.323c1.235,0,2.166,0.474,2.79,1.422C46.587,8.355,46.827,9.231,46.827,10.251z M45.315,9.891
			c0.012-0.66-0.126-1.218-0.414-1.674c-0.373-0.588-0.942-0.882-1.71-0.882c-0.72,0-1.296,0.288-1.728,0.864
			c-0.349,0.468-0.564,1.032-0.648,1.692H45.315z"/>
		<path fill="#FFFFFF" d="M53.246,7.731c-0.156-0.024-0.336-0.036-0.54-0.036c-0.708,0-1.254,0.294-1.638,0.882
			c-0.349,0.516-0.522,1.14-0.522,1.872v4.662h-1.548v-6.03c0-0.936-0.024-1.83-0.072-2.682h1.386l0.072,1.692h0.054
			c0.192-0.576,0.507-1.032,0.945-1.368c0.438-0.335,0.915-0.504,1.431-0.504c0.168,0,0.312,0.012,0.432,0.036V7.731z"/>
		<path fill="#FFFFFF" d="M61.86,10.251c0,0.312-0.018,0.57-0.054,0.774h-5.976c0.024,1.02,0.324,1.794,0.9,2.322
			c0.504,0.468,1.182,0.702,2.034,0.702c0.864,0,1.644-0.144,2.34-0.432l0.27,1.116c-0.78,0.348-1.728,0.522-2.844,0.522
			c-1.296,0-2.319-0.396-3.069-1.188c-0.75-0.792-1.125-1.854-1.125-3.186c0-1.356,0.363-2.475,1.089-3.357
			c0.726-0.882,1.701-1.323,2.925-1.323c1.235,0,2.166,0.474,2.79,1.422C61.62,8.355,61.86,9.231,61.86,10.251z M60.348,9.891
			c0.012-0.66-0.126-1.218-0.414-1.674c-0.373-0.588-0.942-0.882-1.71-0.882c-0.72,0-1.296,0.288-1.728,0.864
			c-0.349,0.468-0.564,1.032-0.648,1.692H60.348z"/>
		<path fill="#FFFFFF" d="M72.948,7.587h-2.232v4.734c0,1.116,0.39,1.674,1.17,1.674c0.348,0,0.648-0.036,0.9-0.108l0.072,1.188
			c-0.36,0.132-0.822,0.198-1.386,0.198c-0.732,0-1.299-0.219-1.701-0.657c-0.402-0.438-0.603-1.185-0.603-2.241V7.587h-1.332V6.399
			h1.332V4.797l1.548-0.468v2.07h2.232V7.587z"/>
		<path fill="#FFFFFF" d="M82.443,10.683c0,1.332-0.366,2.424-1.098,3.276c-0.78,0.888-1.824,1.332-3.132,1.332
			c-1.26,0-2.268-0.432-3.024-1.296c-0.708-0.84-1.062-1.896-1.062-3.168c0-1.332,0.366-2.424,1.098-3.276
			c0.78-0.888,1.824-1.332,3.132-1.332c1.26,0,2.268,0.432,3.024,1.296C82.089,8.343,82.443,9.399,82.443,10.683z M80.841,10.737
			c0-0.876-0.204-1.626-0.612-2.25c-0.468-0.732-1.116-1.098-1.944-1.098c-0.852,0-1.512,0.366-1.98,1.098
			c-0.408,0.624-0.612,1.386-0.612,2.286c0,0.864,0.21,1.614,0.63,2.25c0.468,0.732,1.116,1.098,1.944,1.098
			c0.816,0,1.464-0.372,1.944-1.116C80.631,12.357,80.841,11.601,80.841,10.737z"/>
		<path fill="#FFFFFF" d="M97.041,11.655c0,0.972-0.342,1.782-1.026,2.43c-0.804,0.744-2.178,1.116-4.122,1.116
			c-0.828,0-1.626-0.042-2.394-0.126V3.141c0.78-0.167,1.716-0.252,2.808-0.252c1.452,0,2.544,0.294,3.276,0.882
			c0.672,0.528,1.008,1.242,1.008,2.142c0,0.588-0.183,1.123-0.549,1.602c-0.366,0.48-0.867,0.828-1.503,1.044v0.054
			c0.684,0.168,1.248,0.486,1.692,0.954C96.771,10.131,97.041,10.827,97.041,11.655z M95.007,6.057c0-1.32-0.87-1.98-2.61-1.98
			c-0.588,0-1.038,0.042-1.35,0.126v3.906h1.386c0.78,0,1.404-0.192,1.872-0.576C94.773,7.149,95.007,6.657,95.007,6.057z
			 M95.403,11.637c0-0.78-0.306-1.38-0.918-1.8c-0.552-0.372-1.278-0.558-2.178-0.558h-1.26v4.644
			c0.264,0.048,0.69,0.072,1.278,0.072c0.9,0,1.614-0.174,2.142-0.522C95.091,13.065,95.403,12.453,95.403,11.637z"/>
		<path fill="#FFFFFF" d="M106.487,15.111h-1.386l-0.09-1.386h-0.054c-0.6,1.044-1.536,1.566-2.808,1.566
			c-0.816,0-1.476-0.252-1.98-0.756c-0.636-0.648-0.954-1.649-0.954-3.006v-5.13h1.566v4.842c0,1.848,0.63,2.772,1.89,2.772
			c0.479,0,0.918-0.156,1.314-0.468c0.335-0.264,0.576-0.588,0.72-0.972c0.096-0.24,0.144-0.51,0.144-0.81V6.399h1.566v6.336
			C106.415,13.515,106.439,14.307,106.487,15.111z"/>
		<path fill="#FFFFFF" d="M116.166,6.399l-2.304,6.174c-0.588,1.548-1.08,2.7-1.476,3.456c-0.457,0.864-0.942,1.53-1.458,1.998
			c-0.624,0.564-1.26,0.906-1.908,1.026l-0.414-1.314c0.492-0.156,0.954-0.42,1.386-0.792c0.54-0.456,0.966-1.038,1.278-1.746
			c0.084-0.168,0.126-0.288,0.126-0.36c0-0.084-0.036-0.222-0.108-0.414l-3.132-8.028h1.692l1.854,5.148
			c0.18,0.48,0.36,1.068,0.54,1.764h0.054c0.108-0.384,0.288-0.984,0.54-1.8l1.674-5.112H116.166z"/>
	</g>
	<g>
	</g>
	<g>
	</g>
	<g>
	</g>
	<g>
	</g>
	<g>
	</g>
	<g>
	</g>
	<g>
	</g>
	<g>
	</g>
	<g>
	</g>
	<g>
	</g>
	<g>
	</g>
	<g>
	</g>
	<g>
	</g>
	<g>
	</g>
	<g>
	</g>
</g>
</svg>
